<?xml version="1.0" encoding="UTF-8"?>
<!-- Created with Inkscape (http://www.inkscape.org/) -->
<svg id="SVGRoot" width="256px" height="256px" enable-background="new" version="1.1" viewBox="0 0 256 256" xmlns="http://www.w3.org/2000/svg" xmlns:cc="http://creativecommons.org/ns#" xmlns:dc="http://purl.org/dc/elements/1.1/" xmlns:rdf="http://www.w3.org/1999/02/22-rdf-syntax-ns#">
 <metadata>
  <rdf:RDF>
   <cc:Work rdf:about="">
    <dc:format>image/svg+xml</dc:format>
    <dc:type rdf:resource="http://purl.org/dc/dcmitype/StillImage"/>
    <dc:title/>
   </cc:Work>
  </rdf:RDF>
 </metadata>
 <g transform="matrix(15.719 0 0 15.719 2.5 2)" stroke-width=".063618">
  <path d="m0 0.5v-0.5h16v16h-1v-1.5q0-0.5-0.5-0.5h-0.5l-0.75 0.25 0.5625-0.1875-0.1875 0.0625q-0.1875 0.0625-0.3125 0.1875l-0.125 0.125 0.125-0.125-0.5625-0.5625 0.25-0.25q0.25-0.25 0.5-0.5t0.5-0.5 0.5-0.5 0.375-0.625l0.125-0.375-0.125-0.375q-0.125-0.375-0.5-0.5l-0.375-0.125h-0.5q-0.5 0-0.875-0.125t-0.5-0.5l-0.125-0.375v-4l-0.125-0.375q-0.125-0.375-0.375-0.625t-0.375-0.625l-0.25-0.75q-0.125-0.375-0.5-0.5l-0.75-0.25q-0.375-0.125-0.625-0.375t-0.625-0.375l-0.375-0.125h-4.5q-0.5 0-1 0t-0.875 0.125-0.375 0.375 0.375 0.375 0.875 0.125 1 0h0.5l0.375 0.125q0.375 0.125 0.625 0.375t0.5 0.5 0.375 0.625l0.125 0.375-0.125 0.375q-0.125 0.375-0.5 0.5t-0.875 0.125-1 0-1 0-0.875 0.125-0.375 0.375 0.375 0.375 0.875 0.125 1 0 1 0 0.875 0.125 0.375 0.375-0.375 0.375-0.875 0.125-1 0-1 0-0.875 0.125-0.375 0.375 0.375 0.375 0.875 0.125 1 0 1 0 1 0h0.5l0.375 0.125q0.375 0.125 0.5 0.5l0.125 0.375-0.125 0.375q-0.125 0.375-0.5 0.5t-0.875 0.125h-0.5l-0.375 0.125q-0.375 0.125-0.5 0.5l-0.125 0.375 0.125 0.375q0.125 0.375 0.375 0.625t0.5 0.5 0.5 0.5 0.5 0.5l0.25 0.25-0.5625 0.5625 0.125 0.125-0.125-0.125q-0.125-0.125-0.3125-0.1875l-0.1875-0.0625 0.5625 0.1875-0.75-0.25h-0.5q-0.5 0-0.5 0.5v1.5h-4v-15.5m6.3125 13.312-0.4375-0.4375 0.125 0.125q0.125 0.125 0.25 0.25l0.125 0.125-0.0625-0.0625m-2.8125-9.8125q0.5 0 0.875-0.125t0.375-0.375-0.375-0.375-0.875-0.125-1 0-0.875 0.125-0.375 0.375 0.375 0.375 0.875 0.125 1 0m9.4375 9.5625-0.3125 0.3125 0.125-0.125q0.125-0.125 0.25-0.25l0.125-0.125-0.1875 0.1875" fill-opacity="0"/>
  <path d="m1.25 1.5q0-0.25 0.375-0.375t0.875-0.125 1 0h0.5v1h-0.5q-0.5 0-1 0t-0.875-0.125-0.375-0.375" fill="#666" fill-opacity=".65882"/>
  <path d="m4 1.5v-0.5h1l0.25 0.75-0.1875-0.5625 0.0625 0.1875q0.0625 0.1875 0.1875 0.3125l0.125 0.125-0.125-0.125-0.59375 0.59375 0.15625 0.09375-0.15625-0.09375q-0.15625-0.09375-0.34375-0.15625l-0.1875-0.0625 0.5625 0.1875-0.75-0.25v-0.5" fill="#949494" fill-opacity=".6"/>
  <path d="m5.125 1.375-0.125-0.375h1v1l-0.375-0.125q-0.375-0.125-0.5-0.5" fill="#949494" fill-opacity=".8"/>
  <path d="m6 1.5v-0.5h1v1h-1v-0.5" fill="#959595" fill-opacity=".71373"/>
  <path d="m7 1.5v-0.5h1v1h-1v-0.5" fill="#949494" fill-opacity=".55294"/>
  <path d="m8 1.5v-0.5l0.375 0.125q0.375 0.125 0.625 0.375l0.25 0.25-0.375-0.375 0.125 0.125q0.125 0.125 0.28125 0.21875l0.15625 0.09375-0.15625-0.09375-0.59375 0.59375 0.125 0.125-0.125-0.125q-0.125-0.125-0.3125-0.1875l-0.1875-0.0625 0.5625 0.1875-0.75-0.25v-0.5" fill="#959595" fill-opacity=".20784"/>
  <path d="m5 2.5-0.25-0.25 0.375 0.375-0.125-0.125q-0.125-0.125-0.28125-0.21875l-0.15625-0.09375 0.15625 0.09375 0.59375-0.59375-0.125-0.125 0.125 0.125q0.125 0.125 0.3125 0.1875l0.1875 0.0625-0.5625-0.1875 0.75 0.25 0.25 0.75-0.1875-0.5625 0.0625 0.1875q0.0625 0.1875 0.1875 0.3125l0.125 0.125-0.125-0.125-0.59375 0.59375 0.09375 0.15625-0.09375-0.15625q-0.09375-0.15625-0.21875-0.28125l-0.125-0.125 0.375 0.375-0.25-0.25q-0.25-0.25-0.5-0.5" fill="#929292" fill-opacity=".47843"/>
  <path d="m6.125 2.375-0.125-0.375h1v1l-0.375-0.125q-0.375-0.125-0.5-0.5" fill="#9c9c9c" fill-opacity=".8"/>
  <path d="m7 2.5v-0.5h1v1h-1v-0.5" fill="#b5b5b5" fill-opacity=".92157"/>
  <path d="m8 2.5v-0.5l0.375 0.125q0.375 0.125 0.5 0.5l0.125 0.375h-1v-0.5" fill="#9c9c9c" fill-opacity=".82745"/>
  <path d="m8.875 2.625-0.125-0.375 0.1875 0.5625-0.0625-0.1875q-0.0625-0.1875-0.1875-0.3125l-0.125-0.125 0.125 0.125 0.59375-0.59375-0.15625-0.09375 0.15625 0.09375q0.15625 0.09375 0.34375 0.15625l0.1875 0.0625-0.5625-0.1875 0.75 0.25v1h-1l-0.125-0.375" fill="#919191" fill-opacity=".47451"/>
  <path d="m10 2.5v-0.5l0.375 0.125q0.375 0.125 0.5 0.5l0.125 0.375h-1v-0.5" fill="#999" fill-opacity=".039216"/>
  <path d="m1.25 3.5q0-0.25 0.375-0.375t0.875-0.125 1 0 0.875 0.125 0.375 0.375-0.375 0.375-0.875 0.125-1 0-0.875-0.125-0.375-0.375" fill="#666" fill-opacity=".65882"/>
  <path d="m5.875 3.625-0.125-0.375 0.1875 0.5625-0.0625-0.1875q-0.0625-0.1875-0.15625-0.34375l-0.09375-0.15625 0.09375 0.15625 0.59375-0.59375-0.125-0.125 0.125 0.125q0.125 0.125 0.3125 0.1875l0.1875 0.0625-0.5625-0.1875 0.75 0.25 0.25 0.75-0.1875-0.5625 0.0625 0.1875q0.0625 0.1875 0.1875 0.3125l0.125 0.125-0.125-0.125-0.625 0.625 0.125 0.125-0.125-0.125q-0.125-0.125-0.3125-0.1875l-0.1875-0.0625 0.5625 0.1875-0.75-0.25-0.125-0.375" fill="#8d8d8d" fill-opacity=".55294"/>
  <path d="m7.125 3.375-0.125-0.375h1v1l-0.375-0.125q-0.375-0.125-0.5-0.5" fill="#b9b9b9" fill-opacity=".94902"/>
  <path d="m8 3.5v-0.5h1v1h-1v-0.5" fill="#bfbfbf" fill-opacity=".98824"/>
  <path d="m9 3.5v-0.5h1v1h-1v-0.5" fill="#a2a2a2" fill-opacity=".86667"/>
  <path d="m10 3.5v-0.5h1l0.25 0.75-0.1875-0.5625 0.0625 0.1875q0.0625 0.1875 0.15625 0.34375l0.09375 0.15625-0.09375-0.15625-0.59375 0.59375 0.125 0.125-0.125-0.125q-0.125-0.125-0.3125-0.1875l-0.1875-0.0625 0.5625 0.1875-0.75-0.25v-0.5" fill="#8d8d8d" fill-opacity=".47451"/>
  <path d="m5.875 4.375 0.125-0.375 0.375 0.125q0.375 0.125 0.5 0.5l0.125 0.375-0.75 0.25 0.5625-0.1875-0.1875 0.0625q-0.1875 0.0625-0.28125 0.15625l-0.09375 0.09375 0.09375-0.09375-0.65625-0.59375-0.125 0.125 0.125-0.125q0.125-0.125 0.1875-0.3125l0.0625-0.1875-0.1875 0.5625 0.125-0.375" fill="#888" fill-opacity=".27843"/>
  <path d="m6.875 4.625-0.125-0.375 0.1875 0.5625-0.0625-0.1875q-0.0625-0.1875-0.1875-0.3125l-0.125-0.125 0.125 0.125 0.625-0.625-0.125-0.125 0.125 0.125q0.125 0.125 0.3125 0.1875l0.1875 0.0625-0.5625-0.1875 0.75 0.25v1h-1l-0.125-0.375" fill="#a3a3a3" fill-opacity=".87843"/>
  <path d="m8 4.5v-0.5h1v1h-1v-0.5" fill="#b8b8b8"/>
  <path d="m9 4.5v-0.5h1v1h-1v-0.5" fill="#bababa" fill-opacity=".98824"/>
  <path d="m10 4.5v-0.5l0.375 0.125q0.375 0.125 0.5 0.5l0.125 0.375h-1v-0.5" fill="#939393" fill-opacity=".82745"/>
  <path d="m10.875 4.625-0.125-0.375 0.1875 0.5625-0.0625-0.1875q-0.0625-0.1875-0.1875-0.3125l-0.125-0.125 0.125 0.125 0.59375-0.59375-0.09375-0.15625 0.09375 0.15625q0.09375 0.15625 0.21875 0.28125l0.125 0.125-0.375-0.375 0.25 0.25q0.25 0.25 0.375 0.625l0.125 0.375h-1l-0.125-0.375" fill="#878787" fill-opacity=".20784"/>
  <path d="m1.25 5.5q0-0.25 0.375-0.375t0.875-0.125 1 0 1 0 0.875-0.125l0.375-0.125-0.5625 0.1875 0.1875-0.0625q0.1875-0.0625 0.3125-0.1875l0.125-0.125-0.125 0.125 0.65625 0.59375 0.09375-0.09375-0.09375 0.09375q-0.09375 0.09375-0.09375 0.21875v0.125-0.375 0.5-0.375 0.125q0 0.125 0.09375 0.21875l0.09375 0.09375-0.09375-0.09375-0.6875 0.5625 0.09375 0.09375-0.09375-0.09375q-0.09375-0.09375-0.28125-0.15625l-0.1875-0.0625 0.5625 0.1875-0.375-0.125q-0.375-0.125-0.875-0.125t-1 0-1 0-0.875-0.125-0.375-0.375" fill="#666" fill-opacity=".65882"/>
  <path d="m6.25 5.5q0-0.25 0.375-0.375l0.375-0.125v1l-0.375-0.125q-0.375-0.125-0.375-0.375" fill="#868686" fill-opacity=".15686"/>
  <path d="m7 5.5v-0.5h1v1h-1v-0.5" fill="#939393" fill-opacity=".84314"/>
  <path d="m8 5.5v-0.5h1v1h-1v-0.5" fill="#b6b6b6"/>
  <path d="m9 5.5v-0.5h1v1h-1v-0.5" fill="#b0b0b0"/>
  <path d="m10 5.5v-0.5h1v1h-1v-0.5" fill="#ababab" fill-opacity=".92549"/>
  <path d="m11 5.5v-0.5h1v1h-1v-0.5" fill="#828282" fill-opacity=".55294"/>
  <path d="m5.75 6.5v-0.25 0.375-0.125q0-0.125-0.09375-0.21875l-0.09375-0.09375 0.09375 0.09375 0.6875-0.5625-0.09375-0.09375 0.09375 0.09375q0.09375 0.09375 0.28125 0.15625l0.1875 0.0625-0.5625-0.1875 0.75 0.25v1l-0.75 0.25 0.5625-0.1875-0.1875 0.0625q-0.1875 0.0625-0.3125 0.1875l-0.125 0.125 0.125-0.125-0.65625-0.59375-0.09375 0.09375 0.09375-0.09375q0.09375-0.09375 0.09375-0.21875v-0.125 0.375-0.25" fill="#808080" fill-opacity=".070588"/>
  <path d="m7 6.5v-0.5h1l0.25 0.75-0.1875-0.5625 0.0625 0.1875q0.0625 0.1875 0.1875 0.3125l0.125 0.125-0.125-0.125-0.625 0.625 0.125 0.125-0.125-0.125q-0.125-0.125-0.3125-0.1875l-0.1875-0.0625 0.5625 0.1875-0.75-0.25v-0.5" fill="#858585" fill-opacity=".81961"/>
  <path d="m8.125 6.375-0.125-0.375h1v1l-0.375-0.125q-0.375-0.125-0.5-0.5" fill="#b4b4b4"/>
  <path d="m9 6.5v-0.5h1v2h-1v-1.5" fill="#aaa"/>
  <path d="m10 6.5v-0.5h1v1h-1v-0.5" fill="#b2b2b2" fill-opacity=".97647"/>
  <path d="m11 6.5v-0.5h1v1h-1v-0.5" fill="#7d7d7d" fill-opacity=".71373"/>
  <path d="m1.25 7.5q0-0.25 0.375-0.375t0.875-0.125 1 0 1 0 0.875-0.125l0.375-0.125-0.5625 0.1875 0.1875-0.0625q0.1875-0.0625 0.28125-0.15625l0.09375-0.09375-0.09375 0.09375 0.65625 0.59375 0.125-0.125-0.125 0.125q-0.125 0.125-0.1875 0.3125l-0.0625 0.1875 0.1875-0.5625-0.25 0.75h-0.5q-0.5 0-1 0t-1 0-1 0-0.875-0.125-0.375-0.375" fill="#666" fill-opacity=".65882"/>
  <path d="m6.125 7.625q0.125-0.375 0.5-0.5l0.375-0.125 0.25 0.75-0.1875-0.5625 0.0625 0.1875q0.0625 0.1875 0.1875 0.3125l0.125 0.125-0.125-0.125-0.625 0.625 0.125 0.125-0.125-0.125q-0.125-0.125-0.3125-0.1875l-0.1875-0.0625 0.5625 0.1875-0.75-0.25 0.125-0.375" fill="#808080" fill-opacity=".015686"/>
  <path d="M 7.125,7.375 7,7 7.375,7.125 q 0.375,0.125 0.5,0.5 L 8,8 7.625,7.875 Q 7.25,7.75 7.125,7.375" fill="#797979" fill-opacity=".80784"/>
  <path d="m7.875 7.625-0.125-0.375 0.1875 0.5625-0.0625-0.1875q-0.0625-0.1875-0.1875-0.3125l-0.125-0.125 0.125 0.125 0.625-0.625-0.125-0.125 0.125 0.125q0.125 0.125 0.3125 0.1875l0.1875 0.0625-0.5625-0.1875 0.75 0.25v1h-1l-0.125-0.375" fill="#b5b5b5"/>
  <path d="m10 7.5v-0.5h1l-0.125 0.375q-0.125 0.375-0.5 0.5l-0.375 0.125v-0.5" fill="#b4b4b4"/>
  <path d="m10.875 7.375 0.125-0.375h1v1l-0.75 0.25 0.5625-0.1875-0.1875 0.0625q-0.1875 0.0625-0.34375 0.15625l-0.15625 0.09375 0.15625-0.09375-0.59375-0.59375-0.125 0.125 0.125-0.125q0.125-0.125 0.1875-0.3125l0.0625-0.1875-0.1875 0.5625 0.125-0.375" fill="#797979" fill-opacity=".79608"/>
  <path d="m6.875 8.625-0.125-0.375 0.1875 0.5625-0.0625-0.1875q-0.0625-0.1875-0.1875-0.3125l-0.125-0.125 0.125 0.125 0.625-0.625-0.125-0.125 0.125 0.125q0.125 0.125 0.3125 0.1875l0.1875 0.0625-0.5625-0.1875 0.75 0.25 0.25 0.75-0.1875-0.5625 0.0625 0.1875q0.0625 0.1875 0.1875 0.3125l0.125 0.125-0.125-0.125-0.59375 0.59375 0.15625 0.09375-0.15625-0.09375q-0.15625-0.09375-0.34375-0.15625l-0.1875-0.0625 0.5625 0.1875-0.75-0.25-0.125-0.375" fill="#717171" fill-opacity=".8"/>
  <g>
   <path d="m8.125 8.375-0.125-0.375h1v1l-0.375-0.125q-0.375-0.125-0.5-0.5" fill="#b0b0b0"/>
   <path d="m9 8.5v-0.5h1v1h-1v-0.5" fill="#9b9b9b"/>
   <path d="m10 8.5v-0.5l0.75-0.25-0.5625 0.1875 0.1875-0.0625q0.1875-0.0625 0.3125-0.1875l0.125-0.125-0.125 0.125 0.59375 0.59375 0.15625-0.09375-0.15625 0.09375q-0.15625 0.09375-0.28125 0.21875l-0.125 0.125 0.375-0.375-0.25 0.25q-0.25 0.25-0.625 0.375l-0.375 0.125v-0.5" fill="#a1a1a1"/>
  </g>
  <path d="m11 8.5q0.25-0.25 0.625-0.375l0.375-0.125v1l-0.75 0.25 0.5625-0.1875-0.1875 0.0625q-0.1875 0.0625-0.34375 0.15625l-0.15625 0.09375 0.15625-0.09375-0.5625-0.5625-0.15625 0.09375 0.15625-0.09375q0.15625-0.09375 0.28125-0.21875l0.125-0.125-0.375 0.375 0.25-0.25" fill="#717171" fill-opacity=".8"/>
  <path d="m6.875 9.375 0.125-0.375 0.375 0.125q0.375 0.125 0.625 0.375l0.25 0.25-0.375-0.375 0.125 0.125q0.125 0.125 0.28125 0.21875l0.15625 0.09375-0.15625-0.09375-0.59375 0.59375 0.0625 0.0625-0.0625-0.0625q-0.0625-0.0625-0.1875-0.0625h-0.125 0.375-0.25q-0.25 0-0.53125-0.28125l-0.28125-0.28125-0.125 0.125 0.125-0.125q0.125-0.125 0.1875-0.3125l0.0625-0.1875-0.1875 0.5625 0.125-0.375" fill="#6c6c6c" fill-opacity=".8"/>
  <g>
   <path d="m8 9.5-0.25-0.25 0.375 0.375-0.125-0.125q-0.125-0.125-0.28125-0.21875l-0.15625-0.09375 0.15625 0.09375 0.59375-0.59375-0.125-0.125 0.125 0.125q0.125 0.125 0.3125 0.1875l0.1875 0.0625-0.5625-0.1875 0.75 0.25v1l-0.375-0.125q-0.375-0.125-0.625-0.375" fill="#9a9a9a"/>
   <path d="m9 9.5v-0.5h1v1h-1v-0.5" fill="#888"/>
   <path d="m10 9.5v-0.5l0.75-0.25-0.5625 0.1875 0.1875-0.0625q0.1875-0.0625 0.34375-0.15625l0.15625-0.09375-0.15625 0.09375 0.5625 0.5625 0.15625-0.09375-0.15625 0.09375q-0.15625 0.09375-0.28125 0.21875l-0.125 0.125 0.375-0.375-0.25 0.25q-0.25 0.25-0.625 0.375l-0.375 0.125v-0.5" fill="#989898"/>
  </g>
  <path d="m11 9.5q0.25-0.25 0.625-0.375l0.375-0.125 0.25 0.75-0.1875-0.5625 0.0625 0.1875q0.0625 0.1875 0.1875 0.3125l0.125 0.125-0.125-0.125-0.28125 0.28125q-0.28125 0.28125-0.53125 0.28125h-0.25 0.375-0.125q-0.125 0-0.21875 0.09375l-0.09375 0.09375 0.09374-0.09374-0.28124-0.31251-0.28125-0.3125-0.15625 0.09375 0.15625-0.09375q0.15625-0.09375 0.28125-0.21875l0.125-0.125-0.375 0.375 0.25-0.25" fill="#6c6c6c" fill-opacity=".8"/>
  <path d="m4.125 10.625q0.125-0.375 0.5-0.5l0.375-0.125v1h-1l0.125-0.375" fill="#646464" fill-opacity=".6"/>
  <path d="m5 10.5v-0.5h0.5q0.5 0 0.875-0.125l0.375-0.125-0.5625 0.1875 0.1875-0.0625q0.1875-0.0625 0.3125-0.1875l0.125-0.125-0.125 0.125 0.28125 0.28125q0.28125 0.28125 0.53125 0.28125t0.25 0.25-0.25 0.25-0.5 0.28125l-0.25 0.28125 0.125 0.0625-0.125-0.0625q-0.125-0.0625-0.25-0.0625h-0.125 0.375-0.5 0.375-0.125q-0.125 0-0.1875 0.0625l-0.0625 0.0625 0.0625-0.0625-0.28125-0.28125q-0.28125-0.28125-0.65625-0.15625l-0.375 0.125v-0.5" fill="#656565" fill-opacity=".8"/>
  <g>
   <path d="m7.75 10.5v-0.25 0.375-0.125q0-0.125-0.0625-0.1875l-0.0625-0.0625 0.0625 0.0625 0.59375-0.59375-0.15625-0.09375 0.15625 0.09375q0.15625 0.09375 0.34375 0.15625l0.1875 0.0625-0.5625-0.1875 0.75 0.25v1l-0.75 0.25 0.5625-0.1875-0.1875 0.0625q-0.1875 0.0625-0.3125 0.1875l-0.125 0.125 0.125-0.125-0.625-0.625-0.0625 0.0625 0.0625-0.0625q0.0625-0.0625 0.0625-0.1875v-0.125 0.375-0.25" fill="#979797"/>
   <path d="m9 10.5v-0.5h1v1h-1v-0.5" fill="#878787"/>
   <path d="m10 10.5v-0.5l0.75-0.25-0.5625 0.1875 0.1875-0.0625q0.1875-0.0625 0.34375-0.15625l0.15625-0.09375-0.15625 0.09375 0.5625 0.625 0.09375-0.09375-0.09375 0.09375q-0.09375 0.09375-0.15625 0.28125l-0.0625 0.1875 0.1875-0.5625-0.25 0.75h-1v-0.5" fill="#959595"/>
  </g>
  <path d="m11.125 10.625q0.125-0.375 0.375-0.375t0.53125-0.28125l0.28125-0.28125-0.125-0.125 0.125 0.125q0.125 0.125 0.3125 0.1875l0.1875 0.0625-0.5625-0.1875 0.375 0.125q0.375 0.125 0.875 0.125h0.5v1l-0.375-0.125q-0.375-0.125-0.65625 0.15625l-0.28125 0.28125 0.0625 0.0625-0.0625-0.0625q-0.0625-0.0625-0.1875-0.0625h-0.125 0.375-0.5 0.375-0.125q-0.125 0-0.25 0.0625l-0.125 0.0625 0.125-0.0625-0.25-0.28125q-0.25-0.28125-0.625-0.15625l-0.375 0.125 0.125-0.375" fill="#656565" fill-opacity=".8"/>
  <path d="m14 10.5v-0.5l0.375 0.125q0.375 0.125 0.5 0.5l0.125 0.375h-1v-0.5" fill="#646464" fill-opacity=".6"/>
  <path d="m4.125 11.375-0.125-0.375h1l0.25 0.75-0.1875-0.5625 0.0625 0.1875q0.0625 0.1875 0.15625 0.34375l0.09375 0.15625-0.09375-0.15625-0.53125 0.53125-0.25-0.25q-0.25-0.25-0.375-0.625m0.4375 0.6875 0.3125 0.3125-0.125-0.125q-0.125-0.125-0.25-0.25l-0.125-0.125 0.1875 0.1875" fill="#606060" fill-opacity=".28235"/>
  <path d="m5.125 11.375-0.125-0.375 0.375-0.125q0.375-0.125 0.65625 0.15625l0.28125 0.28125 0.0625-0.0625-0.0625 0.0625q-0.0625 0.0625-0.0625 0.1875v0.125-0.375 0.5-0.375 0.125q0 0.125 0.0625 0.25l0.0625 0.125-0.0625-0.125-0.5625 0.5-0.25-0.25q-0.25-0.25-0.375-0.625m0.4375 0.6875 0.3125 0.3125-0.125-0.125q-0.125-0.125-0.25-0.25l-0.125-0.125 0.1875 0.1875" fill="#5f5f5f" fill-opacity=".8"/>
  <g>
   <path d="m6.25 11.5q0-0.25 0.25-0.25t0.5 0.25l0.25 0.25-0.375-0.375 0.125 0.125q0.125 0.125 0.28125 0.21875l0.15625 0.09375-0.15625-0.09375-0.53125 0.53125-0.25-0.25q-0.25-0.25-0.25-0.5m0.3125 0.5625 0.3125 0.3125-0.125-0.125q-0.125-0.125-0.25-0.25l-0.125-0.125 0.1875 0.1875" fill="#a3a3a3"/>
   <path d="m7 11.5-0.25-0.25 0.375 0.375-0.125-0.125q-0.125-0.125-0.25-0.1875l-0.125-0.0625 0.125 0.0625 0.25-0.28125q0.25-0.28125 0.5-0.28125h0.25-0.375 0.125q0.125 0 0.1875-0.0625l0.0625-0.0625-0.0625 0.0625 0.625 0.625 0.125-0.125-0.125 0.125q-0.125 0.125-0.1875 0.3125l-0.0625 0.1875 0.1875-0.5625-0.25 0.75-0.375-0.125q-0.375-0.125-0.625-0.375" fill="#939393"/>
   <path d="m8.125 11.625q0.125-0.375 0.5-0.5l0.375-0.125v1h-1l0.125-0.375" fill="#8b8b8b"/>
   <path d="m9 11.5v-0.5h1v1h-1v-0.5" fill="#848484"/>
   <path d="m10 11.5v-0.5h1v1h-1v-0.5" fill="#8a8a8a"/>
   <path d="m11 11.5v-0.5l0.375-0.125q0.375-0.125 0.625 0.15625l0.25 0.28125 0.125-0.0625-0.125 0.0625q-0.125 0.0625-0.25 0.1875l-0.125 0.125 0.375-0.375-0.25 0.25q-0.25 0.25-0.625 0.375l-0.375 0.125v-0.5" fill="#909090"/>
   <path d="m12 11.5q0.25-0.25 0.5-0.25t0.25 0.25-0.25 0.5l-0.25 0.25-0.53125-0.53125-0.15626 0.09374 0.15625-0.09375q0.15626-0.09374 0.28126-0.21874l0.125-0.125-0.375 0.375 0.25-0.25m0.1875 0.8125 0.4375-0.4375-0.125 0.125q-0.125 0.125-0.25 0.25l-0.125 0.125 0.0625-0.0625" fill="#989898"/>
  </g>
  <path d="m12.75 11.5v-0.25 0.375-0.125q0-0.125-0.0625-0.1875l-0.0625-0.0625 0.0625 0.0625 0.28125-0.28125q0.28125-0.28125 0.65625-0.15625l0.375 0.125-0.125 0.375q-0.125 0.375-0.375 0.625l-0.25 0.25-0.5625-0.5-0.0625 0.125 0.0625-0.125q0.0625-0.125 0.0625-0.25v-0.125 0.375-0.25m0.4375 0.8125 0.4375-0.4375-0.125 0.125q-0.125 0.125-0.25 0.25l-0.125 0.125 0.0625-0.0625" fill="#5f5f5f" fill-opacity=".8"/>
  <path d="m13.875 11.375 0.125-0.375h1l-0.125 0.375q-0.125 0.375-0.375 0.625l-0.25 0.25-0.53125-0.53125-0.09375 0.15625 0.09375-0.15625q0.09375-0.15625 0.15625-0.34375l0.0625-0.1875-0.1875 0.5625 0.125-0.375m0.3125 0.9375 0.4375-0.4375-0.125 0.125q-0.125 0.125-0.25 0.25l-0.125 0.125 0.0625-0.0625" fill="#606060" fill-opacity=".28235"/>
  <path d="m5 12.5-0.25-0.25 0.53125-0.53125-0.09375-0.15625 0.09375 0.15625q0.09375 0.15625 0.21875 0.28125l0.125 0.125-0.375-0.375 0.25 0.25q0.25 0.25 0.5 0.5l0.25 0.25-0.5 0.5-0.25-0.25q-0.25-0.25-0.5-0.5m0.5625 0.5625 0.3125 0.3125-0.125-0.125q-0.125-0.125-0.25-0.25l-0.125-0.125 0.1875 0.1875m0.75-0.25-0.4375-0.4375 0.125 0.125q0.125 0.125 0.25 0.25l0.125 0.125-0.0625-0.0625m-1.625-0.625 0.4375 0.4375-0.125-0.125q-0.125-0.125-0.25-0.25l-0.125-0.125 0.0625 0.0625" fill="#5c5c5c" fill-opacity=".28235"/>
  <path d="m6 12.5-0.25-0.25 0.5625-0.5-0.0625-0.125 0.0625 0.125q0.0625 0.125 0.1875 0.25l0.125 0.125-0.375-0.375 0.25 0.25q0.25 0.25 0.5 0.5l0.25 0.25-0.5 0.5-0.25-0.25q-0.25-0.25-0.5-0.5m0.5625 0.5625 0.3125 0.3125-0.125-0.125q-0.125-0.125-0.25-0.25l-0.125-0.125 0.1875 0.1875m0.75-0.25-0.4375-0.4375 0.125 0.125q0.125 0.125 0.25 0.25l0.125 0.125-0.0625-0.0625m-1.625-0.625 0.4375 0.4375-0.125-0.125q-0.125-0.125-0.25-0.25l-0.125-0.125 0.0625 0.0625" fill="#5a5a5a" fill-opacity=".8"/>
  <g>
   <path d="m7 12.5-0.25-0.25 0.53125-0.53125-0.15625-0.09375 0.15625 0.09375q0.15625 0.09375 0.34375 0.15625l0.1875 0.0625-0.5625-0.1875 0.75 0.25 0.25 0.75-0.1875-0.5625 0.0625 0.1875q0.0625 0.1875 0.1875 0.3125l0.125 0.125-0.125-0.125-0.5625 0.5625-0.25-0.25q-0.25-0.25-0.5-0.5m0.5625 0.5625 0.3125 0.3125-0.125-0.125q-0.125-0.125-0.25-0.25l-0.125-0.125 0.1875 0.1875m-0.875-0.875 0.4375 0.4375-0.125-0.125q-0.125-0.125-0.25-0.25l-0.125-0.125 0.0625 0.0625" fill="#9a9a9a"/>
   <path d="m8.125 12.375-0.125-0.375h3l-0.125 0.375q-0.125 0.375-0.5 0.5l-0.375 0.125h-1l-0.375-0.125q-0.375-0.125-0.5-0.5" fill="#828282"/>
   <path d="m10.875 12.375 0.125-0.375 0.75-0.25-0.5625 0.1875 0.1875-0.0625q0.1875-0.0625 0.34375-0.15625l0.15625-0.09375-0.15626 0.09374 0.53126 0.53126-0.25 0.25q-0.25 0.25-0.5 0.5l-0.25 0.25-0.5625-0.5625-0.125 0.125 0.125-0.125q0.125-0.125 0.1875-0.3125l0.0625-0.1875-0.1875 0.5625 0.125-0.375m0.3125 0.9375 0.4375-0.4375-0.125 0.125q-0.125 0.125-0.25 0.25l-0.125 0.125 0.0625-0.0625m0.875-0.875 0.3125-0.3125-0.125 0.125q-0.125 0.125-0.25 0.25l-0.125 0.125 0.1875-0.1875" fill="#939393"/>
  </g>
  <path d="m12 12.5q0.25-0.25 0.5-0.5l0.25-0.25-0.375 0.375 0.125-0.125q0.125-0.125 0.1875-0.25l0.0625-0.125-0.0625 0.125 0.5625 0.5-0.25 0.25q-0.25 0.25-0.5 0.5l-0.25 0.25-0.5-0.5 0.25-0.25m-0.0625 0.0625-0.3125 0.3125 0.125-0.125q0.125-0.125 0.25-0.25l0.125-0.125-0.1875 0.1875m0.25 0.75 0.4375-0.4375-0.125 0.125q-0.125 0.125-0.25 0.25l-0.125 0.125 0.0625-0.0625m0.875-0.875 0.3125-0.3125-0.125 0.125q-0.125 0.125-0.25 0.25l-0.125 0.125 0.1875-0.1875" fill="#5a5a5a" fill-opacity=".8"/>
  <path d="m13 12.5q0.25-0.25 0.5-0.5l0.25-0.25-0.375 0.375 0.125-0.125q0.125-0.125 0.21875-0.28125l0.09375-0.15625-0.09374 0.15626 0.53124 0.53124-0.25 0.25q-0.25 0.25-0.5 0.5l-0.25 0.25-0.5-0.5 0.25-0.25m-0.0625 0.0625-0.3125 0.3125 0.125-0.125q0.125-0.125 0.25-0.25l0.125-0.125-0.1875 0.1875m0.25 0.75 0.4375-0.4375-0.125 0.125q-0.125 0.125-0.25 0.25l-0.125 0.125 0.0625-0.0625m0.875-0.875 0.3125-0.3125-0.125 0.125q-0.125 0.125-0.25 0.25l-0.125 0.125 0.1875-0.1875" fill="#5c5c5c" fill-opacity=".28235"/>
  <path d="m6 13.5-0.25-0.25 0.5-0.5 0.25 0.25q0.25 0.25 0.5 0.5l0.25 0.25-0.5 0.5-0.25-0.25q-0.25-0.25-0.5-0.5m0.5625 0.5625 0.3125 0.3125-0.125-0.125q-0.125-0.125-0.25-0.25l-0.125-0.125 0.1875 0.1875m0.75-0.25-0.4375-0.4375 0.125 0.125q0.125 0.125 0.25 0.25l0.125 0.125-0.0625-0.0625m-0.875-0.875-0.3125-0.3125 0.125 0.125q0.125 0.125 0.25 0.25l0.125 0.125-0.1875-0.1875m-0.75 0.25 0.4375 0.4375-0.125-0.125q-0.125-0.125-0.25-0.25l-0.125-0.125 0.0625 0.0625" fill="#555" fill-opacity=".28235"/>
  <path d="m7 13.5-0.25-0.25 0.5-0.5 0.25 0.25q0.25 0.25 0.5 0.5l0.25 0.25-0.5 0.5-0.25-0.25q-0.25-0.25-0.5-0.5m0.5625 0.5625 0.3125 0.3125-0.125-0.125q-0.125-0.125-0.25-0.25l-0.125-0.125 0.1875 0.1875m0.75-0.25-0.4375-0.4375 0.125 0.125q0.125 0.125 0.25 0.25l0.125 0.125-0.0625-0.0625m-0.875-0.875-0.3125-0.3125 0.125 0.125q0.125 0.125 0.25 0.25l0.125 0.125-0.1875-0.1875m-0.75 0.25 0.4375 0.4375-0.125-0.125q-0.125-0.125-0.25-0.25l-0.125-0.125 0.0625 0.0625" fill="#555" fill-opacity=".8"/>
  <g>
   <path d="m8 13.5-0.25-0.25 0.5625-0.5625-0.125-0.125 0.125 0.125q0.125 0.125 0.3125 0.1875l0.1875 0.0625-0.5625-0.1875 0.75 0.25 0.25 0.75-0.1875-0.5625 0.0625 0.1875q0.0625 0.1875 0.15625 0.28125l0.09375 0.09375-0.09375-0.09375-0.53125 0.59375-0.25-0.25q-0.25-0.25-0.5-0.5m0.5625 0.5625 0.3125 0.3125-0.125-0.125q-0.125-0.125-0.25-0.25l-0.125-0.125 0.1875 0.1875m-0.875-0.875 0.4375 0.4375-0.125-0.125q-0.125-0.125-0.25-0.25l-0.125-0.125 0.0625 0.0625" fill="#929292"/>
   <path d="m9.125 13.375-0.125-0.375h1l-0.125 0.375q-0.125 0.375-0.375 0.375t-0.375-0.375" fill="#808080"/>
   <path d="m9.875 13.375 0.125-0.375 0.75-0.25-0.5625 0.1875 0.1875-0.0625q0.1875-0.0625 0.3125-0.1875l0.125-0.125-0.125 0.125 0.5625 0.5625-0.25 0.25q-0.25 0.25-0.5 0.5l-0.25 0.25-0.53125-0.59375-0.09375 0.09375 0.09375-0.09375q0.09375-0.09375 0.15625-0.28125l0.0625-0.1875-0.1875 0.5625 0.125-0.375m0.3125 0.9375 0.4375-0.4375-0.125 0.125q-0.125 0.125-0.25 0.25l-0.125 0.125 0.0625-0.0625m0.875-0.875 0.3125-0.3125-0.125 0.125q-0.125 0.125-0.25 0.25l-0.125 0.125 0.1875-0.1875" fill="#8f8f8f"/>
  </g>
  <path d="m11 13.5q0.25-0.25 0.5-0.5l0.25-0.25 0.5 0.5-0.25 0.25q-0.25 0.25-0.5 0.5l-0.25 0.25-0.5-0.5 0.25-0.25m-0.0625 0.0625-0.3125 0.3125 0.125-0.125q0.125-0.125 0.25-0.25l0.125-0.125-0.1875 0.1875m0.25 0.75 0.4375-0.4375-0.125 0.125q-0.125 0.125-0.25 0.25l-0.125 0.125 0.0625-0.0625m0.875-0.875 0.3125-0.3125-0.125 0.125q-0.125 0.125-0.25 0.25l-0.125 0.125 0.1875-0.1875m-0.25-0.75-0.4375 0.4375 0.125-0.125q0.125-0.125 0.25-0.25l0.125-0.125-0.0625 0.0625" fill="#555" fill-opacity=".8"/>
  <path d="m12 13.5q0.25-0.25 0.5-0.5l0.25-0.25 0.5 0.5-0.25 0.25q-0.25 0.25-0.5 0.5l-0.25 0.25-0.5-0.5 0.25-0.25m-0.0625 0.0625-0.3125 0.3125 0.125-0.125q0.125-0.125 0.25-0.25l0.125-0.125-0.1875 0.1875m0.25 0.75 0.4375-0.4375-0.125 0.125q-0.125 0.125-0.25 0.25l-0.125 0.125 0.0625-0.0625m0.875-0.875 0.3125-0.3125-0.125 0.125q-0.125 0.125-0.25 0.25l-0.125 0.125 0.1875-0.1875m-0.25-0.75-0.4375 0.4375 0.125-0.125q0.125-0.125 0.25-0.25l0.125-0.125-0.0625 0.0625" fill="#555" fill-opacity=".28235"/>
  <g>
   <path d="m4 14.5q0-0.5 0.5-0.5h0.5v1h-1v-0.5" fill-opacity=".0078431"/>
   <path d="m5 14.5v-0.5l0.375 0.125q0.375 0.125 0.5 0.5l0.125 0.375h-1v-0.5" fill-opacity=".035294"/>
   <path d="m5.875 14.625-0.125-0.375 0.1875 0.5625-0.0625-0.1875q-0.0625-0.1875-0.1875-0.3125l-0.125-0.125 0.125 0.125 0.5625-0.5625 0.25 0.25q0.25 0.25 0.5 0.5l0.25 0.25-0.5625 0.5625 0.125 0.125-0.125-0.125q-0.125-0.125-0.3125-0.1875l-0.1875-0.0625 0.5625 0.1875-0.75-0.25-0.125-0.375m1.4375 0.1875-0.4375-0.4375 0.125 0.125q0.125 0.125 0.25 0.25l0.125 0.125-0.0625-0.0625m-0.875-0.875-0.3125-0.3125 0.125 0.125q0.125 0.125 0.25 0.25l0.125 0.125-0.1875-0.1875" fill-opacity=".07451"/>
  </g>
  <path d="m7 14.5-0.25-0.25 0.5-0.5 0.25 0.25q0.25 0.25 0.5 0.5l0.25 0.25-0.53125 0.53125 0.09375 0.15625-0.09375-0.15625q-0.09375-0.15625-0.21875-0.28125l-0.125-0.125 0.375 0.375-0.25-0.25q-0.25-0.25-0.5-0.5m1.3125 0.3125-0.4375-0.4375 0.125 0.125q0.125 0.125 0.25 0.25l0.125 0.125-0.0625-0.0625m-0.875-0.875-0.3125-0.3125 0.125 0.125q0.125 0.125 0.25 0.25l0.125 0.125-0.1875-0.1875m-0.75 0.25 0.4375 0.4375-0.125-0.125q-0.125-0.125-0.25-0.25l-0.125-0.125 0.0625 0.0625" fill="#353535" fill-opacity=".35686"/>
  <path d="m8 14.5-0.25-0.25 0.5-0.5 0.25 0.25q0.25 0.25 0.5 0.5l0.25 0.25-0.375-0.375 0.125 0.125q0.125 0.125 0.25 0.1875l0.125 0.0625-0.125-0.0625-0.53125 0.59375 0.09375 0.15625-0.09375-0.15625q-0.09375-0.15625-0.21875-0.28125l-0.125-0.125 0.375 0.375-0.25-0.25q-0.25-0.25-0.5-0.5m0.4375-0.5625-0.3125-0.3125 0.125 0.125q0.125 0.125 0.25 0.25l0.125 0.125-0.1875-0.1875m-0.75 0.25 0.4375 0.4375-0.125-0.125q-0.125-0.125-0.25-0.25l-0.125-0.125 0.0625 0.0625" fill="#505050" fill-opacity=".8"/>
  <path d="m9 14.5-0.25-0.25 0.53125-0.59375-0.09375-0.09375 0.09375 0.09375q0.09375 0.09375 0.21875 0.09375h0.125-0.375 0.5-0.375 0.125q0.125 0 0.21875-0.09375l0.09375-0.09375-0.09375 0.09375 0.53125 0.59375-0.25 0.25q-0.25 0.25-0.5 0.25t-0.5-0.25m1.0625-0.0625 0.3125-0.3125-0.125 0.125q-0.125 0.125-0.25 0.25l-0.125 0.125 0.1875-0.1875m-1.375-0.25 0.4375 0.4375-0.125-0.125q-0.125-0.125-0.25-0.25l-0.125-0.125 0.0625 0.0625" fill="#8c8c8c"/>
  <path d="m10 14.5q0.25-0.25 0.5-0.5l0.25-0.25 0.5 0.5-0.25 0.25q-0.25 0.25-0.5 0.5l-0.25 0.25 0.375-0.375-0.125 0.125q-0.125 0.125-0.21875 0.28125l-0.09375 0.15625 0.09374-0.15626-0.53124-0.59374-0.125 0.0625 0.125-0.0625q0.125-0.0625 0.25-0.1875l0.125-0.125-0.375 0.375 0.25-0.25m1.0625-0.0625 0.3125-0.3125-0.125 0.125q-0.125 0.125-0.25 0.25l-0.125 0.125 0.1875-0.1875m-0.25-0.75-0.4375 0.4375 0.125-0.125q0.125-0.125 0.25-0.25l0.125-0.125-0.0625 0.0625" fill="#505050" fill-opacity=".8"/>
  <path d="m11 14.5q0.25-0.25 0.5-0.5l0.25-0.25 0.5 0.5-0.25 0.25q-0.25 0.25-0.5 0.5l-0.25 0.25 0.375-0.375-0.125 0.125q-0.125 0.125-0.21875 0.28125l-0.09375 0.15625 0.09374-0.15626-0.53124-0.53124 0.25-0.25m-0.0625 0.0625-0.3125 0.3125 0.125-0.125q0.125-0.125 0.25-0.25l0.125-0.125-0.1875 0.1875m1.125-0.125 0.3125-0.3125-0.125 0.125q-0.125 0.125-0.25 0.25l-0.125 0.125 0.1875-0.1875m-0.25-0.75-0.4375 0.4375 0.125-0.125q0.125-0.125 0.25-0.25l0.125-0.125-0.0625 0.0625" fill="#353535" fill-opacity=".35686"/>
  <g>
   <path d="m12 14.5q0.25-0.25 0.5-0.5l0.25-0.25 0.5625 0.5625 0.125-0.125-0.125 0.125q-0.125 0.125-0.1875 0.3125l-0.0625 0.1875 0.1875-0.5625-0.25 0.75-0.75 0.25 0.5625-0.1875-0.1875 0.0625q-0.1875 0.0625-0.3125 0.1875l-0.125 0.125 0.125-0.125-0.5625-0.5625 0.25-0.25m-0.0625 0.0625-0.3125 0.3125 0.125-0.125q0.125-0.125 0.25-0.25l0.125-0.125-0.1875 0.1875m0.875-0.875-0.4375 0.4375 0.125-0.125q0.125-0.125 0.25-0.25l0.125-0.125-0.0625 0.0625" fill-opacity=".078431"/>
   <path d="m13.125 14.625q0.125-0.375 0.5-0.5l0.375-0.125v1h-1l0.125-0.375" fill-opacity=".043137"/>
   <path d="m14 14.5v-0.5h0.5q0.5 0 0.5 0.5v0.5h-1v-0.5" fill-opacity=".011765"/>
   <path d="m4 15.5v-0.5h1v1h-1v-0.5" fill-opacity=".011765"/>
   <path d="m5 15.5v-0.5h1v1h-1v-0.5" fill-opacity=".070588"/>
   <path d="m6 15.5v-0.5l0.375 0.125q0.375 0.125 0.5 0.5l0.125 0.375h-1v-0.5" fill-opacity=".1451"/>
   <path d="m6.875 15.625-0.125-0.375 0.1875 0.5625-0.0625-0.1875q-0.0625-0.1875-0.1875-0.3125l-0.125-0.125 0.125 0.125 0.5625-0.5625 0.25 0.25q0.25 0.25 0.375 0.625l0.125 0.375h-1l-0.125-0.375m0.5625-0.6875-0.3125-0.3125 0.125 0.125q0.125 0.125 0.25 0.25l0.125 0.125-0.1875-0.1875" fill-opacity=".19608"/>
  </g>
  <path d="m7.875 15.625-0.125-0.375 0.1875 0.5625-0.0625-0.1875q-0.0625-0.1875-0.15625-0.34375l-0.09375-0.15625 0.09375 0.15625 0.53125-0.53125 0.25 0.25q0.25 0.25 0.375 0.625l0.125 0.375h-1l-0.125-0.375m0.5625-0.6875-0.3125-0.3125 0.125 0.125q0.125 0.125 0.25 0.25l0.125 0.125-0.1875-0.1875" fill="#2c2c2c" fill-opacity=".38431"/>
  <path d="m8.875 15.625-0.125-0.375 0.1875 0.5625-0.0625-0.1875q-0.0625-0.1875-0.15625-0.34375l-0.09375-0.15625 0.09375 0.15625 0.53125-0.59375-0.125-0.0625 0.125 0.0625q0.125 0.0625 0.25 0.0625h0.125-0.375 0.5-0.375 0.125q0.125 0 0.25-0.0625l0.125-0.0625-0.125 0.0625 0.53125 0.59375 0.04687-0.07813 0.04688-0.07812-0.09375 0.15625q-0.09375 0.15625-0.15625 0.34375l-0.0625 0.1875 0.1875-0.5625-0.25 0.75h-1l-0.125-0.375" fill="#4e4e4e" fill-opacity=".8"/>
  <path d="m10.125 15.625q0.125-0.375 0.375-0.625l0.25-0.25 0.53125 0.53125 0.04687-0.07813 0.04688-0.07812-0.09375 0.15625q-0.09375 0.15625-0.15625 0.34375l-0.0625 0.1875 0.1875-0.5625-0.25 0.75h-1l0.125-0.375m0.6875-0.9375-0.4375 0.4375 0.125-0.125q0.125-0.125 0.25-0.25l0.125-0.125-0.0625 0.0625" fill="#2c2c2c" fill-opacity=".38431"/>
  <g>
   <path d="m11.125 15.625q0.125-0.375 0.375-0.625l0.25-0.25 0.5625 0.5625 0.125-0.125-0.125 0.125q-0.125 0.125-0.1875 0.3125l-0.0625 0.1875 0.1875-0.5625-0.25 0.75h-1l0.125-0.375m0.6875-0.9375-0.4375 0.4375 0.125-0.125q0.125-0.125 0.25-0.25l0.125-0.125-0.0625 0.0625" fill-opacity=".2"/>
   <path d="m12.125 15.625q0.125-0.375 0.5-0.5l0.375-0.125v1h-1l0.125-0.375" fill-opacity=".15686"/>
   <path d="m13 15.5v-0.5h1v1h-1v-0.5" fill-opacity=".082353"/>
   <path d="m14 15.5v-0.5h1v1h-1v-0.5" fill-opacity=".019608"/>
  </g>
 </g>
</svg>
