<?xml version="1.0" encoding="UTF-8"?>
<!-- Created with Inkscape (http://www.inkscape.org/) -->
<svg width="256" height="256" version="1.1" viewBox="0 0 67.733 67.733" xmlns="http://www.w3.org/2000/svg" xmlns:cc="http://creativecommons.org/ns#" xmlns:dc="http://purl.org/dc/elements/1.1/" xmlns:rdf="http://www.w3.org/1999/02/22-rdf-syntax-ns#">
 <metadata>
  <rdf:RDF>
   <cc:Work rdf:about="">
    <dc:format>image/svg+xml</dc:format>
    <dc:type rdf:resource="http://purl.org/dc/dcmitype/StillImage"/>
    <dc:title/>
   </cc:Work>
  </rdf:RDF>
 </metadata>
 <g transform="translate(0 -229.27)">
  <g transform="matrix(4.1589 0 0 4.1589 .59531 229.86)">
   <g stroke-width=".24045">
    <path d="m0 0.5v-0.5h16v16h-16v-2h10.5q0.5 0 0.5-0.5v-1q0-0.5-0.5-0.5h-0.5v-5l0.125-0.375q0.125-0.375-0.15625-0.65625l-0.28125-0.28125-0.125 0.125 0.125-0.125q0.125-0.125 0.1875-0.3125l0.0625-0.1875-0.1875 0.5625 0.25-0.75v-2l-0.125-0.375q-0.125-0.375-0.5-0.5l-0.375-0.125h-2l-0.375 0.125q-0.375 0.125-0.5 0.5l-0.25 0.75q-0.125 0.375-0.5 0.5l-0.375 0.125h-1l-0.375 0.125q-0.375 0.125-0.5 0.5l-0.125 0.375h-0.5q-0.5 0-1 0h-1.5v-4.5m12.5 12.5q0.5 0 0.5-0.5v-0.5h0.5q0.5 0 0.5-0.5v-0.5h0.5q0.5 0 0.5-0.5v-2q0-0.5 0-1v-3q0-0.5-0.5-0.5h-0.5v-0.5q0-0.5-0.5-0.5h-1q-0.5 0-0.5 0.5v1.5h-0.5q-0.5 0-0.5 0.5v1q0 0.5 0.5 0.5h0.5v1h-0.5q-0.5 0-0.5 0.5v1q0 0.5 0.5 0.5h0.5v2.5q0 0.5 0.5 0.5" fill-opacity="0"/>
    <path d="M 6.125,2.625 Q 6.25,2.25 6.625,2.125 L 7,2 6.875,2.375 Q 6.75,2.75 6.375,2.875 L 6,3 6.125,2.625" fill="#404040" fill-opacity=".015686"/>
    <path d="m6.875 2.375 0.125-0.375h1l-0.125 0.375q-0.125 0.375-0.375 0.625l-0.25 0.25-0.5625-0.5625-0.125 0.125 0.125-0.125q0.125-0.125 0.1875-0.3125l0.0625-0.1875-0.1875 0.5625 0.125-0.375m0.3125 0.9375 0.4375-0.4375-0.125 0.125q-0.125 0.125-0.25 0.25l-0.125 0.125 0.0625-0.0625" fill="#565656" fill-opacity=".30196"/>
    <path d="m7.875 2.375 0.125-0.375h1l0.25 0.75-0.1875-0.5625 0.0625 0.1875q0.0625 0.1875 0.1875 0.3125l0.125 0.125-0.125-0.125-0.59375 0.65625 0.09375 0.09375-0.09375-0.09375q-0.09375-0.09375-0.21875-0.09375h-0.125 0.375-0.5 0.375-0.125q-0.125 0-0.25 0.0625l-0.125 0.0625 0.125-0.0625-0.53125-0.59375-0.09375 0.15625 0.09375-0.15625q0.09375-0.15625 0.15625-0.34375l0.0625-0.1875-0.1875 0.5625 0.125-0.375" fill="#555" fill-opacity=".4"/>
    <path d="M 9.125,2.375 9,2 9.375,2.125 q 0.375,0.125 0.5,0.5 L 10,3 9.625,2.875 Q 9.25,2.75 9.125,2.375" fill="#565656" fill-opacity=".30196"/>
    <path d="m5.875 3.375 0.125-0.375 0.75-0.25-0.5625 0.1875 0.1875-0.0625q0.1875-0.0625 0.3125-0.1875l0.125-0.125-0.125 0.125 0.5625 0.5625-0.25 0.25q-0.25 0.25-0.5 0.5l-0.25 0.25 0.375-0.375-0.125 0.125q-0.125 0.125-0.21875 0.28125l-0.09375 0.15625 0.09375-0.15625-0.59375-0.59375-0.125 0.125 0.125-0.125q0.125-0.125 0.1875-0.3125l0.0625-0.1875-0.1875 0.5625 0.125-0.375m1.1875 0.0625 0.3125-0.3125-0.125 0.125q-0.125 0.125-0.25 0.25l-0.125 0.125 0.1875-0.1875" fill="#515151" fill-opacity=".16078"/>
    <path d="m7 3.5q0.25-0.25 0.5-0.5l0.25-0.25-0.375 0.375 0.125-0.125q0.125-0.125 0.21875-0.28125l0.09375-0.15625-0.09375 0.15625 0.53125 0.59375 0.125-0.0625-0.125 0.0625q-0.125 0.0625-0.25 0.1875l-0.125 0.125 0.375-0.375-0.25 0.25q-0.25 0.25-0.5 0.5l-0.25 0.25-0.5-0.5 0.25-0.25m-0.0625 0.0625-0.3125 0.3125 0.125-0.125q0.125-0.125 0.25-0.25l0.125-0.125-0.1875 0.1875m0.25 0.75 0.4375-0.4375-0.125 0.125q-0.125 0.125-0.25 0.25l-0.125 0.125 0.0625-0.0625" fill="#757575" fill-opacity=".5451"/>
    <path d="m8 3.5q0.25-0.25 0.5-0.25t0.375 0.375l0.125 0.375-0.75 0.25 0.5625-0.1875-0.1875 0.0625q-0.1875 0.0625-0.3125 0.1875l-0.125 0.125 0.125-0.125-0.5625-0.5625 0.25-0.25m-0.0625 0.0625-0.3125 0.3125 0.125-0.125q0.125-0.125 0.25-0.25l0.125-0.125-0.1875 0.1875" fill="#ececec"/>
    <path d="m8.875 3.625-0.125-0.375 0.1875 0.5625-0.0625-0.1875q-0.0625-0.1875-0.15625-0.28125l-0.09375-0.09375 0.09375 0.09375 0.59375-0.65625-0.125-0.125 0.125 0.125q0.125 0.125 0.3125 0.1875l0.1875 0.0625-0.5625-0.1875 0.75 0.25v1h-1l-0.125-0.375" fill="#545454" fill-opacity=".40392"/>
    <path d="m12 3.5q0-0.5 0.5-0.5h0.5v1h-1v-0.5" fill-opacity=".16863"/>
    <path d="m13 3.5v-0.5h0.5q0.5 0 0.5 0.5v0.5h-1v-0.5" fill-opacity=".086275"/>
    <path d="m3.125 4.625q0.125-0.375 0.5-0.5l0.375-0.125v1h-1l0.125-0.375" fill="#555" fill-opacity=".023529"/>
    <path d="m4 4.5v-0.5h1l-0.125 0.375q-0.125 0.375-0.5 0.5l-0.375 0.125v-0.5" fill="#4a4a4a" fill-opacity=".094118"/>
    <path d="m4.875 4.375 0.125-0.375 0.75-0.25-0.5625 0.1875 0.1875-0.0625q0.1875-0.0625 0.3125-0.1875l0.125-0.125-0.125 0.125 0.59375 0.59375 0.09375-0.15625-0.09375 0.15625q-0.09375 0.15625-0.15625 0.34375l-0.0625 0.1875 0.1875-0.5625-0.25 0.75-0.75 0.25 0.5625-0.1875-0.1875 0.0625q-0.1875 0.0625-0.3125 0.1875l-0.125 0.125 0.125-0.125-0.625-0.625-0.125 0.125 0.125-0.125q0.125-0.125 0.1875-0.3125l0.0625-0.1875-0.1875 0.5625 0.125-0.375" fill="#4a4a4a" fill-opacity=".24314"/>
    <path d="m6.125 4.625q0.125-0.375 0.375-0.625l0.25-0.25 0.5 0.5-0.25 0.25q-0.25 0.25-0.625 0.375l-0.375 0.125 0.125-0.375m0.9375-0.1875 0.3125-0.3125-0.125 0.125q-0.125 0.125-0.25 0.25l-0.125 0.125 0.1875-0.1875m-0.25-0.75-0.4375 0.4375 0.125-0.125q0.125-0.125 0.25-0.25l0.125-0.125-0.0625 0.0625" fill="#666" fill-opacity=".47059"/>
    <path d="m7 4.5q0.25-0.25 0.5-0.5l0.25-0.25 0.5625 0.5625 0.125-0.125-0.125 0.125q-0.125 0.125-0.1875 0.3125l-0.0625 0.1875 0.1875-0.5625-0.25 0.75-0.75 0.25 0.5625-0.1875-0.1875 0.0625q-0.1875 0.0625-0.3125 0.1875l-0.125 0.125 0.125-0.125-0.59375-0.59375-0.15625 0.09375 0.15625-0.09375q0.15625-0.09375 0.28125-0.21875l0.125-0.125-0.375 0.375 0.25-0.25m0.8125-0.8125-0.4375 0.4375 0.125-0.125q0.125-0.125 0.25-0.25l0.125-0.125-0.0625 0.0625" fill="#bcbcbc" fill-opacity=".90196"/>
    <path d="m8.125 4.625q0.125-0.375 0.5-0.5l0.375-0.125v1h-1l0.125-0.375" fill="#e3e3e3"/>
    <path d="m9 4.5v-0.5h1v1h-1v-0.5" fill="#4c4c4c" fill-opacity=".42353"/>
   </g>
   <g stroke-width=".24045">
    <path d="m12 4.5v-0.5h1v1h-1v-0.5" fill-opacity=".062745"/>
    <path d="m13 4.5v-0.5h1v1h-1v-0.5" fill-opacity=".35686"/>
    <path d="m14 4.5v-0.5h0.5q0.5 0 0.5 0.5v0.5h-1v-0.5" fill-opacity=".07451"/>
    <path d="m0 5.5v-0.5h1l-0.125 0.375q-0.125 0.375-0.5 0.5l-0.375 0.125v-0.5" fill-opacity=".33725"/>
   </g>
   <g stroke-width=".24045">
    <path d="m0.875 5.375 0.125-0.375h0.5q0.5 0 1 0h0.5v1h-1l-0.75 0.25 0.5625-0.1875-0.1875 0.0625q-0.1875 0.0625-0.3125 0.1875l-0.125 0.125 0.125-0.125-0.625-0.625-0.125 0.125 0.125-0.125q0.125-0.125 0.1875-0.3125l0.0625-0.1875-0.1875 0.5625 0.125-0.375" fill="#010101" fill-opacity=".67059"/>
    <path d="m3 5.5v-0.5h1v1h-1v-0.5" fill="#3f3f3f" fill-opacity=".44706"/>
    <path d="m4 5.5v-0.5l0.75-0.25-0.5625 0.1875 0.1875-0.0625q0.1875-0.0625 0.3125-0.1875l0.125-0.125-0.125 0.125 0.625 0.625 0.125-0.125-0.125 0.125q-0.125 0.125-0.1875 0.3125l-0.0625 0.1875 0.1875-0.5625-0.25 0.75h-1v-0.5" fill="#6b6b6b" fill-opacity=".54902"/>
    <path d="m5.125 5.625q0.125-0.375 0.5-0.5l0.375-0.125-0.125 0.375q-0.125 0.375-0.5 0.5l-0.375 0.125 0.125-0.375m0.96875-0.65625-0.65625 0.21875 0.1875-0.0625q0.1875-0.0625 0.375-0.125l0.1875-0.0625-0.09375 0.03125" fill="#9a9a9a" fill-opacity=".71373"/>
    <path d="m5.875 5.375 0.125-0.375 0.75-0.25-0.5625 0.1875 0.1875-0.0625q0.1875-0.0625 0.34375-0.15625l0.15625-0.09375-0.15625 0.09375 0.59375 0.59375 0.125-0.125-0.125 0.125q-0.125 0.125-0.1875 0.3125l-0.0625 0.1875 0.1875-0.5625-0.25 0.75-0.75 0.25 0.5625-0.1875-0.1875 0.0625q-0.1875 0.0625-0.3125 0.1875l-0.125 0.125 0.125-0.125-0.625-0.625-0.125 0.125 0.125-0.125q0.125-0.125 0.1875-0.3125l0.0625-0.1875-0.1875 0.5625 0.125-0.375m0.40625-0.46875-0.46875 0.15625 0.1875-0.0625q0.1875-0.0625 0.375-0.125l0.1875-0.0625-0.28125 0.09375" fill="#cfcfcf" fill-opacity=".94902"/>
    <path d="m7.125 5.625q0.125-0.375 0.5-0.5l0.375-0.125v1h-1l0.125-0.375" fill="#b6b6b6"/>
    <path d="m8 5.5v-0.5h1v1h-1v-0.5" fill="#d2d2d2"/>
    <path d="m9 5.5v-0.5h1l-0.125 0.375q-0.125 0.375-0.5 0.5l-0.375 0.125v-0.5" fill="#3f3f3f" fill-opacity=".44706"/>
   </g>
   <g stroke-width=".24045">
    <path d="m11 5.5q0-0.5 0.5-0.5h0.5v1h-1v-0.5" fill-opacity=".21569"/>
    <path d="m12 5.5v-0.5h1v1h-1v-0.5" fill-opacity=".11765"/>
    <path d="m13 5.5v-0.5h1v1h-1v-0.5" fill-opacity=".14902"/>
    <path d="m14 5.5v-0.5h1v1h-1v-0.5" fill-opacity=".33333"/>
   </g>
   <path d="m0 6.5v-0.5l0.75-0.25-0.5625 0.1875 0.1875-0.0625q0.1875-0.0625 0.3125-0.1875l0.125-0.125-0.125 0.125 0.625 0.625 0.125-0.125-0.125 0.125q-0.125 0.125-0.1875 0.3125l-0.0625 0.1875 0.1875-0.5625-0.25 0.75h-1v-0.5" fill="#010101" fill-opacity=".68235" stroke-width=".24045"/>
   <path d="m1.125 6.625q0.125-0.375 0.5-0.5l0.375-0.125v1h-1l0.125-0.375" fill="#5f5f5f" fill-opacity=".91765" stroke-width=".24045"/>
   <g stroke-width=".24045">
    <path d="m2 6.5v-0.5h1l0.25 0.75-0.1875-0.5625 0.0625 0.1875q0.0625 0.1875 0.1875 0.3125l0.125 0.125-0.125-0.125-0.625 0.625 0.125 0.125-0.125-0.125q-0.125-0.125-0.3125-0.1875l-0.1875-0.0625 0.5625 0.1875-0.75-0.25v-0.5" fill="#7a7a7a"/>
    <path d="m3.125 6.375-0.125-0.375h1v1l-0.375-0.125q-0.375-0.125-0.5-0.5" fill="#cfcfcf"/>
    <path d="m4 6.5v-0.5h1v1h-1v-0.5" fill="#ccc"/>
    <path d="m5 6.5v-0.5l0.75-0.25-0.5625 0.1875 0.1875-0.0625q0.1875-0.0625 0.3125-0.1875l0.125-0.125-0.125 0.125 0.625 0.625 0.125-0.125-0.125 0.125q-0.125 0.125-0.1875 0.3125l-0.0625 0.1875 0.1875-0.5625-0.25 0.75h-1v-0.5" fill="#c6c6c7"/>
    <path d="m6.125 6.625q0.125-0.375 0.5-0.5l0.375-0.125v1h-1l0.125-0.375" fill="#bebec0"/>
    <path d="m7 6.5v-0.5h1l0.25 0.75-0.1875-0.5625 0.0625 0.1875q0.0625 0.1875 0.1875 0.3125l0.125 0.125-0.125-0.125-0.625 0.625 0.125 0.125-0.125-0.125q-0.125-0.125-0.3125-0.1875l-0.1875-0.0625 0.5625 0.1875-0.75-0.25v-0.5" fill="#a8a8a9"/>
    <path d="m8.125 6.375-0.125-0.375h1v1l-0.375-0.125q-0.375-0.125-0.5-0.5" fill="#c6c6c9"/>
   </g>
   <path d="m9 6.5v-0.5l0.75-0.25-0.5625 0.1875 0.1875-0.0625q0.1875-0.0625 0.3125-0.1875l0.125-0.125-0.125 0.125 0.28125 0.28125q0.28125 0.28125 0.15625 0.65625l-0.125 0.375h-1v-0.5" fill="#2e2e2e" fill-opacity=".47451" stroke-width=".24045"/>
   <g stroke-width=".24045">
    <path d="m11 6.5v-0.5h1v1h-0.5q-0.5 0-0.5-0.5" fill-opacity=".082353"/>
    <path d="m12 6.5v-0.5h1v1h-1v-0.5" fill-opacity=".43922"/>
    <path d="m13 6.5v-0.5h1v1h-1v-0.5" fill-opacity=".043137"/>
    <path d="m14 6.5v-0.5h1v1h-1v-0.5" fill-opacity=".45882"/>
   </g>
   <path d="m0 7.5v-0.5h1l0.25 0.75-0.1875-0.5625 0.0625 0.1875q0.0625 0.1875 0.1875 0.3125l0.125 0.125-0.125-0.125-0.625 0.625 0.125 0.125-0.125-0.125q-0.125-0.125-0.3125-0.1875l-0.1875-0.0625 0.5625 0.1875-0.75-0.25v-0.5" fill="#010101" fill-opacity=".75294" stroke-width=".24045"/>
   <g stroke-width=".24045">
    <path d="m1.125 7.375-0.125-0.375h1v1l-0.375-0.125q-0.375-0.125-0.5-0.5" fill="#5c5c5c"/>
    <path d="m2 7.5v-0.5l0.375 0.125q0.375 0.125 0.5 0.5l0.125 0.375h-1v-0.5" fill="#4e4e4e"/>
    <path d="m2.875 7.625-0.125-0.375 0.1875 0.5625-0.0625-0.1875q-0.0625-0.1875-0.1875-0.3125l-0.125-0.125 0.125 0.125 0.625-0.625-0.125-0.125 0.125 0.125q0.125 0.125 0.3125 0.1875l0.1875 0.0625-0.5625-0.1875 0.75 0.25v1h-1l-0.125-0.375" fill="#a7a7b1"/>
    <path d="m4 7.5v-0.5h1v1h-1v-0.5" fill="#a5a5b0"/>
    <path d="m5 7.5v-0.5h1v1h-1v-0.5" fill="#a3a3af"/>
    <path d="m6 7.5v-0.5h1v1h-1v-0.5" fill="#a0a0ad"/>
    <path d="m7 7.5v-0.5l0.375 0.125q0.375 0.125 0.5 0.5l0.125 0.375h-1v-0.5" fill="#93939a"/>
    <path d="m7.875 7.625-0.125-0.375 0.1875 0.5625-0.0625-0.1875q-0.0625-0.1875-0.1875-0.3125l-0.125-0.125 0.125 0.125 0.625-0.625-0.125-0.125 0.125 0.125q0.125 0.125 0.3125 0.1875l0.1875 0.0625-0.5625-0.1875 0.75 0.25v1h-1l-0.125-0.375" fill="#aaaab9"/>
   </g>
   <path d="m9 7.5v-0.5h1v1h-1v-0.5" fill="#202020" fill-opacity=".50588" stroke-width=".080701"/>
   <path d="m12 7.5v-0.5h1v1h-1v-0.5" fill="#020202" fill-opacity=".52941" stroke-width=".080701"/>
   <path d="m13 7.5v-0.5h1v1h-1v-0.5" fill-opacity="0" stroke-width=".24045"/>
   <path d="m14 7.5v-0.5h1v0.5q0 0.5 0 1v0.5h-1v-1.5" fill="#020202" fill-opacity=".52941" stroke-width=".080701"/>
   <path d="m0 8.5v-0.5l0.375 0.125q0.375 0.125 0.5 0.5l0.125 0.375h-1v-0.5" fill-opacity=".85882" stroke-width=".24045"/>
   <path d="m0.875 8.625-0.125-0.375 0.1875 0.5625-0.0625-0.1875q-0.0625-0.1875-0.1875-0.3125l-0.125-0.125 0.125 0.125 0.625-0.625-0.125-0.125 0.125 0.125q0.125 0.125 0.3125 0.1875l0.1875 0.0625-0.5625-0.1875 0.75 0.25 0.25 0.75-0.1875-0.5625 0.0625 0.1875q0.0625 0.1875 0.1875 0.3125l0.125 0.125-0.125-0.125-0.28125 0.28125q-0.28125 0.28125-0.65625 0.15625l-0.375-0.125-0.125-0.375" fill="#2d2d2d" fill-opacity=".97255" stroke-width=".24045"/>
   <g stroke-width=".24045">
    <path d="m2.125 8.375-0.125-0.375h1v1-0.75 0.25q0 0.25 0.125 0.375l0.125 0.125-0.125-0.125-0.4375-0.0625q-0.4375-0.0625-0.5625-0.4375" fill="#3c3c3c"/>
    <path d="m3 8.5v-0.5h1v1h-0.5q-0.5 0-0.5-0.5m0.625 0.5h0.625-0.25q-0.25 0-0.5 0h-0.25 0.375" fill="#b9b9cb"/>
    <path d="m4 8.5v-0.5h1v1h-1v-0.5m-0.125 0.5h0.875-0.25q-0.25 0-0.5 0h-0.25 0.125" fill="#b5b5c7"/>
    <path d="m5 8.5v-0.5h1l0.25 0.75-0.1875-0.5625 0.0625 0.1875q0.0625 0.1875 0.1875 0.3125l0.125 0.125-0.125-0.125-0.625 0.625 0.125 0.125-0.125-0.125q-0.125-0.125-0.3125-0.1875l-0.1875-0.0625 0.5625 0.1875-0.75-0.25v-0.5" fill="#b0b0c2"/>
    <path d="m6.125 8.375-0.125-0.375h1v1l-0.375-0.125q-0.375-0.125-0.5-0.5" fill="#aaaabc"/>
    <path d="m7 8.5v-0.5h1v1h-1v-0.5" fill="#92929b"/>
    <path d="m8 8.5v-0.5h1v1h-1v-0.5" fill="#acacbe"/>
   </g>
   <g stroke-width=".24045">
    <path d="m9 8.5v-0.5h1v1h-1v-0.5" fill="#111" fill-opacity=".52549"/>
    <path d="m11 8.5q0-0.5 0.5-0.5h0.5v1h-1v-0.5" fill-opacity=".098039"/>
    <path d="m12 8.5v-0.5h1v1h-1v-0.5" fill="#020202" fill-opacity=".50196"/>
   </g>
   <g stroke-width=".24045">
    <path d="m13 8.5v-0.5h1v1h-1v-0.5" fill-opacity=".05098"/>
    <path d="m0 9.5v-0.5h1v1h-1v-0.5" fill-opacity=".46667"/>
    <path d="m1 9.5v-0.5l0.375 0.125q0.375 0.125 0.65625-0.15625l0.28125-0.28125-0.125-0.125 0.125 0.125q0.125 0.125 0.3125 0.1875l0.1875 0.0625-0.5625-0.1875 0.875 0.125-0.125 1.125h-0.5q-0.5 0-1 0h-0.5v-0.5" fill-opacity=".92941"/>
   </g>
   <g stroke-width=".24045">
    <path d="m3.0625 9.4375 0.0625-0.5625-0.125-0.125 0.125 0.125q0.125 0.125 0.375 0.125h0.25-0.75 1l0.25 0.75-0.1875-0.5625 0.0625 0.1875q0.0625 0.1875 0.1875 0.3125l0.125 0.125-0.125-0.125-0.625 0.625 0.125 0.125-0.125-0.125q-0.125-0.125-0.3125-0.1875l-0.1875-0.0625 0.5625 0.1875-0.75-0.25 0.0625-0.5625m1.0625-0.4375h-0.875 0.25q0.25 0 0.5 0h0.25-0.125" fill="#040404" fill-opacity=".53725"/>
    <path d="m4.125 9.375-0.125-0.375h1-0.75 0.25q0.25 0 0.46875 0.03125l0.21875 0.03125-0.21875-0.03125 0.0625 0.9375 0.21875 0.03125-0.21875-0.03125q-0.21875-0.03125-0.40625-0.09375l-0.1875-0.0625 0.5625 0.1875-0.375-0.125q-0.375-0.125-0.5-0.5m0.25-0.375h-0.625 0.25q0.25 0 0.5 0h0.25-0.375" fill="#3a3a3f" fill-opacity=".62353"/>
    <path d="m5 9.5-0.03125-0.46875-0.21875-0.03125 0.21875 0.03125q0.21875 0.03125 0.40625 0.09375l0.1875 0.0625-0.5625-0.1875 0.375 0.125q0.375 0.125 0.48438 0.51562l0.10938 0.39062 0.21875 0.03125-0.21875-0.03125q-0.21875-0.03125-0.46875-0.03125h-0.25 0.75-1 0.75-0.25q-0.25 0-0.46875-0.03125l-0.21875-0.03125 0.21875 0.03125-0.03125-0.46875" fill="#72727c" fill-opacity=".76078"/>
    <path d="m5.8594 9.6406-0.10938-0.39062 0.1875 0.5625-0.0625-0.1875q-0.0625-0.1875-0.1875-0.3125l-0.125-0.125 0.125 0.125 0.625-0.625-0.125-0.125 0.125 0.125q0.125 0.125 0.3125 0.1875l0.1875 0.0625-0.5625-0.1875 0.75 0.25 0.25 0.75-0.1875-0.5625 0.0625 0.1875q0.0625 0.1875 0.15625 0.28125l0.09375 0.09375-0.09375-0.09375-0.5625 0.625 0.15625 0.09375-0.15625-0.09375q-0.15625-0.09375-0.34375-0.15625l-0.1875-0.0625 0.5625 0.1875-0.75-0.25 0.5625 0.1875-0.1875-0.0625q-0.1875-0.0625-0.40625-0.09375l-0.21875-0.03125 0.21875 0.03125-0.10938-0.39062" fill="#b9b9ca" fill-opacity=".95686"/>
    <path d="m7.125 9.375-0.125-0.375h1l-0.125 0.375q-0.125 0.375-0.375 0.375t-0.375-0.375" fill="#9b9ba4"/>
    <path d="m7.875 9.375 0.125-0.375h1v1l-0.75 0.25 0.5625-0.1875-0.1875 0.0625q-0.1875 0.0625-0.3125 0.1875l-0.125 0.125 0.125-0.125-0.59375-0.65625-0.09375 0.09375 0.09375-0.09375q0.09375-0.09375 0.15625-0.28125l0.0625-0.1875-0.1875 0.5625 0.125-0.375" fill="#bdbdcf"/>
    <path d="m9 9.5v-0.5h1v1h-1v-0.5" fill="#070707" fill-opacity=".54118"/>
   </g>
   <g stroke-width=".24045">
    <path d="m11 9.5v-0.5h1v1h-0.5q-0.5 0-0.5-0.5" fill-opacity=".28627"/>
    <path d="m12 9.5v-0.5h1v1h-1v-0.5" fill-opacity=".14902"/>
    <path d="m13 9.5v-0.5h1v1h-1v-0.5" fill-opacity=".19608"/>
    <path d="m14 9.5v-0.5h1v1h-1v-0.5" fill-opacity=".43922"/>
   </g>
   <g stroke-width=".24045">
    <path d="m0 10.5v-0.5h1.5q0.5 0 1 0h0.5v0.5q0 0.5 0.5 0.5h2.5v1h-6v-1.5" fill-opacity="0"/>
    <path d="m3 10.5v-0.5l0.375 0.125q0.375 0.125 0.5 0.5l0.125 0.375h-0.5q-0.5 0-0.5-0.5" fill-opacity=".027451"/>
    <path d="m3.875 10.625-0.125-0.375 0.1875 0.5625-0.0625-0.1875q-0.0625-0.1875-0.1875-0.3125l-0.125-0.125 0.125 0.125 0.625-0.625-0.125-0.125 0.125 0.125q0.125 0.125 0.3125 0.1875l0.1875 0.0625-0.5625-0.1875 0.75 0.25v1h-1l-0.125-0.375" fill-opacity=".1098"/>
    <path d="m5 10.5v-0.5h1-0.75 0.25q0.25 0 0.46875 0.03125l0.21875 0.03125-0.21875-0.03125 0.03125 0.96875h-1v-0.5" fill="#030303" fill-opacity=".29412"/>
    <path d="m5.9844 10.516-0.015625-0.48438-0.21875-0.03125 0.21875 0.03125q0.21875 0.03125 0.40625 0.09375l0.1875 0.0625-0.5625-0.1875 0.375 0.125q0.375 0.125 0.625 0.375l0.25 0.25-0.375-0.375 0.125 0.125q0.125 0.125 0.28125 0.21875l0.15625 0.09375-0.15625-0.09375-0.59375 0.59375 0.125 0.125-0.125-0.125q-0.125-0.125-0.3125-0.1875l-0.1875-0.0625 0.5625 0.1875-0.75-0.25-0.015625-0.48438" fill="#232325" fill-opacity=".54118"/>
    <path d="m7 10.5-0.25-0.25 0.375 0.375-0.125-0.125q-0.125-0.125-0.28125-0.21875l-0.15625-0.09375 0.15625 0.09375 0.5625-0.625-0.09375-0.09375 0.09375 0.09375q0.09375 0.09375 0.21875 0.09375h0.125-0.375 0.5-0.375 0.125q0.125 0 0.21875-0.09375l0.09375-0.09375-0.09375 0.09375 0.59375 0.65625 0.125-0.125-0.125 0.125q-0.125 0.125-0.1875 0.3125l-0.0625 0.1875 0.1875-0.5625-0.25 0.75 0.1875-0.5625-0.0625 0.1875q-0.0625 0.1875-0.0625 0.375v0.1875-0.1875l-0.40625-0.125q-0.40625-0.125-0.65625-0.375" fill="#909098" fill-opacity=".91373"/>
    <path d="m8.125 10.625q0.125-0.375 0.5-0.5l0.375-0.125v1h-1l0.125-0.375" fill="#d2d2e4"/>
    <path d="m9 10.5v-0.5h1v1h-1v-0.5" fill-opacity=".52157"/>
    <path d="m12 10.5v-0.5h1v1h-1v-0.5" fill-opacity=".098039"/>
   </g>
   <path d="m13 10.5v-0.5h1v1h-1v-0.5" fill="#020202" fill-opacity=".52941" stroke-width=".080701"/>
   <g stroke-width=".24045">
    <path d="m14 10.5v-0.5h1v0.5q0 0.5-0.5 0.5h-0.5v-0.5" fill-opacity=".10588"/>
    <path d="m6 11.5v-0.5l0.375 0.125q0.375 0.125 0.5 0.5l0.125 0.375h-1v-0.5" fill-opacity=".18431"/>
    <path d="m6.875 11.625-0.125-0.375 0.1875 0.5625-0.0625-0.1875q-0.0625-0.1875-0.1875-0.3125l-0.125-0.125 0.125 0.125 0.59375-0.59375-0.15625-0.09375 0.15625 0.09375q0.15625 0.09375 0.34375 0.15625l0.1875 0.0625-0.5625-0.1875 0.8125 0.25v-0.1875 0.1875q0 0.1875 0.0625 0.375l0.0625 0.1875-0.1875-0.5625 0.25 0.75-0.1875-0.5625 0.0625 0.1875q0.0625 0.1875 0.15625 0.28125l0.09375 0.09375-0.09375-0.09375-0.59375 0.65625 0.125 0.125-0.125-0.125q-0.125-0.125-0.3125-0.1875l-0.1875-0.0625 0.5625 0.1875-0.75-0.25-0.125-0.375" fill="#303030" fill-opacity=".58824"/>
    <path d="m8.125 11.375-0.125-0.375h1l-0.125 0.375q-0.125 0.375-0.375 0.375t-0.375-0.375" fill="#dedeef"/>
   </g>
   <g stroke-width=".24045">
    <path d="m8.875 11.375 0.125-0.375h1v1l-0.75 0.25 0.5625-0.1875-0.1875 0.0625q-0.1875 0.0625-0.3125 0.1875l-0.125 0.125 0.125-0.125-0.59375-0.65625-0.09375 0.09375 0.09375-0.09375q0.09375-0.09375 0.15625-0.28125l0.0625-0.1875-0.1875 0.5625 0.125-0.375" fill-opacity=".44314"/>
    <path d="m12 11.5v-0.5h1v1h-1v-0.5" fill-opacity=".27451"/>
    <path d="m13 11.5v-0.5h1v0.5q0 0.5-0.5 0.5h-0.5v-0.5" fill-opacity=".13725"/>
    <path d="m0 12.5v-0.5h1v2h-1v-1.5" fill-opacity=".0039216"/>
    <path d="m1 12.5v-0.5h1v1h-1v-0.5" fill-opacity=".023529"/>
    <path d="m2 12.5v-0.5h1v1h-1v-0.5" fill-opacity=".047059"/>
    <path d="m3 12.5v-0.5h1v1h-1v-0.5" fill-opacity=".07451"/>
    <path d="m4 12.5v-0.5h1v1h-1v-0.5" fill-opacity=".10588"/>
    <path d="m5 12.5v-0.5h1v1h-1v-0.5" fill-opacity=".13333"/>
    <path d="m6 12.5v-0.5h1v1h-1v-0.5" fill-opacity=".17255"/>
    <path d="m7 12.5v-0.5l0.375 0.125q0.375 0.125 0.5 0.5l0.125 0.375h-1v-0.5" fill-opacity=".36078"/>
    <path d="m7.875 12.625-0.125-0.375 0.1875 0.5625-0.0625-0.1875q-0.0625-0.1875-0.1875-0.3125l-0.125-0.125 0.125 0.125 0.59375-0.65625-0.09375-0.09375 0.09375 0.09375q0.09375 0.09375 0.21875 0.09375h0.125-0.375 0.5-0.375 0.125q0.125 0 0.21875-0.09375l0.09375-0.09375-0.09375 0.09375 0.59375 0.65625 0.125-0.125-0.125 0.125q-0.125 0.125-0.1875 0.3125l-0.0625 0.1875 0.1875-0.5625-0.25 0.75h-1l-0.125-0.375" fill-opacity=".4"/>
    <path d="m9.125 12.625q0.125-0.375 0.5-0.5l0.375-0.125v1h-1l0.125-0.375" fill-opacity=".3451"/>
    <path d="m10 12.5v-0.5h0.5q0.5 0 0.5 0.5v0.5h-1v-0.5" fill-opacity=".10588"/>
    <path d="m12 12.5v-0.5h1v0.5q0 0.5-0.5 0.5t-0.5-0.5" fill-opacity=".0078431"/>
    <path d="m1 13.5v-0.5h1v1h-1v-0.5" fill-opacity=".011765"/>
    <path d="m2 13.5v-0.5h1v1h-1v-0.5" fill-opacity=".023529"/>
    <path d="m3 13.5v-0.5h1v1h-1v-0.5" fill-opacity=".039216"/>
    <path d="m4 13.5v-0.5h1v1h-1v-0.5" fill-opacity=".054902"/>
    <path d="m5 13.5v-0.5h1v1h-1v-0.5" fill-opacity=".066667"/>
    <path d="m6 13.5v-0.5h1v1h-1v-0.5" fill-opacity=".082353"/>
    <path d="m7 13.5v-0.5h1v1h-1v-0.5" fill-opacity=".094118"/>
    <path d="m8 13.5v-0.5h1v1h-1v-0.5" fill-opacity=".10196"/>
    <path d="m9 13.5v-0.5h1v1h-1v-0.5" fill-opacity=".094118"/>
    <path d="m10 13.5v-0.5h1v0.5q0 0.5-0.5 0.5h-0.5v-0.5" fill-opacity=".054902"/>
   </g>
  </g>
 </g>
</svg>
