<?xml version="1.0" encoding="UTF-8"?>
<!-- Created with Inkscape (http://www.inkscape.org/) -->
<svg id="SVGRoot" width="256px" height="256px" version="1.1" viewBox="0 0 256 256" xmlns="http://www.w3.org/2000/svg" xmlns:cc="http://creativecommons.org/ns#" xmlns:dc="http://purl.org/dc/elements/1.1/" xmlns:rdf="http://www.w3.org/1999/02/22-rdf-syntax-ns#">
 <metadata>
  <rdf:RDF>
   <cc:Work rdf:about="">
    <dc:format>image/svg+xml</dc:format>
    <dc:type rdf:resource="http://purl.org/dc/dcmitype/StillImage"/>
    <dc:title/>
   </cc:Work>
  </rdf:RDF>
 </metadata>
 <g transform="matrix(15.594 0 0 15.594 4 3)" stroke-width=".064128">
  <path d="m0 0.5v-0.5h16v16h-1v-1.5q0-0.5-0.5-0.5h-1.5l0.125-0.375q0.125-0.375 0.5-0.5t0.375-0.625v-2.5h0.5q0.5 0 0.5-0.5v-0.5l0.125-0.375q0.125-0.375-0.15625-0.65625l-0.28125-0.28125-0.125 0.125 0.125-0.125q0.125-0.125 0.1875-0.3125l0.0625-0.1875-0.1875 0.5625 0.25-0.75-0.125-0.375q-0.125-0.375-0.375-0.625t-0.375-0.625l-0.125-0.375v-1l-0.125-0.375q-0.125-0.375-0.375-0.625t-0.5-0.5-0.625-0.375l-0.375-0.125h-1l-0.375-0.125q-0.375-0.125-0.625-0.375t-0.625-0.375l-0.375-0.125h-0.5q-0.5 0-1 0h-0.5l-0.375 0.125q-0.375 0.125-0.625 0.375t-0.625 0.375l-0.375 0.125h-1l-0.375 0.125q-0.375 0.125-0.625 0.375t-0.5 0.5-0.375 0.625l-0.125 0.375v1l-0.125 0.375q-0.125 0.375-0.375 0.625t-0.375 0.625l-0.125 0.375 0.25 0.75-0.1875-0.5625 0.0625 0.1875q0.0625 0.1875 0.1875 0.3125l0.125 0.125-0.125-0.125-0.28125 0.28125q-0.28125 0.28125-0.15625 0.65625l0.125 0.375v0.5q0 0.5 0.5 0.5h0.5v2.5q0 0.5 0.375 0.625t0.5 0.5l0.125 0.375h-1.5q-0.5 0-0.5 0.5v1.5h-1v-15.5" fill-opacity="0"/>
  <path d="m6 1.5q0.25-0.25 0.625-0.375l0.375-0.125-0.125 0.375q-0.125 0.375-0.375 0.625l-0.25 0.25 0.375-0.375-0.125 0.125q-0.125 0.125-0.21875 0.28125l-0.09375 0.15625 0.09375-0.15625-0.5625-0.5625-0.15625 0.09375 0.15625-0.09375q0.15625-0.09375 0.28125-0.21875l0.125-0.125-0.375 0.375 0.25-0.25" fill="#555" fill-opacity=".22353"/>
  <path d="m6.875 1.375 0.125-0.375h0.5q0.5 0 1 0h0.5l0.25 0.75-0.1875-0.5625 0.0625 0.1875q0.0625 0.1875 0.15625 0.34375l0.09375 0.15625-0.09375-0.15625-0.59375 0.59375 0.125 0.125-0.125-0.125q-0.125-0.125-0.3125-0.1875l-0.1875-0.0625 0.5625 0.1875-0.75-0.25-0.75 0.25 0.5625-0.1875-0.1875 0.0625q-0.1875 0.0625-0.3125 0.1875l-0.125 0.125 0.125-0.125-0.59375-0.59375-0.09375 0.15625 0.09375-0.15625q0.09375-0.15625 0.15625-0.34375l0.0625-0.1875-0.1875 0.5625 0.125-0.375" fill="#545454" fill-opacity=".40392"/>
  <path d="m9.125 1.375-0.125-0.375 0.375 0.125q0.375 0.125 0.625 0.375l0.25 0.25-0.375-0.375 0.125 0.125q0.125 0.125 0.28125 0.21875l0.15625 0.09375-0.15625-0.09375-0.5625 0.5625 0.09375 0.15625-0.09375-0.15625q-0.09375-0.15625-0.21875-0.28125l-0.125-0.125 0.375 0.375-0.25-0.25q-0.25-0.25-0.375-0.625" fill="#555" fill-opacity=".22353"/>
  <path d="m3 2.5q0.25-0.25 0.625-0.375l0.375-0.125-0.125 0.375q-0.125 0.375-0.375 0.625l-0.25 0.25 0.375-0.375-0.125 0.125q-0.125 0.125-0.21875 0.28125l-0.09375 0.15625 0.09375-0.15625-0.53125-0.53125 0.25-0.25m-0.0625 0.0625-0.3125 0.3125 0.125-0.125q0.125-0.125 0.25-0.25l0.125-0.125-0.1875 0.1875" fill="#4f4f4f" fill-opacity=".22745"/>
  <path d="m3.875 2.375 0.125-0.375h1l0.25 0.75-0.1875-0.5625 0.0625 0.1875q0.0625 0.1875 0.1875 0.3125l0.125 0.125-0.125-0.125-0.5625 0.625 0.125 0.0625-0.125-0.0625q-0.125-0.0625-0.25-0.0625h-0.125 0.375-0.5 0.375-0.125q-0.125 0-0.25 0.0625l-0.125 0.0625 0.125-0.0625-0.53125-0.59375-0.09375 0.15625 0.09375-0.15625q0.09375-0.15625 0.15625-0.34375l0.0625-0.1875-0.1875 0.5625 0.125-0.375" fill="#505050" fill-opacity=".41176"/>
  <path d="m5.125 2.375-0.125-0.375 0.75-0.25-0.5625 0.1875 0.1875-0.0625q0.1875-0.0625 0.34375-0.15625l0.15625-0.09375-0.15625 0.09375 0.5625 0.5625 0.09375-0.15625-0.09375 0.15625q-0.09375 0.15625-0.15625 0.34375l-0.0625 0.1875 0.1875-0.5625-0.25 0.75-0.375-0.125q-0.375-0.125-0.5-0.5" fill="#4c4c4c" fill-opacity=".10588"/>
  <path d="m6.125 2.625q0.125-0.375 0.375-0.625l0.25-0.25-0.375 0.375 0.125-0.125q0.125-0.125 0.21875-0.28125l0.09375-0.15625-0.09375 0.15625 0.59375 0.59375 0.125-0.125-0.125 0.125q-0.125 0.125-0.1875 0.3125l-0.0625 0.1875 0.1875-0.5625-0.25 0.75h-1l0.125-0.375" fill="#505050" fill-opacity=".41176"/>
  <path d="m7.125 2.625q0.125-0.375 0.5-0.5l0.375-0.125v1h-1l0.125-0.375" fill="#fafafa"/>
  <path d="m8 2.5v-0.5l0.375 0.125q0.375 0.125 0.5 0.5l0.125 0.375h-1v-0.5" fill="#f5f5f5"/>
  <path d="m8.875 2.625-0.125-0.375 0.1875 0.5625-0.0625-0.1875q-0.0625-0.1875-0.1875-0.3125l-0.125-0.125 0.125 0.125 0.59375-0.59375-0.09375-0.15625 0.09375 0.15625q0.09375 0.15625 0.21875 0.28125l0.125 0.125-0.375-0.375 0.25 0.25q0.25 0.25 0.375 0.625l0.125 0.375h-1l-0.125-0.375" fill="#505050" fill-opacity=".41176"/>
  <path d="m9.875 2.625-0.125-0.375 0.1875 0.5625-0.0625-0.1875q-0.0625-0.1875-0.15625-0.34375l-0.09375-0.15625 0.09375 0.15625 0.5625-0.5625-0.15625-0.09375 0.15625 0.09375q0.15625 0.09375 0.34375 0.15625l0.1875 0.0625-0.5625-0.1875 0.75 0.25-0.125 0.375q-0.125 0.375-0.5 0.5l-0.375 0.125-0.125-0.375" fill="#4c4c4c" fill-opacity=".10588"/>
  <path d="m10.875 2.375 0.125-0.375h1l0.25 0.75-0.1875-0.5625 0.0625 0.1875q0.0625 0.1875 0.15625 0.34375l0.09375 0.15625-0.09375-0.15625-0.53125 0.59375 0.125 0.0625-0.125-0.0625q-0.125-0.0625-0.25-0.0625h-0.125 0.375-0.5 0.375-0.125q-0.125 0-0.25 0.0625l-0.125 0.0625 0.125-0.0625-0.5625-0.625-0.125 0.125 0.125-0.125q0.125-0.125 0.1875-0.3125l0.0625-0.1875-0.1875 0.5625 0.125-0.375" fill="#505050" fill-opacity=".41176"/>
  <path d="m12.125 2.375-0.125-0.375 0.375 0.125q0.375 0.125 0.625 0.375l0.25 0.25-0.53125 0.53125 0.09375 0.15625-0.09375-0.15625q-0.09375-0.15625-0.21875-0.28125l-0.125-0.125 0.375 0.375-0.25-0.25q-0.25-0.25-0.375-0.625m1.1875 0.4375-0.4375-0.4375 0.125 0.125q0.125 0.125 0.25 0.25l0.125 0.125-0.0625-0.0625" fill="#4f4f4f" fill-opacity=".22745"/>
  <path d="m2.125 3.625q0.125-0.375 0.375-0.625l0.25-0.25 0.53125 0.53125 0.09375-0.15625-0.09375 0.15625q-0.09375 0.15625-0.15625 0.34375l-0.0625 0.1875 0.1875-0.5625-0.15625 0.84375-1.0938-0.09375 0.125-0.375m0.6875-0.9375-0.4375 0.4375 0.125-0.125q0.125-0.125 0.25-0.25l0.125-0.125-0.0625 0.0625" fill="#494949" fill-opacity=".23137"/>
  <path d="m3.1719 3.6719q0.078125-0.42188 0.32812-0.67188l0.25-0.25-0.375 0.375 0.125-0.125q0.125-0.125 0.21875-0.28125l0.09375-0.15625-0.09375 0.15625 0.53125 0.59375 0.125-0.0625-0.125 0.0625q-0.125 0.0625-0.25 0.1875l-0.125 0.125 0.375-0.375-0.25 0.25q-0.25 0.25-0.625 0.375l-0.375 0.125 0.5625-0.1875-0.1875 0.0625q-0.1875 0.0625-0.28125 0.21875l-0.09375 0.15625 0.09375-0.15625 0.078125-0.42188" fill="#777" fill-opacity=".56471"/>
  <path d="m4 3.5q0.25-0.25 0.5-0.25t0.5 0.25l0.25 0.25-0.375-0.375 0.125 0.125q0.125 0.125 0.28125 0.21875l0.15625 0.09375-0.15625-0.09375-0.5625 0.625 0.09375 0.09375-0.09375-0.09375q-0.09375-0.09375-0.21875-0.09375h-0.125 0.375-0.5 0.375-0.125q-0.125 0-0.1875 0.0625l-0.0625 0.0625 0.0625-0.0625-0.59375-0.59375-0.15625 0.09375 0.15625-0.09375q0.15625-0.09375 0.28125-0.21875l0.125-0.125-0.375 0.375 0.25-0.25" fill="#eaeaea"/>
  <path d="m5 3.5-0.25-0.25 0.375 0.375-0.125-0.125q-0.125-0.125-0.25-0.1875l-0.125-0.0625 0.125 0.0625 0.5625-0.625-0.125-0.125 0.125 0.125q0.125 0.125 0.3125 0.1875l0.1875 0.0625-0.5625-0.1875 0.75 0.25v1l-0.375-0.125q-0.375-0.125-0.625-0.375" fill="#606060" fill-opacity=".47843"/>
  <path d="m6 3.5v-0.5h1v0.5q0 0.5-0.5 0.5h-0.5v-0.5" fill="#4c4c4c" fill-opacity=".41961"/>
  <path d="m7 3.5v-0.5h2v1-0.75 0.25q0 0.25 0.125 0.375l0.125 0.125-0.125-0.125-0.5625 0.0625q-0.5625 0.0625-1.125 0l-0.5625-0.0625-0.125 0.125 0.125-0.125q0.125-0.125 0.125-0.375v-0.25 0.75-0.5" fill="#e6e6e5"/>
  <path d="m9 3.5v-0.5h1v1h-0.5q-0.5 0-0.5-0.5" fill="#4c4c4c" fill-opacity=".41961"/>
  <path d="m10 3.5v-0.5l0.75-0.25-0.5625 0.1875 0.1875-0.0625q0.1875-0.0625 0.3125-0.1875l0.125-0.125-0.125 0.125 0.5625 0.625 0.125-0.0625-0.125 0.0625q-0.125 0.0625-0.25 0.1875l-0.125 0.125 0.375-0.375-0.25 0.25q-0.25 0.25-0.625 0.375l-0.375 0.125v-0.5" fill="#606060" fill-opacity=".47843"/>
  <path d="m11 3.5q0.25-0.25 0.5-0.25t0.5 0.25l0.25 0.25-0.375-0.375 0.125 0.125q0.125 0.125 0.28125 0.21875l0.15625 0.09375-0.15625-0.09375-0.59375 0.59375 0.0625 0.0625-0.0625-0.0625q-0.0625-0.0625-0.1875-0.0625h-0.125 0.375-0.5 0.375-0.125q-0.125 0-0.21875 0.09375l-0.09375 0.09375 0.09375-0.09375-0.5625-0.625-0.15625 0.09375 0.15625-0.09375q0.15625-0.09375 0.28125-0.21875l0.125-0.125-0.375 0.375 0.25-0.25" fill="#eaeaea"/>
  <path d="m12 3.5-0.25-0.25 0.375 0.375-0.125-0.125q-0.125-0.125-0.25-0.1875l-0.125-0.0625 0.125 0.0625 0.53125-0.59375-0.09375-0.15625 0.09375 0.15625q0.09375 0.15625 0.21875 0.28125l0.125 0.125-0.375-0.375 0.25 0.25q0.25 0.25 0.32812 0.67188l0.078125 0.42188 0.09375 0.15625-0.09375-0.15625q-0.09375-0.15625-0.28125-0.21875l-0.1875-0.0625 0.5625 0.1875-0.375-0.125q-0.375-0.125-0.625-0.375" fill="#777" fill-opacity=".56471"/>
  <path d="m12.828 3.6719-0.078125-0.42188 0.1875 0.5625-0.0625-0.1875q-0.0625-0.1875-0.15625-0.34375l-0.09375-0.15625 0.09375 0.15625 0.53125-0.53125 0.25 0.25q0.25 0.25 0.375 0.625l0.125 0.375-1.0938 0.09375-0.078125-0.42188m0.60938-0.73438-0.3125-0.3125 0.125 0.125q0.125 0.125 0.25 0.25l0.125 0.125-0.1875-0.1875" fill="#494949" fill-opacity=".23137"/>
  <path d="m2 4.5v-0.5l1.0938 0.09375 0.09375-0.15625-0.09375 0.15625q-0.09375 0.15625-0.09375 0.40625v0.25-0.75l0.25 0.75-0.1875-0.5625 0.0625 0.1875q0.0625 0.1875 0.15625 0.34375l0.09375 0.15625-0.09375-0.15625-0.59375 0.59375 0.125 0.125-0.125-0.125q-0.125-0.125-0.3125-0.1875l-0.1875-0.0625 0.5625 0.1875-0.75-0.25v-0.5" fill="#464646" fill-opacity=".42745"/>
  <g>
   <path d="m3.125 4.375q-0.125-0.375 0.25-0.5l0.375-0.125-0.5625 0.1875 0.1875-0.0625q0.1875-0.0625 0.34375-0.15625l0.15625-0.09375-0.15625 0.09375 0.59375 0.59375 0.0625-0.0625-0.0625 0.0625q-0.0625 0.0625-0.0625 0.1875v0.125-0.375 0.5-0.375 0.125q0 0.125 0.09375 0.21875l0.09375 0.09375-0.09375-0.09375-0.625 0.5625 0.09375 0.15625-0.09375-0.15625q-0.09375-0.15625-0.21875-0.28125l-0.125-0.125 0.375 0.375-0.25-0.25q-0.25-0.25-0.375-0.625" fill="#e0e0e0"/>
   <path d="m4.25 4.5q0-0.25 0.25-0.25t0.375 0.375l0.125 0.375-0.375-0.125q-0.375-0.125-0.375-0.375" fill="#cbcbca"/>
   <path d="m4.875 4.625-0.125-0.375 0.1875 0.5625-0.0625-0.1875q-0.0625-0.1875-0.15625-0.28125l-0.09375-0.09375 0.09375 0.09375 0.5625-0.625-0.15625-0.09375 0.15625 0.09375q0.15625 0.09375 0.34375 0.15625l0.1875 0.0625-0.5625-0.1875 0.75 0.25v1h-1l-0.125-0.375" fill="#e5e5e4"/>
  </g>
  <path d="m6 4.5v-0.5h1-0.75 0.25q0.25 0 0.375-0.125l0.125-0.125-0.125 0.125 0.125 1.125h-1v-0.5" fill="#b4b4b4" fill-opacity=".85882"/>
  <path d="m6.9375 4.4375-0.0625-0.5625 0.5625 0.0625q0.5625 0.0625 1.125 0l0.5625-0.0625-0.125 1.125h-0.5q-0.5 0-1 0h-0.5l-0.0625-0.5625" fill="#e4e4e4"/>
  <path d="m9.0625 4.4375 0.0625-0.5625-0.125-0.125 0.125 0.125q0.125 0.125 0.375 0.125h0.25-0.75 1v1h-1l0.0625-0.5625" fill="#b4b4b4" fill-opacity=".85882"/>
  <g>
   <path d="m10 4.5v-0.5l0.75-0.25-0.5625 0.1875 0.1875-0.0625q0.1875-0.0625 0.34375-0.15625l0.15625-0.09375-0.15625 0.09375 0.5625 0.625 0.09375-0.09375-0.09375 0.09375q-0.09375 0.09375-0.15625 0.28125l-0.0625 0.1875 0.1875-0.5625-0.25 0.75h-1v-0.5" fill="#dcdcdc"/>
   <path d="m11.125 4.625q0.125-0.375 0.375-0.375t0.25 0.25-0.375 0.375l-0.375 0.125 0.125-0.375" fill="#cbcbca"/>
   <path d="m11.75 4.5v-0.25 0.375-0.125q0-0.125-0.0625-0.1875l-0.0625-0.0625 0.0625 0.0625 0.59375-0.59375-0.15625-0.09375 0.15625 0.09375q0.15625 0.09375 0.34375 0.15625l0.1875 0.0625-0.5625-0.1875 0.375 0.125q0.375 0.125 0.25 0.5t-0.375 0.625l-0.25 0.25 0.375-0.375-0.125 0.125q-0.125 0.125-0.21875 0.28125l-0.09375 0.15625 0.09375-0.15625-0.625-0.5625-0.09375 0.09375 0.09375-0.09375q0.09375-0.09375 0.09375-0.21875v-0.125 0.375-0.25" fill="#e0e0e0"/>
  </g>
  <path d="m12.875 4.375 0.125-0.375v0.75-0.25q0-0.25-0.09375-0.40625l-0.09375-0.15625 0.09375 0.15625 1.0938-0.09375v1l-0.75 0.25 0.5625-0.1875-0.1875 0.0625q-0.1875 0.0625-0.3125 0.1875l-0.125 0.125 0.125-0.125-0.59375-0.59375-0.09375 0.15625 0.09375-0.15625q0.09375-0.15625 0.15625-0.34375l0.0625-0.1875-0.1875 0.5625 0.125-0.375" fill="#464646" fill-opacity=".42745"/>
  <path d="m1.875 5.375 0.125-0.375 0.375 0.125q0.375 0.125 0.5 0.5l0.125 0.375-0.75 0.25 0.5625-0.1875-0.1875 0.0625q-0.1875 0.0625-0.34375 0.15625l-0.15625 0.09375 0.15625-0.09375-0.5625-0.5625-0.09375 0.15625 0.09375-0.15625q0.09375-0.15625 0.15625-0.34375l0.0625-0.1875-0.1875 0.5625 0.125-0.375" fill="#404040" fill-opacity=".1098"/>
  <path d="m2.875 5.625-0.125-0.375 0.1875 0.5625-0.0625-0.1875q-0.0625-0.1875-0.1875-0.3125l-0.125-0.125 0.125 0.125 0.59375-0.59375-0.09375-0.15625 0.09375 0.15625q0.09375 0.15625 0.21875 0.28125l0.125 0.125-0.375-0.375 0.25 0.25q0.25 0.25 0.375 0.625l0.125 0.375h-1l-0.125-0.375" fill="#535353" fill-opacity=".49412"/>
  <g>
   <path d="m3.875 5.625-0.125-0.375 0.1875 0.5625-0.0625-0.1875q-0.0625-0.1875-0.15625-0.34375l-0.09375-0.15625 0.09375 0.15625 0.625-0.5625-0.09375-0.09375 0.09375 0.09375q0.09375 0.09375 0.28125 0.15625l0.1875 0.0625-0.5625-0.1875 0.75 0.25 0.25 0.75-0.1875-0.5625 0.0625 0.1875q0.0625 0.1875 0.15625 0.28125l0.09375 0.09375-0.09375-0.09375-0.625 0.625 0.09375 0.09375-0.09375-0.09375q-0.09375-0.09375-0.28125-0.15625l-0.1875-0.0625 0.5625 0.1875-0.75-0.25-0.125-0.375" fill="#d1d1d0"/>
   <path d="m5.125 5.375-0.125-0.375h1l-0.125 0.375q-0.125 0.375-0.375 0.375t-0.375-0.375" fill="#d0d0cf"/>
   <path d="m5.875 5.375 0.125-0.375h1l0.09375 1.0938-0.84375 0.15625 0.5625-0.1875-0.1875 0.0625q-0.1875 0.0625-0.34375 0.15625l-0.15625 0.09375 0.15625-0.09375-0.5625-0.625-0.09375 0.09375 0.09375-0.09375q0.09375-0.09375 0.15625-0.28125l0.0625-0.1875-0.1875 0.5625 0.125-0.375" fill="#dededd"/>
   <path d="m7.0469 5.5469-0.046875-0.54688h0.5q0.5 0 1 0h0.5l-0.09375 1.0938 0.15625 0.09375-0.15625-0.09375q-0.15625-0.09375-0.40625-0.09375h-0.25 0.75-0.5q-0.5 0-1 0h-0.5 0.75-0.25q-0.25 0-0.40625 0.09375l-0.15625 0.09375 0.15625-0.09375-0.046875-0.54688" fill="#e2e2e1"/>
   <path d="m8.9531 5.5469 0.046875-0.54688h1l0.25 0.75-0.1875-0.5625 0.0625 0.1875q0.0625 0.1875 0.15625 0.28125l0.09375 0.09375-0.09375-0.09375-0.5625 0.625 0.15625 0.09375-0.15625-0.09375q-0.15625-0.09375-0.34375-0.15625l-0.1875-0.0625 0.5625 0.1875-0.84375-0.15625 0.046875-0.54688" fill="#dededd"/>
   <path d="m10.125 5.375-0.125-0.375h1l-0.125 0.375q-0.125 0.375-0.375 0.375t-0.375-0.375" fill="#d0d0cf"/>
   <path d="m10.875 5.375 0.125-0.375 0.75-0.25-0.5625 0.1875 0.1875-0.0625q0.1875-0.0625 0.28125-0.15625l0.09375-0.09375-0.09375 0.09375 0.625 0.5625 0.09375-0.15625-0.09375 0.15625q-0.09375 0.15625-0.15625 0.34375l-0.0625 0.1875 0.1875-0.5625-0.25 0.75-0.75 0.25 0.5625-0.1875-0.1875 0.0625q-0.1875 0.0625-0.28125 0.15625l-0.09375 0.09375 0.09375-0.09375-0.625-0.625-0.09375 0.09375 0.09375-0.09375q0.09375-0.09375 0.15625-0.28125l0.0625-0.1875-0.1875 0.5625 0.125-0.375" fill="#d1d1d0"/>
  </g>
  <path d="m12.125 5.625q0.125-0.375 0.375-0.625l0.25-0.25-0.375 0.375 0.125-0.125q0.125-0.125 0.21875-0.28125l0.09375-0.15625-0.09375 0.15625 0.59375 0.59375 0.125-0.125-0.125 0.125q-0.125 0.125-0.1875 0.3125l-0.0625 0.1875 0.1875-0.5625-0.25 0.75h-1l0.125-0.375" fill="#535353" fill-opacity=".49412"/>
  <path d="m13.125 5.625q0.125-0.375 0.5-0.5l0.375-0.125 0.25 0.75-0.1875-0.5625 0.0625 0.1875q0.0625 0.1875 0.15625 0.34375l0.09375 0.15625-0.09375-0.15625-0.5625 0.5625 0.15625 0.09375-0.15625-0.09375q-0.15625-0.09375-0.34375-0.15625l-0.1875-0.0625 0.5625 0.1875-0.75-0.25 0.125-0.375" fill="#404040" fill-opacity=".1098"/>
  <path d="m1.125 6.625q0.125-0.375 0.375-0.625l0.25-0.25-0.375 0.375 0.125-0.125q0.125-0.125 0.21875-0.28125l0.09375-0.15625-0.09375 0.15625 0.5625 0.5625 0.15625-0.09375-0.15625 0.09375q-0.15625 0.09375-0.28125 0.21875l-0.125 0.125 0.375-0.375-0.25 0.25q-0.25 0.25-0.625 0.375l-0.375 0.125 0.125-0.375" fill="#393939" fill-opacity=".24706"/>
  <path d="m2 6.5q0.25-0.25 0.625-0.375l0.375-0.125h1l-0.125 0.375q-0.125 0.375-0.5 0.5l-1.125 0.375 0.5625-0.1875-0.1875 0.0625q-0.1875 0.0625-0.3125 0.1875l-0.125 0.125 0.125-0.125-0.59375-0.59375-0.15625 0.09375 0.15625-0.09375q0.15625-0.09375 0.28125-0.21875l0.125-0.125-0.375 0.375 0.25-0.25" fill="#3a3a3a" fill-opacity=".45098"/>
  <path d="m3.875 6.375 0.125-0.375 0.375 0.125q0.375 0.125 0.375 0.375t-0.25 0.5l-0.25 0.25 0.375-0.375-0.125 0.125q-0.125 0.125-0.21875 0.28125l-0.09375 0.15625 0.09375-0.15625-0.59375-0.59375-0.125 0.125 0.125-0.125q0.125-0.125 0.1875-0.3125l0.0625-0.1875-0.1875 0.5625 0.125-0.375" fill="#a1a1a0" fill-opacity=".86275"/>
  <path d="m4.75 6.5v-0.25 0.375-0.125q0-0.125-0.09375-0.21875l-0.09375-0.09375 0.09375 0.09375 0.625-0.625-0.09375-0.09375 0.09375 0.09375q0.09375 0.09375 0.21875 0.09375h0.125-0.375 0.5-0.375 0.125q0.125 0 0.21875-0.09375l0.09375-0.09375-0.09375 0.09375 0.5625 0.625 0.15625-0.09375-0.15625 0.09375q-0.15625 0.09375-0.28125 0.21875l-0.125 0.125 0.375-0.375-0.25 0.25q-0.25 0.25-0.5 0.5l-0.25 0.25 0.375-0.375-0.125 0.125q-0.125 0.125-0.21875 0.28125l-0.09375 0.15625 0.09375-0.15625-0.59375-0.53125-0.0625 0.125 0.0625-0.125q0.0625-0.125 0.0625-0.25v-0.125 0.375-0.25" fill="#d4d4d3"/>
  <path d="m6 6.5q0.25-0.25 0.67188-0.32812l0.42188-0.078125 0.15625-0.09375-0.15625 0.09375q-0.15625 0.09375-0.21875 0.28125l-0.0625 0.1875 0.1875-0.5625-0.125 0.375q-0.125 0.375-0.375 0.625l-0.25 0.25 0.375-0.375-0.125 0.125q-0.125 0.125-0.21875 0.28125l-0.09375 0.15625 0.09375-0.15625-0.53125-0.53125 0.25-0.25m-0.0625 0.0625-0.3125 0.3125 0.125-0.125q0.125-0.125 0.25-0.25l0.125-0.125-0.1875 0.1875" fill="#a6a6a5" fill-opacity=".84314"/>
  <path d="m6.875 6.375q0.125-0.375 0.625-0.375t1 0 0.625 0.375l0.125 0.375-0.1875-0.5625 0.0625 0.1875q0.0625 0.1875 0.15625 0.34375l0.09375 0.15625-0.09375-0.15625-0.59375 0.59375 0.125 0.125-0.125-0.125q-0.125-0.125-0.3125-0.1875l-0.1875-0.0625 0.5625 0.1875-0.375-0.125q-0.375-0.125-0.75 0l-0.375 0.125 0.5625-0.1875-0.1875 0.0625q-0.1875 0.0625-0.3125 0.1875l-0.125 0.125 0.125-0.125-0.59375-0.59375-0.09375 0.15625 0.09375-0.15625q0.09375-0.15625 0.15625-0.34375l0.0625-0.1875-0.1875 0.5625 0.125-0.375" fill="#2c2c2c" fill-opacity=".58431"/>
  <path d="m9.125 6.375-0.125-0.375 0.1875 0.5625-0.0625-0.1875q-0.0625-0.1875-0.21875-0.28125l-0.15625-0.09375 0.15625 0.09375 0.42188 0.078125q0.42188 0.078125 0.67188 0.32812l0.25 0.25-0.53125 0.53125 0.09375 0.15625-0.09375-0.15625q-0.09375-0.15625-0.21875-0.28125l-0.125-0.125 0.375 0.375-0.25-0.25q-0.25-0.25-0.375-0.625m1.1875 0.4375-0.4375-0.4375 0.125 0.125q0.125 0.125 0.25 0.25l0.125 0.125-0.0625-0.0625" fill="#a6a6a5" fill-opacity=".84314"/>
  <path d="m10 6.5-0.25-0.25 0.375 0.375-0.125-0.125q-0.125-0.125-0.28125-0.21875l-0.15625-0.09375 0.15625 0.09375 0.5625-0.625-0.09375-0.09375 0.09375 0.09375q0.09375 0.09375 0.21875 0.09375h0.125-0.375 0.5-0.375 0.125q0.125 0 0.21875-0.09375l0.09375-0.09375-0.09374 0.09375 0.625 0.625 0.09374-0.09375-0.09375 0.09375q-0.09375 0.09375-0.09375 0.21875v0.125-0.375 0.5-0.375 0.125q0 0.125 0.0625 0.25l0.0625 0.125-0.0625-0.125-0.59375 0.53125 0.09375 0.15625-0.09375-0.15625q-0.09375-0.15625-0.21875-0.28125l-0.125-0.125 0.375 0.375-0.25-0.25q-0.25-0.25-0.5-0.5" fill="#d4d4d3"/>
  <path d="m11.25 6.5q0-0.25 0.375-0.375l0.375-0.125 0.25 0.75-0.1875-0.5625 0.0625 0.1875q0.0625 0.1875 0.1875 0.3125l0.125 0.125-0.125-0.125-0.59375 0.59375 0.09375 0.15625-0.09375-0.15625q-0.09375-0.15625-0.21875-0.28125l-0.125-0.125 0.375 0.375-0.25-0.25q-0.25-0.25-0.25-0.5" fill="#a1a1a0" fill-opacity=".86275"/>
  <path d="m12.125 6.375-0.125-0.375h1l0.375 0.125q0.375 0.125 0.625 0.375l0.25 0.25-0.375-0.375 0.125 0.125q0.125 0.125 0.28125 0.21875l0.15625 0.09375-0.15625-0.09375-0.59375 0.59375 0.125 0.125-0.125-0.125q-0.125-0.125-0.3125-0.1875l-0.1875-0.0625 0.5625 0.1875-1.125-0.375q-0.375-0.125-0.5-0.5" fill="#3a3a3a" fill-opacity=".45098"/>
  <path d="m14 6.5-0.25-0.25 0.375 0.375-0.125-0.125q-0.125-0.125-0.28125-0.21875l-0.15625-0.09375 0.15625 0.09375 0.5625-0.5625-0.09375-0.15625 0.09375 0.15625q0.09375 0.15625 0.21875 0.28125l0.125 0.125-0.375-0.375 0.25 0.25q0.25 0.25 0.375 0.625l0.125 0.375-0.375-0.125q-0.375-0.125-0.625-0.375" fill="#393939" fill-opacity=".24706"/>
  <path d="m1.125 7.375-0.125-0.375 0.75-0.25-0.5625 0.1875 0.1875-0.0625q0.1875-0.0625 0.34375-0.15625l0.15625-0.09375-0.15625 0.09375 0.59375 0.59375 0.125-0.125-0.125 0.125q-0.125 0.125-0.1875 0.3125l-0.0625 0.1875 0.1875-0.5625-0.25 0.75-0.375-0.125q-0.375-0.125-0.5-0.5" fill="#323232" fill-opacity=".46275"/>
  <g>
   <path d="m2.125 7.625q0.125-0.375 0.5-0.5l0.375-0.125v1h-1l0.125-0.375" fill="#cccccb"/>
   <path d="m3 7.5v-0.5l0.75-0.25-0.5625 0.1875 0.1875-0.0625q0.1875-0.0625 0.3125-0.1875l0.125-0.125-0.125 0.125 0.59375 0.59375 0.09375-0.15625-0.09375 0.15625q-0.09375 0.15625-0.15625 0.34375l-0.0625 0.1875 0.1875-0.5625-0.25 0.75h-1v-0.5" fill="#bfbfbe"/>
   <path d="m4.125 7.625q0.125-0.375 0.375-0.625l0.25-0.25-0.375 0.375 0.125-0.125q0.125-0.125 0.1875-0.25l0.0625-0.125-0.0625 0.125 0.59375 0.53125 0.09375-0.15625-0.09375 0.15625q-0.09375 0.15625-0.15625 0.34375l-0.0625 0.1875 0.1875-0.5625-0.25 0.75h-1l0.125-0.375" fill="#c7c7c6"/>
   <path d="m5.125 7.625q0.125-0.375 0.375-0.625l0.25-0.25 0.53125 0.53125 0.09375-0.15625-0.09375 0.15625q-0.09375 0.15625-0.15625 0.34375l-0.0625 0.1875 0.1875-0.5625-0.25 0.75h-1l0.125-0.375m0.6875-0.9375-0.4375 0.4375 0.125-0.125q0.125-0.125 0.25-0.25l0.125-0.125-0.0625 0.0625" fill="#d2d2d2"/>
  </g>
  <path d="m6.125 7.625q0.125-0.375 0.375-0.625l0.25-0.25-0.375 0.375 0.125-0.125q0.125-0.125 0.21875-0.28125l0.09375-0.15625-0.09375 0.15625 0.59375 0.59375 0.125-0.125-0.125 0.125q-0.125 0.125-0.1875 0.3125l-0.0625 0.1875 0.1875-0.5625-0.25 0.75h-1l0.125-0.375" fill="#2d2d2d" fill-opacity=".52941"/>
  <path d="m7.125 7.625q0.125-0.375 0.5-0.5t0.75 0 0.5 0.5l0.125 0.375-0.125 0.375q-0.125 0.375-0.5 0.5t-0.75 0-0.5-0.5l-0.125-0.375 0.125-0.375" fill-opacity="0"/>
  <path d="m8.875 7.625-0.125-0.375 0.1875 0.5625-0.0625-0.1875q-0.0625-0.1875-0.1875-0.3125l-0.125-0.125 0.125 0.125 0.59375-0.59375-0.09375-0.15625 0.09375 0.15625q0.09375 0.15625 0.21875 0.28125l0.125 0.125-0.375-0.375 0.25 0.25q0.25 0.25 0.375 0.625l0.125 0.375h-1l-0.125-0.375" fill="#2d2d2d" fill-opacity=".52941"/>
  <g>
   <path d="m9.875 7.625-0.125-0.375 0.1875 0.5625-0.0625-0.1875q-0.0625-0.1875-0.15625-0.34375l-0.09375-0.15625 0.09375 0.15625 0.53125-0.53125 0.25 0.25q0.25 0.25 0.375 0.625l0.125 0.375h-1l-0.125-0.375m0.5625-0.6875-0.3125-0.3125 0.125 0.125q0.125 0.125 0.25 0.25l0.125 0.125-0.1875-0.1875" fill="#d2d2d2"/>
   <path d="m10.875 7.625-0.125-0.375 0.1875 0.5625-0.0625-0.1875q-0.0625-0.1875-0.15625-0.34375l-0.09375-0.15625 0.09375 0.15625 0.59375-0.53125-0.0625-0.125 0.0625 0.125q0.0625 0.125 0.1875 0.25l0.125 0.125-0.375-0.375 0.25 0.25q0.25 0.25 0.375 0.625l0.125 0.375h-1l-0.125-0.375" fill="#c7c7c6"/>
   <path d="m11.875 7.625-0.125-0.375 0.1875 0.5625-0.0625-0.1875q-0.0625-0.1875-0.15625-0.34375l-0.09375-0.15625 0.09375 0.15625 0.59375-0.59375-0.125-0.125 0.125 0.125q0.125 0.125 0.3125 0.1875l0.1875 0.0625-0.5625-0.1875 0.75 0.25v1h-1l-0.125-0.375" fill="#bfbfbe"/>
   <path d="m13 7.5v-0.5l0.375 0.125q0.375 0.125 0.5 0.5l0.125 0.375h-1v-0.5" fill="#cccccb"/>
  </g>
  <path d="m13.875 7.625-0.125-0.375 0.1875 0.5625-0.0625-0.1875q-0.0625-0.1875-0.1875-0.3125l-0.125-0.125 0.125 0.125 0.59375-0.59375-0.15625-0.09375 0.15625 0.09375q0.15625 0.09375 0.34375 0.15625l0.1875 0.0625-0.5625-0.1875 0.75 0.25-0.125 0.375q-0.125 0.375-0.5 0.5l-0.375 0.125-0.125-0.375" fill="#323232" fill-opacity=".46275"/>
  <path d="m0.875 8.625q-0.125-0.375 0.15625-0.65625l0.28125-0.28125-0.125-0.125 0.125 0.125q0.125 0.125 0.3125 0.1875l0.1875 0.0625-0.5625-0.1875 0.75 0.25 0.25 0.75-0.1875-0.5625 0.0625 0.1875q0.0625 0.1875 0.1875 0.3125l0.125 0.125-0.125-0.125-0.625 0.625 0.125 0.125-0.125-0.125q-0.125-0.125-0.3125-0.1875l-0.1875-0.0625 0.5625 0.1875-0.75-0.25-0.125-0.375" fill="#2a2a2a" fill-opacity=".47451"/>
  <g>
   <path d="m2.125 8.375-0.125-0.375h1v1l-0.375-0.125q-0.375-0.125-0.5-0.5" fill="#c4c4c4"/>
   <path d="m3 8.5v-0.5h1l0.25 0.75-0.1875-0.5625 0.0625 0.1875q0.0625 0.1875 0.15625 0.34375l0.09375 0.15625-0.09375-0.15625-0.59375 0.59375 0.125 0.125-0.125-0.125q-0.125-0.125-0.3125-0.1875l-0.1875-0.0625 0.5625 0.1875-0.75-0.25v-0.5" fill="#bbb"/>
   <path d="m4.125 8.375-0.125-0.375h1l0.25 0.75-0.1875-0.5625 0.0625 0.1875q0.0625 0.1875 0.15625 0.34375l0.09375 0.15625-0.09375-0.15625-0.59375 0.53125 0.0625 0.125-0.0625-0.125q-0.0625-0.125-0.1875-0.25l-0.125-0.125 0.375 0.375-0.25-0.25q-0.25-0.25-0.375-0.625" fill="#c4c4c4"/>
   <path d="m5.125 8.375-0.125-0.375h1l0.25 0.75-0.1875-0.5625 0.0625 0.1875q0.0625 0.1875 0.15625 0.34375l0.09375 0.15625-0.09375-0.15625-0.5625 0.5625 0.09375 0.15625-0.09375-0.15625q-0.09375-0.15625-0.21875-0.28125l-0.125-0.125 0.375 0.375-0.25-0.25q-0.25-0.25-0.375-0.625" fill="#d3d3d6"/>
  </g>
  <path d="m6.125 8.375-0.125-0.375h1l0.25 0.75-0.1875-0.5625 0.0625 0.1875q0.0625 0.1875 0.1875 0.3125l0.125 0.125-0.125-0.125-0.59375 0.59375 0.09375 0.15625-0.09375-0.15625q-0.09375-0.15625-0.21875-0.28125l-0.125-0.125 0.375 0.375-0.25-0.25q-0.25-0.25-0.375-0.625" fill="#2f2f31" fill-opacity=".5098"/>
  <path d="m8.875 8.375 0.125-0.375h1l-0.125 0.375q-0.125 0.375-0.375 0.625l-0.25 0.25 0.375-0.375-0.125 0.125q-0.125 0.125-0.21875 0.28125l-0.09375 0.15625 0.09375-0.15625-0.59375-0.59375-0.125 0.125 0.125-0.125q0.125-0.125 0.1875-0.3125l0.0625-0.1875-0.1875 0.5625 0.125-0.375" fill="#2f2f31" fill-opacity=".5098"/>
  <g>
   <path d="m9.875 8.375 0.125-0.375h1l-0.125 0.375q-0.125 0.375-0.375 0.625l-0.25 0.25 0.375-0.375-0.125 0.125q-0.125 0.125-0.21875 0.28125l-0.09375 0.15625 0.09375-0.15625-0.5625-0.5625-0.09375 0.15625 0.09375-0.15625q0.09375-0.15625 0.15625-0.34375l0.0625-0.1875-0.1875 0.5625 0.125-0.375" fill="#d3d3d6"/>
   <path d="m10.875 8.375 0.125-0.375h1l-0.125 0.375q-0.125 0.375-0.375 0.625l-0.25 0.25 0.375-0.375-0.125 0.125q-0.125 0.125-0.1875 0.25l-0.0625 0.125 0.0625-0.125-0.59375-0.53125-0.09375 0.15625 0.09375-0.15625q0.09375-0.15625 0.15625-0.34375l0.0625-0.1875-0.1875 0.5625 0.125-0.375" fill="#c4c4c4"/>
   <path d="m11.875 8.375 0.125-0.375h1v1l-0.75 0.25 0.5625-0.1875-0.1875 0.0625q-0.1875 0.0625-0.3125 0.1875l-0.125 0.125 0.125-0.125-0.59375-0.59375-0.09375 0.15625 0.09375-0.15625q0.09375-0.15625 0.15625-0.34375l0.0625-0.1875-0.1875 0.5625 0.125-0.375" fill="#bbb"/>
   <path d="m13 8.5v-0.5h1l-0.125 0.375q-0.125 0.375-0.5 0.5l-0.375 0.125v-0.5" fill="#c4c4c4"/>
  </g>
  <path d="m13.875 8.375 0.125-0.375 0.75-0.25-0.5625 0.1875 0.1875-0.0625q0.1875-0.0625 0.3125-0.1875l0.125-0.125-0.125 0.125 0.28125 0.28125q0.28125 0.28125 0.15625 0.65625l-0.125 0.375-0.75 0.25 0.5625-0.1875-0.1875 0.0625q-0.1875 0.0625-0.3125 0.1875l-0.125 0.125 0.125-0.125-0.625-0.625-0.125 0.125 0.125-0.125q0.125-0.125 0.1875-0.3125l0.0625-0.1875-0.1875 0.5625 0.125-0.375" fill="#2a2a2a" fill-opacity=".47451"/>
  <path d="M 1,9.5 V 9 l 0.375,0.125 q 0.375,0.125 0.5,0.5 L 2,10 H 1.5 Q 1,10 1,9.5" fill="#252525" fill-opacity=".27059"/>
  <path d="m1.875 9.625-0.125-0.375 0.1875 0.5625-0.0625-0.1875q-0.0625-0.1875-0.1875-0.3125l-0.125-0.125 0.125 0.125 0.625-0.625-0.125-0.125 0.125 0.125q0.125 0.125 0.3125 0.1875l0.1875 0.0625-0.5625-0.1875 1.125 0.375q0.375 0.125 0.5 0.5l0.125 0.375-0.1875-0.5625 0.0625 0.1875q0.0625 0.1875 0.0625 0.375v0.1875-0.1875h-1.9375l-0.125-0.375" fill="#252525" fill-opacity=".48627"/>
  <path d="m3.875 9.625-0.125-0.375 0.1875 0.5625-0.0625-0.1875q-0.0625-0.1875-0.1875-0.3125l-0.125-0.125 0.125 0.125 0.59375-0.59375-0.09375-0.15625 0.09375 0.15625q0.09375 0.15625 0.21875 0.28125l0.125 0.125-0.375-0.375 0.25 0.25q0.25 0.25 0.25 0.5t-0.40625 0.375l-0.40625 0.125v0.1875-0.1875q0-0.1875-0.0625-0.375l-0.0625-0.1875 0.1875 0.5625-0.125-0.375" fill="#949494" fill-opacity=".87451"/>
  <path d="m4.75 9.5v-0.25 0.375-0.125q0-0.125-0.0625-0.25l-0.0625-0.125 0.0625 0.125 0.59375-0.53125-0.09375-0.15625 0.09375 0.15625q0.09375 0.15625 0.21875 0.28125l0.125 0.125-0.375-0.375 0.25 0.25q0.25 0.25 0.375 0.625l0.125 0.375-0.75 0.25 0.5625-0.1875-0.1875 0.0625q-0.1875 0.0625-0.3125 0.1875l-0.125 0.125 0.125-0.125-0.65625-0.59375-0.09375 0.09375 0.09375-0.09375q0.09375-0.09375 0.09375-0.21875v-0.125 0.375-0.25" fill="#cfcfd4"/>
  <path d="m5.875 9.625-0.125-0.375 0.1875 0.5625-0.0625-0.1875q-0.0625-0.1875-0.15625-0.34375l-0.09375-0.15625 0.09375 0.15625 0.5625-0.5625-0.09375-0.15625 0.09375 0.15625q0.09375 0.15625 0.21875 0.28125l0.125 0.125-0.375-0.375 0.25 0.25q0.25 0.25 0.375 0.625l0.125 0.375-0.1875-0.5625 0.0625 0.1875q0.0625 0.1875 0.21875 0.28125l0.15625 0.09375-0.15625-0.09375-1.0938 0.09375-0.125-0.375" fill="#b1b1bc" fill-opacity=".81176"/>
  <path d="m6.875 9.625-0.125-0.375 0.1875 0.5625-0.0625-0.1875q-0.0625-0.1875-0.15625-0.34375l-0.09375-0.15625 0.09375 0.15625 0.59375-0.59375-0.125-0.125 0.125 0.125q0.125 0.125 0.3125 0.1875l0.1875 0.0625-0.5625-0.1875 0.375 0.125q0.375 0.125 0.75 0l0.375-0.125-0.5625 0.1875 0.1875-0.0625q0.1875-0.0625 0.3125-0.1875l0.125-0.125-0.125 0.125 0.59375 0.59375 0.09375-0.15625-0.09375 0.15625q-0.09375 0.15625-0.15625 0.34375l-0.0625 0.1875 0.1875-0.5625-0.125 0.375q-0.125 0.375-0.625 0.375t-1 0-0.625-0.375" fill="#333335" fill-opacity=".4902"/>
  <path d="m9.125 9.625q0.125-0.375 0.375-0.625l0.25-0.25-0.375 0.375 0.125-0.125q0.125-0.125 0.21875-0.28125l0.09375-0.15625-0.09375 0.15625 0.5625 0.5625 0.09375-0.15625-0.09375 0.15625q-0.09375 0.15625-0.15625 0.34375l-0.0625 0.1875 0.1875-0.5625-0.25 0.75-1.0938-0.09375-0.15625 0.09375 0.15625-0.09375q0.15625-0.09375 0.21875-0.28125l0.0625-0.1875-0.1875 0.5625 0.125-0.375" fill="#b1b1bc" fill-opacity=".81176"/>
  <path d="m10.125 9.625q0.125-0.375 0.375-0.625l0.25-0.25-0.375 0.375 0.125-0.125q0.125-0.125 0.21875-0.28125l0.09375-0.15625-0.09375 0.15625 0.59375 0.53125 0.0625-0.125-0.0625 0.125q-0.0625 0.125-0.0625 0.25v0.125-0.375 0.5-0.375 0.125q0 0.125 0.09375 0.21875l0.09375 0.09375-0.09375-0.09375-0.65625 0.59375 0.125 0.125-0.125-0.125q-0.125-0.125-0.3125-0.1875l-0.1875-0.0625 0.5625 0.1875-0.75-0.25 0.125-0.375" fill="#cfcfd4"/>
  <path d="m11.25 9.5q0-0.25 0.25-0.5l0.25-0.25-0.375 0.375 0.125-0.125q0.125-0.125 0.21875-0.28125l0.09375-0.15625-0.09375 0.15625 0.59375 0.59375 0.125-0.125-0.125 0.125q-0.125 0.125-0.1875 0.3125l-0.0625 0.1875 0.1875-0.5625-0.25 0.75 0.1875-0.5625-0.0625 0.1875q-0.0625 0.1875-0.0625 0.375v0.1875-0.1875l-0.40625-0.125q-0.40625-0.125-0.40625-0.375" fill="#949494" fill-opacity=".87451"/>
  <path d="m12.125 9.625q0.125-0.375 0.5-0.5l1.125-0.375-0.5625 0.1875 0.1875-0.0625q0.1875-0.0625 0.3125-0.1875l0.125-0.125-0.125 0.125 0.625 0.625 0.125-0.125-0.125 0.125q-0.125 0.125-0.1875 0.3125l-0.0625 0.1875 0.1875-0.5625-0.25 0.75h-1.9375v0.1875-0.1875q0-0.1875 0.0625-0.375l0.0625-0.1875-0.1875 0.5625 0.125-0.375" fill="#252525" fill-opacity=".48627"/>
  <path d="m14.125 9.625q0.125-0.375 0.5-0.5l0.375-0.125v0.5q0 0.5-0.5 0.5h-0.5l0.125-0.375" fill="#252525" fill-opacity=".27059"/>
  <path d="m2 10.5v-0.5h1l-0.125 0.375q-0.125 0.375-0.5 0.5l-0.375 0.125v-0.5" fill="#202020" fill-opacity=".12549"/>
  <path d="m2.875 10.375 0.125-0.375h0.9375v-0.1875 0.1875q0 0.1875-0.0625 0.375l-0.0625 0.1875 0.1875-0.5625-0.125 0.375q-0.125 0.375-0.375 0.625l-0.25 0.25 0.375-0.375-0.125 0.125q-0.125 0.125-0.1875 0.25l-0.0625 0.125 0.0625-0.125-0.625-0.5625-0.125 0.125 0.125-0.125q0.125-0.125 0.1875-0.3125l0.0625-0.1875-0.1875 0.5625 0.125-0.375" fill="#313133" fill-opacity=".54902"/>
  <g>
   <path d="m3.875 10.375 0.125-0.375-0.1875 0.5625 0.0625-0.1875q0.0625-0.1875 0.0625-0.375v-0.1875 0.1875l0.8125-0.25-0.5625 0.1875 0.1875-0.0625q0.1875-0.0625 0.28125-0.15625l0.09375-0.09375-0.09375 0.09375 0.65625 0.59375 0.125-0.125-0.125 0.125q-0.125 0.125-0.1875 0.3125l-0.0625 0.1875 0.1875-0.5625-0.25 0.75-0.75 0.25 0.5625-0.1875-0.1875 0.0625q-0.1875 0.0625-0.28125 0.15625l-0.09375 0.09375 0.09375-0.09375-0.625-0.5625-0.09375 0.15625 0.09375-0.15625q0.09375-0.15625 0.15625-0.34375l0.0625-0.1875-0.1875 0.5625 0.125-0.375" fill="#c6c6cc"/>
   <path d="m5.125 10.625q0.125-0.375 0.5-0.5l0.375-0.125 0.25 0.75-0.1875-0.5625 0.0625 0.1875q0.0625 0.1875 0.15625 0.34375l0.09375 0.15625-0.09375-0.15625-0.59375 0.59375 0.125 0.125-0.125-0.125q-0.125-0.125-0.3125-0.1875l-0.1875-0.0625 0.5625 0.1875-0.75-0.25 0.125-0.375" fill="#bdbdc3"/>
   <path d="m6.125 10.375-0.125-0.375 1.0938-0.09375 0.15625 0.84375-0.1875-0.5625 0.0625 0.1875q0.0625 0.1875 0.1875 0.3125l0.125 0.125-0.125-0.125-0.59375 0.59375 0.09375 0.15625-0.09375-0.15625q-0.09375-0.15625-0.21875-0.28125l-0.125-0.125 0.375 0.375-0.25-0.25q-0.25-0.25-0.375-0.625" fill="#d9d9e4"/>
   <path d="m7.1719 10.328-0.078125-0.42188-0.15625-0.09375 0.15625 0.09375q0.15625 0.09375 0.40625 0.09375h0.25-0.75 0.5q0.5 0 1 0h0.5-0.75 0.25q0.25 0 0.40625-0.09375l0.15625-0.09375-0.15625 0.09375-0.078125 0.42188q-0.078125 0.42188-0.45312 0.54688t-0.75 0-0.45312-0.54688" fill="#e8e8f7"/>
   <path d="m8.8281 10.328 0.078125-0.42188 1.0938 0.09375-0.125 0.375q-0.125 0.375-0.375 0.625l-0.25 0.25 0.375-0.375-0.125 0.125q-0.125 0.125-0.21875 0.28125l-0.09375 0.15625 0.09375-0.15625-0.59375-0.59375-0.125 0.125 0.125-0.125q0.125-0.125 0.1875-0.3125l0.0625-0.1875-0.1875 0.5625 0.078125-0.42188" fill="#d9d9e4"/>
   <path d="m9.875 10.375 0.125-0.375 0.375 0.125q0.375 0.125 0.5 0.5l0.125 0.375-0.75 0.25 0.5625-0.1875-0.1875 0.0625q-0.1875 0.0625-0.3125 0.1875l-0.125 0.125 0.125-0.125-0.59375-0.59375-0.09375 0.15625 0.09375-0.15625q0.09375-0.15625 0.15625-0.34375l0.0625-0.1875-0.1875 0.5625 0.125-0.375" fill="#bdbdc3"/>
   <path d="m10.875 10.625-0.125-0.375 0.1875 0.5625-0.0625-0.1875q-0.0625-0.1875-0.1875-0.3125l-0.125-0.125 0.125 0.125 0.65625-0.59375-0.09375-0.09375 0.09375 0.09375q0.09375 0.09375 0.28125 0.15625l0.1875 0.0625-0.5625-0.1875 0.8125 0.25v-0.1875 0.1875q0 0.1875 0.0625 0.375l0.0625 0.1875-0.1875-0.5625 0.25 0.75-0.1875-0.5625 0.0625 0.1875q0.0625 0.1875 0.15625 0.34375l0.09375 0.15625-0.09375-0.15625-0.625 0.5625 0.09375 0.09375-0.09375-0.09375q-0.09375-0.09375-0.28125-0.15625l-0.1875-0.0625 0.5625 0.1875-0.75-0.25-0.125-0.375" fill="#c6c6cc"/>
  </g>
  <path d="m12.125 10.375-0.125-0.375 0.1875 0.5625-0.0625-0.1875q-0.0625-0.1875-0.0625-0.375v-0.1875 0.1875h0.9375l0.25 0.75-0.1875-0.5625 0.0625 0.1875q0.0625 0.1875 0.1875 0.3125l0.125 0.125-0.125-0.125-0.625 0.5625 0.0625 0.125-0.0625-0.125q-0.0625-0.125-0.1875-0.25l-0.125-0.125 0.375 0.375-0.25-0.25q-0.25-0.25-0.375-0.625" fill="#313133" fill-opacity=".54902"/>
  <path d="m13.125 10.375-0.125-0.375h1v1l-0.375-0.125q-0.375-0.125-0.5-0.5" fill="#202020" fill-opacity=".12549"/>
  <path d="m2 11.5v-0.5l0.75-0.25-0.5625 0.1875 0.1875-0.0625q0.1875-0.0625 0.3125-0.1875l0.125-0.125-0.125 0.125 0.625 0.5625 0.0625-0.125-0.0625 0.125q-0.0625 0.125-0.0625 0.25v0.125-0.375 0.5-0.375 0.125q0 0.125 0.0625 0.25l0.0625 0.125-0.0625-0.125-0.59375 0.53125 0.15625 0.09375-0.15625-0.09375q-0.15625-0.09375-0.34375-0.15625l-0.1875-0.0625 0.5625 0.1875-0.75-0.25v-0.5" fill="#161616" fill-opacity=".5098"/>
  <g>
   <path d="m3.25 11.5q0-0.25 0.25-0.5l0.25-0.25-0.375 0.375 0.125-0.125q0.125-0.125 0.21875-0.28125l0.09375-0.15625-0.09375 0.15625 0.625 0.5625 0.09375-0.09375-0.09375 0.09375q-0.09375 0.09375-0.09375 0.21875v0.125-0.375 0.5-0.375 0.125q0 0.125 0.0625 0.1875l0.0625 0.0625-0.0625-0.0625-0.59375 0.59375 0.09375 0.15625-0.09375-0.15625q-0.09375-0.15625-0.21875-0.28125l-0.125-0.125 0.375 0.375-0.25-0.25q-0.25-0.25-0.25-0.5" fill="#c6c6d0"/>
   <path d="m4.25 11.5q0-0.25 0.375-0.375l0.375-0.125-0.125 0.375q-0.125 0.375-0.375 0.375t-0.25-0.25" fill="#b1b1ba"/>
   <path d="m4.875 11.375 0.125-0.375 0.375 0.125q0.375 0.125 0.5 0.5l0.125 0.375-0.75 0.25 0.5625-0.1875-0.1875 0.0625q-0.1875 0.0625-0.34375 0.15625l-0.15625 0.09375 0.15625-0.09375-0.5625-0.625-0.09375 0.09375 0.09375-0.09375q0.09375-0.09375 0.15625-0.28125l0.0625-0.1875-0.1875 0.5625 0.125-0.375" fill="#c2c2cc"/>
  </g>
  <path d="m5.875 11.625-0.125-0.375 0.1875 0.5625-0.0625-0.1875q-0.0625-0.1875-0.1875-0.3125l-0.125-0.125 0.125 0.125 0.59375-0.59375-0.09375-0.15625 0.09375 0.15625q0.09375 0.15625 0.21875 0.28125l0.125 0.125-0.375-0.375 0.25 0.25q0.25 0.25 0.3125 0.6875l0.0625 0.4375 0.125 0.125-0.125-0.125q-0.125-0.125-0.375-0.125h-0.25 0.75-1l-0.125-0.375" fill="#94949b" fill-opacity=".87843"/>
  <path d="m6.8125 11.688-0.0625-0.4375 0.1875 0.5625-0.0625-0.1875q-0.0625-0.1875-0.15625-0.34375l-0.09375-0.15625 0.09375 0.15625 0.59375-0.59375-0.125-0.125 0.125 0.125q0.125 0.125 0.3125 0.1875l0.1875 0.0625-0.5625-0.1875 0.375 0.125q0.375 0.125 0.75 0l0.375-0.125-0.5625 0.1875 0.1875-0.0625q0.1875-0.0625 0.3125-0.1875l0.125-0.125-0.125 0.125 0.59375 0.59375 0.09375-0.15625-0.09375 0.15625q-0.09375 0.15625-0.15625 0.34375l-0.0625 0.1875 0.1875-0.5625-0.125 0.875-0.5625-0.0625q-0.5625-0.0625-1.125 0l-0.5625 0.0625-0.0625-0.4375" fill="#cacad4"/>
  <path d="m9.1875 11.688q0.0625-0.4375 0.3125-0.6875l0.25-0.25-0.375 0.375 0.125-0.125q0.125-0.125 0.21875-0.28125l0.09375-0.15625-0.09375 0.15625 0.59375 0.59375 0.125-0.125-0.125 0.125q-0.125 0.125-0.1875 0.3125l-0.0625 0.1875 0.1875-0.5625-0.25 0.75h-1 0.75-0.25q-0.25 0-0.375 0.125l-0.125 0.125 0.125-0.125 0.0625-0.4375" fill="#94949b" fill-opacity=".87843"/>
  <g>
   <path d="m10.125 11.625q0.125-0.375 0.5-0.5l0.375-0.125 0.25 0.75-0.1875-0.5625 0.0625 0.1875q0.0625 0.1875 0.15625 0.28125l0.09375 0.09375-0.09375-0.09375-0.5625 0.625 0.07813 0.04687 0.07812 0.04688-0.15625-0.09375q-0.15625-0.09375-0.34375-0.15625l-0.1875-0.0625 0.5625 0.1875-0.75-0.25 0.125-0.375" fill="#c2c2cc"/>
   <path d="m11.125 11.375-0.125-0.375 0.375 0.125q0.375 0.125 0.375 0.375t-0.25 0.25-0.375-0.375" fill="#b1b1ba"/>
   <path d="m11.75 11.5v-0.25 0.375-0.125q0-0.125-0.09375-0.21875l-0.09375-0.09375 0.09374 0.09374 0.625-0.5625-0.09374-0.15626 0.09375 0.15625q0.09375 0.15627 0.21875 0.28127l0.125 0.125-0.375-0.375 0.25 0.25q0.25 0.25 0.25 0.5t-0.25 0.5l-0.25 0.25 0.375-0.375-0.125 0.125q-0.125 0.125-0.21875 0.28125l-0.09375 0.15625 0.09374-0.15626-0.59374-0.59374-0.0625 0.0625 0.0625-0.0625q0.0625-0.0625 0.0625-0.1875v-0.125 0.375-0.25" fill="#c6c6d0"/>
  </g>
  <path d="m12.75 11.5v-0.25 0.375-0.125q0-0.125-0.0625-0.25l-0.0625-0.125 0.0625 0.125 0.625-0.5625-0.125-0.125 0.125 0.125q0.125 0.125 0.3125 0.1875l0.1875 0.0625-0.5625-0.1875 0.75 0.25v1l-0.75 0.25 0.5625-0.1875-0.1875 0.0625q-0.1875 0.0625-0.34375 0.15625l-0.15625 0.09375 0.15625-0.09375-0.59375-0.53125-0.0625 0.125 0.0625-0.125q0.0625-0.125 0.0625-0.25v-0.125 0.375-0.25" fill="#161616" fill-opacity=".5098"/>
  <path d="m2 12.5v-0.5l0.375 0.125q0.375 0.125 0.625 0.375l0.25 0.25-0.375-0.375 0.125 0.125q0.125 0.125 0.28125 0.21875l0.15625 0.09375-0.15625-0.09375-0.59375 0.59375 0.125 0.125-0.125-0.125q-0.125-0.125-0.3125-0.1875l-0.1875-0.0625 0.5625 0.1875-0.375-0.125q-0.375-0.125-0.375-0.625" fill="#111" fill-opacity=".28627"/>
  <path d="m3 12.5-0.25-0.25 0.375 0.375-0.125-0.125q-0.125-0.125-0.28125-0.21875l-0.15625-0.09375 0.15625 0.09375 0.59375-0.53125-0.0625-0.125 0.0625 0.125q0.0625 0.125 0.1875 0.25l0.125 0.125-0.375-0.375 0.25 0.25q0.25 0.25 0.375 0.625l0.125 0.375-0.1875-0.5625 0.0625 0.1875q0.0625 0.1875 0.21875 0.28125l0.15625 0.09375-0.15625-0.09375-0.42188-0.078125q-0.42188-0.078125-0.67188-0.32812" fill="#414144" fill-opacity=".64314"/>
  <path d="m3.875 12.625-0.125-0.375 0.1875 0.5625-0.0625-0.1875q-0.0625-0.1875-0.15625-0.34375l-0.09375-0.15625 0.09375 0.15625 0.59375-0.59375-0.0625-0.0625 0.0625 0.0625q0.0625 0.0625 0.1875 0.0625h0.125-0.375 0.5-0.375 0.125q0.125 0 0.21875-0.09375l0.09375-0.09375-0.09375 0.09375 0.5625 0.625 0.15625-0.09375-0.15625 0.09375q-0.15625 0.09375-0.28125 0.21875l-0.125 0.125 0.375-0.375-0.25 0.25q-0.25 0.25-0.625 0.375t-0.5-0.25" fill="#cbcbd8"/>
  <path d="m5 12.5q0.25-0.25 0.625-0.375l0.375-0.125v1l-0.75 0.25 0.5625-0.1875-0.1875 0.0625q-0.1875 0.0625-0.3125 0.1875l-0.125 0.125 0.125-0.125-0.59375-0.59375-0.15625 0.09375 0.15625-0.09375q0.15625-0.09375 0.28125-0.21875l0.125-0.125-0.375 0.375 0.25-0.25" fill="#272728" fill-opacity=".56863"/>
  <path d="m6 12.5v-0.5h0.5q0.5 0 0.5 0.5v0.5h-1v-0.5" fill="#0f0f0f" fill-opacity=".52157"/>
  <path d="m7 12.5v-0.5 0.75-0.25q0-0.25-0.125-0.375l-0.125-0.125 0.125 0.125 0.5625-0.0625q0.5625-0.0625 1.125 0l0.5625 0.0625 0.125-0.125-0.125 0.125q-0.125 0.125-0.125 0.375v0.25-0.75 1h-2v-0.5" fill="#c6c6d3"/>
  <path d="m9 12.5q0-0.5 0.5-0.5h0.5v1h-1v-0.5" fill="#0f0f0f" fill-opacity=".52157"/>
  <path d="m10 12.5v-0.5l0.375 0.125q0.375 0.125 0.625 0.375l0.25 0.25-0.375-0.375 0.125 0.125q0.125 0.125 0.28125 0.21875l0.15625 0.09375-0.15626-0.09374-0.59375 0.59375 0.125 0.125-0.125-0.125q-0.12499-0.12501-0.31249-0.18751l-0.1875-0.0625 0.5625 0.1875-0.75-0.25v-0.5" fill="#272728" fill-opacity=".56863"/>
  <path d="m11 12.5-0.25-0.25 0.375 0.375-0.125-0.125q-0.125-0.125-0.28125-0.21875l-0.15625-0.09375 0.15626 0.09374 0.5625-0.625-0.09374-0.09374 0.09375 0.09375q0.09373 0.09375 0.21873 0.09375h0.125-0.375 0.5-0.375 0.125q0.125 0 0.1875-0.0625l0.0625-0.0625-0.0625 0.0625 0.59375 0.59375 0.04687-0.07813 0.04688-0.07812-0.09375 0.15625q-0.09375 0.15625-0.15625 0.34375l-0.0625 0.1875 0.1875-0.5625-0.125 0.375q-0.125 0.375-0.5 0.25t-0.625-0.375" fill="#cbcbd8"/>
  <path d="m12.125 12.625q0.125-0.375 0.375-0.625l0.25-0.25-0.375 0.375 0.125-0.125q0.125-0.125 0.1875-0.25l0.0625-0.125-0.0625 0.125 0.59375 0.53125 0.15626-0.09374-0.15625 0.09375q-0.15626 0.09374-0.28126 0.21874l-0.125 0.125 0.375-0.375-0.25 0.25q-0.25 0.25-0.67188 0.32812l-0.42188 0.07813-0.07813 0.04687-0.07812 0.046875 0.15625-0.09375q0.15625-0.09375 0.21875-0.28125l0.0625-0.1875-0.1875 0.5625 0.125-0.375" fill="#414144" fill-opacity=".64314"/>
  <path d="m13 12.5q0.25-0.25 0.625-0.375l0.375-0.125v0.5q0 0.5-0.375 0.625l-0.375 0.125 0.5625-0.1875-0.1875 0.0625q-0.1875 0.0625-0.3125 0.1875l-0.125 0.125 0.125-0.125-0.59375-0.59375-0.15626 0.09374 0.15625-0.09375q0.15626-0.09374 0.28126-0.21874l0.125-0.125-0.375 0.375 0.25-0.25" fill="#111" fill-opacity=".28627"/>
  <path d="m2.875 13.625-0.125-0.375 0.1875 0.5625-0.0625-0.1875q-0.0625-0.1875-0.1875-0.3125l-0.125-0.125 0.125 0.125 0.59375-0.59375-0.15625-0.09375 0.15625 0.09375q0.15625 0.09375 0.34375 0.15625l0.1875 0.0625-0.5625-0.1875 0.84375 0.15625-0.09375 1.0938h-1l-0.125-0.375" fill="#0a0a0a" fill-opacity=".2902"/>
  <path d="m4.0469 13.453 0.046875-0.54688-0.15625-0.09375 0.15625 0.09375q0.15625 0.09375 0.40625 0.09375h0.25-0.75l0.75-0.25-0.5625 0.1875 0.1875-0.0625q0.1875-0.0625 0.34375-0.15625l0.15625-0.09375-0.15625 0.09375 0.59375 0.59375 0.125-0.125-0.125 0.125q-0.125 0.125-0.1875 0.3125l-0.0625 0.1875 0.1875-0.5625-0.25 0.75h-1l0.046875-0.54688" fill="#0b0b0b" fill-opacity=".52941"/>
  <path d="m5.125 13.625q0.125-0.375 0.5-0.5l0.375-0.125v1h-1l0.125-0.375" fill="#080808" fill-opacity=".13333"/>
  <path d="m6 13.5v-0.5h1l0.25 0.75-0.1875-0.5625 0.0625 0.1875q0.0625 0.1875 0.1875 0.3125l0.125 0.125-0.125-0.125-0.625 0.625 0.125 0.125-0.125-0.125q-0.125-0.125-0.3125-0.1875l-0.1875-0.0625 0.5625 0.1875-0.75-0.25v-0.5" fill="#0b0b0b" fill-opacity=".52941"/>
  <path d="m7.125 13.375-0.125-0.375h1v1l-0.375-0.125q-0.375-0.125-0.5-0.5" fill="#d7d7e7"/>
  <path d="m8 13.5v-0.5h1l-0.125 0.375q-0.125 0.375-0.5 0.5l-0.375 0.125v-0.5" fill="#d3d3e2"/>
  <path d="m8.875 13.375 0.125-0.375h1v1l-0.75 0.25 0.5625-0.1875-0.1875 0.0625q-0.1875 0.0625-0.3125 0.1875l-0.125 0.125 0.125-0.125-0.625-0.625-0.125 0.125 0.125-0.125q0.125-0.125 0.1875-0.3125l0.0625-0.1875-0.1875 0.5625 0.125-0.375" fill="#0b0b0b" fill-opacity=".52941"/>
  <path d="m10 13.5v-0.5l0.375 0.125q0.375 0.125 0.5 0.5l0.125 0.375h-1v-0.5" fill="#080808" fill-opacity=".13333"/>
  <path d="m10.875 13.625-0.125-0.375 0.1875 0.5625-0.0625-0.1875q-0.0625-0.1875-0.1875-0.3125l-0.125-0.125 0.125 0.125 0.59375-0.59375-0.07813-0.04687-0.07812-0.04688 0.15625 0.09375q0.15625 0.09375 0.34375 0.15625l0.1875 0.0625-0.5625-0.1875 0.75 0.25h-0.75 0.25q0.25 0 0.40625-0.09375l0.15625-0.09375-0.15626 0.09374 0.04687 0.54688 0.04689 0.54688h-1l-0.125-0.375" fill="#0b0b0b" fill-opacity=".52941"/>
  <path d="m11.953 13.453-0.046875-0.54688 0.84375-0.15625-0.5625 0.1875 0.1875-0.0625q0.1875-0.0625 0.34375-0.15625l0.15625-0.09375-0.15626 0.09374 0.59375 0.59375 0.125-0.125-0.125 0.125q-0.125 0.125-0.1875 0.3125l-0.06249 0.18751 0.1875-0.5625-0.25 0.75h-1l-0.04687-0.54688" fill="#0a0a0a" fill-opacity=".2902"/>
  <g>
   <path d="m1 14.5q0-0.5 0.5-0.5h0.5v1h-1v-0.5" fill-opacity=".015686"/>
   <path d="m2 14.5v-0.5h1v1h-1v-0.5" fill-opacity=".090196"/>
   <path d="m3 14.5v-0.5h1v1h-1v-0.5" fill-opacity=".16863"/>
   <path d="m4 14.5v-0.5h2v1h-0.5q-0.5 0-1 0h-0.5v-0.5" fill-opacity=".2"/>
  </g>
  <path d="m6 14.5v-0.5l0.375 0.125q0.375 0.125 0.5 0.5l0.125 0.375h-1v-0.5" fill="#050505" fill-opacity=".37255"/>
  <path d="m6.875 14.625-0.125-0.375 0.1875 0.5625-0.0625-0.1875q-0.0625-0.1875-0.1875-0.3125l-0.125-0.125 0.125 0.125 0.625-0.625-0.125-0.125 0.125 0.125q0.125 0.125 0.3125 0.1875l0.1875 0.0625-0.5625-0.1875 0.75 0.25 0.75-0.25-0.5625 0.1875 0.1875-0.0625q0.1875-0.0625 0.3125-0.1875l0.125-0.125-0.125 0.125 0.625 0.625 0.125-0.125-0.125 0.125q-0.125 0.125-0.1875 0.3125l-0.0625 0.1875 0.1875-0.5625-0.25 0.75h-0.5q-0.5 0-1 0h-0.5l-0.125-0.375" fill="#070707" fill-opacity=".53725"/>
  <path d="m9.125 14.625q0.125-0.375 0.5-0.5l0.375-0.125v1h-1l0.125-0.375" fill="#050505" fill-opacity=".37255"/>
  <g>
   <path d="m10 14.5v-0.5h2v1h-0.5q-0.5 0-1 0h-0.5v-0.5" fill-opacity=".2"/>
   <path d="m12 14.5v-0.5h1v1h-1v-0.5" fill-opacity=".17647"/>
   <path d="m13 14.5v-0.5h1v1h-1v-0.5" fill-opacity=".094118"/>
   <path d="m14 14.5v-0.5h0.5q0.5 0 0.5 0.5v0.5h-1v-0.5" fill-opacity=".015686"/>
   <path d="m1 15.5v-0.5h1v1h-1v-0.5" fill-opacity=".0078431"/>
   <path d="m2 15.5v-0.5h1v1h-1v-0.5" fill-opacity=".047059"/>
   <path d="m3 15.5v-0.5h1v1h-1v-0.5" fill-opacity=".086275"/>
   <path d="m4 15.5v-0.5h0.5q0.5 0 1 0h2q0.5 0 1 0h2q0.5 0 1 0h0.5v1h-8v-0.5" fill-opacity=".10196"/>
   <path d="m12 15.5v-0.5h1v1h-1v-0.5" fill-opacity=".090196"/>
   <path d="m13 15.5v-0.5h1v1h-1v-0.5" fill-opacity=".047059"/>
   <path d="m14 15.5v-0.5h1v1h-1v-0.5" fill-opacity=".0078431"/>
  </g>
 </g>
</svg>
