<?xml version="1.0" encoding="UTF-8"?>
<!-- Created with Inkscape (http://www.inkscape.org/) -->
<svg id="SVGRoot" width="256px" height="256px" version="1.1" viewBox="0 0 256 256" xmlns="http://www.w3.org/2000/svg" xmlns:cc="http://creativecommons.org/ns#" xmlns:dc="http://purl.org/dc/elements/1.1/" xmlns:rdf="http://www.w3.org/1999/02/22-rdf-syntax-ns#">
 <metadata>
  <rdf:RDF>
   <cc:Work rdf:about="">
    <dc:format>image/svg+xml</dc:format>
    <dc:type rdf:resource="http://purl.org/dc/dcmitype/StillImage"/>
    <dc:title/>
   </cc:Work>
  </rdf:RDF>
 </metadata>
 <g>
  <g transform="matrix(15.719 0 0 15.719 2.5 2.5)" stroke-width=".063618">
   <path d="m0 0.5v-0.5h16v4h-1l-0.375-0.125q-0.375-0.125-0.5-0.5l-0.25-0.75q-0.125-0.375-0.5-0.5l-0.375-0.125h-1l-0.375 0.125q-0.375 0.125-0.5 0.5l-0.25 0.75q-0.125 0.375-0.5 0.5l-0.75 0.25q-0.375 0.125-0.5 0.5l-0.125 0.375 0.1875-0.5625-0.0625 0.1875q-0.0625 0.1875-0.0625 0.375v0.1875-0.1875h-0.53125q-0.53125 0-1.0312 0t-1 0-1 0-1 0h-1.5l-0.375 0.125q-0.375 0.125-0.5 0.5l-0.125 0.375v4l-0.125 0.375q-0.125 0.375-0.5 0.5l-0.375 0.125h-1v-10.5" fill-opacity="0"/>
   <path d="m 11.125,2.625 q 0.125,-0.375 0.5,-0.5 L 12,2 11.875,2.375 q -0.125,0.375 -0.5,0.5 L 11,3 11.125,2.625" fill="#535353" fill-opacity=".6"/>
   <path d="m11.875 2.375 0.125-0.375h1l0.25 0.75-0.1875-0.5625 0.0625 0.1875q0.0625 0.1875 0.1875 0.3125l0.125 0.125-0.125-0.125-0.59375 0.65625 0.09375 0.09375-0.09375-0.09375q-0.09375-0.09375-0.21875-0.09375h-0.125 0.375-0.5 0.375-0.125q-0.125 0-0.21875 0.09375l-0.09375 0.09375 0.09375-0.09375-0.59375-0.65625-0.125 0.125 0.125-0.125q0.125-0.125 0.1875-0.3125l0.0625-0.1875-0.1875 0.5625 0.125-0.375" fill="#545454" fill-opacity=".8"/>
   <path d="M 13.125,2.375 13,2 13.375,2.125 q 0.375,0.125 0.5,0.5 L 14,3 13.625,2.875 q -0.375,-0.125 -0.5,-0.5" fill="#535353" fill-opacity=".6"/>
   <path d="m10.875 3.375 0.125-0.375 0.75-0.25-0.5625 0.1875 0.1875-0.0625q0.1875-0.0625 0.3125-0.1875l0.125-0.125-0.125 0.125 0.59375 0.65625 0.09375-0.09375-0.09375 0.09375q-0.09375 0.09375-0.15625 0.28125l-0.0625 0.1875 0.1875-0.5625-0.25 0.75-0.375 0.125q-0.375 0.125-0.65625-0.15625l-0.28125-0.28125-0.125 0.125 0.125-0.125q0.125-0.125 0.1875-0.3125l0.0625-0.1875-0.1875 0.5625 0.125-0.375" fill="#535353" fill-opacity=".8"/>
   <path d="m12.125 3.625q0.125-0.375 0.375-0.375t0.375 0.375l0.125 0.375h-1l0.125-0.375" fill="#a9a9a9"/>
   <path d="m12.875 3.625-0.125-0.375 0.1875 0.5625-0.0625-0.1875q-0.0625-0.1875-0.15625-0.28125l-0.09375-0.09375 0.09375 0.09375 0.59375-0.65625-0.125-0.125 0.125 0.125q0.125 0.125 0.3125 0.1875l0.1875 0.0625-0.5625-0.1875 0.75 0.25 0.25 0.75-0.1875-0.5625 0.0625 0.1875q0.0625 0.1875 0.1875 0.3125l0.125 0.125-0.125-0.125-0.28125 0.28125q-0.28125 0.28125-0.65625 0.15625l-0.375-0.125-0.125-0.375" fill="#535353" fill-opacity=".8"/>
   <path d="M 9.125,4.625 Q 9.25,4.25 9.625,4.125 L 10,4 9.875,4.375 Q 9.75,4.75 9.375,4.875 L 9,5 9.125,4.625" fill="#4e4e4e" fill-opacity=".6"/>
   <path d="m9.875 4.375 0.125-0.375 0.75-0.25-0.5625 0.1875 0.1875-0.0625q0.1875-0.0625 0.3125-0.1875l0.125-0.125-0.125 0.125 0.28125 0.28125q0.28125 0.28125 0.65625 0.15625l0.375-0.125-0.125 0.375q-0.125 0.375-0.5 0.5t-0.75 0.25l-0.375 0.125 0.5625-0.1875-0.1875 0.0625q-0.1875 0.0625-0.34375 0.15625l-0.15625 0.09375 0.15625-0.09375-0.59375-0.59375-0.125 0.125 0.125-0.125q0.125-0.125 0.1875-0.3125l0.0625-0.1875-0.1875 0.5625 0.125-0.375" fill="#4e4e4e" fill-opacity=".8"/>
   <path d="m11.875 4.375 0.125-0.375h1l0.25 0.75-0.1875-0.5625 0.0625 0.1875q0.0625 0.1875 0.1875 0.3125l0.125 0.125-0.125-0.125-0.28125 0.28125q-0.28125 0.28125-0.53125 0.28125t-0.53125-0.28125l-0.28125-0.28125-0.125 0.125 0.125-0.125q0.125-0.125 0.1875-0.3125l0.0625-0.1875-0.1875 0.5625 0.125-0.375" fill="#a0a0a0"/>
   <path d="m13.125 4.375-0.125-0.375 0.375 0.125q0.375 0.125 0.65625-0.15625l0.28125-0.28125-0.125-0.125 0.125 0.125q0.125 0.125 0.3125 0.1875l0.1875 0.0625-0.5625-0.1875 0.75 0.25 0.25 0.75-0.1875-0.5625 0.0625 0.1875q0.0625 0.1875 0.1875 0.3125l0.125 0.125-0.125-0.125-0.65625 0.59375 0.09375 0.09375-0.09375-0.09375q-0.09375-0.09375-0.28125-0.15625l-0.1875-0.0625 0.5625 0.1875-0.375-0.125q-0.375-0.125-0.75-0.25t-0.5-0.5" fill="#4e4e4e" fill-opacity=".8"/>
   <path d="m15.125 4.375-0.125-0.375h1v1l-0.375-0.125q-0.375-0.125-0.5-0.5" fill="#4e4e4e" fill-opacity=".6"/>
   <path d="M 2.125,5.625 Q 2.25,5.25 2.625,5.125 L 3,5 2.875,5.375 Q 2.75,5.75 2.375,5.875 L 2,6 2.125,5.625" fill="#808080" fill-opacity=".13333"/>
   <path d="m2.875 5.375 0.125-0.375h1v1l-0.75 0.25 0.5625-0.1875-0.1875 0.0625q-0.1875 0.0625-0.3125 0.1875l-0.125 0.125 0.125-0.125-0.625-0.625-0.125 0.125 0.125-0.125q0.125-0.125 0.1875-0.3125l0.0625-0.1875-0.1875 0.5625 0.125-0.375" fill="#7e7e7e" fill-opacity=".34902"/>
   <path d="m4 5.5v-0.5h0.5q0.5 0 1 0t1 0 1 0 1 0h0.5l0.25 0.75-0.1875-0.5625 0.0625 0.1875q0.0625 0.1875 0.15625 0.28125l0.09375 0.09375-0.09375-0.09375-0.5625 0.625 0.15625 0.09375-0.15625-0.09375q-0.15625-0.09375-0.34375-0.15625l-0.1875-0.0625 0.5625 0.1875-0.375-0.125q-0.375-0.125-0.875-0.125t-1 0-1 0-1 0h-0.5v-0.5" fill="#808080" fill-opacity=".4"/>
   <path d="m9.125 5.375-0.125-0.375 0.75-0.25-0.5625 0.1875 0.1875-0.0625q0.1875-0.0625 0.3125-0.1875l0.125-0.125-0.125 0.125 0.59375 0.59375 0.15625-0.09375-0.15625 0.09375q-0.15625 0.09375-0.28125 0.21875l-0.125 0.125 0.375-0.375-0.25 0.25q-0.25 0.25-0.5 0.25t-0.375-0.375" fill="#4f4f4f" fill-opacity=".87843"/>
   <path d="m10 5.5q0.25-0.25 0.625-0.375t0.75-0.25l0.375-0.125-0.5625 0.1875 0.1875-0.0625q0.1875-0.0625 0.3125-0.1875l0.125-0.125-0.125 0.125 0.28125 0.28125q0.28125 0.28125 0.53125 0.28125t0.53125-0.28125l0.28125-0.28125-0.125-0.125 0.125 0.125q0.125 0.125 0.3125 0.1875l0.1875 0.0625-0.5625-0.1875 0.375 0.125q0.375 0.125 0.75 0.25t0.375 0.375-0.375 0.375l-1.125 0.375 0.5625-0.1875-0.1875 0.0625q-0.1875 0.0625-0.3125 0.1875l-0.125 0.125 0.125-0.125-0.28125-0.28125q-0.28125-0.28125-0.65625-0.15625l-0.375 0.125h-0.5q-0.5 0-0.875 0.125l-0.375 0.125 0.5625-0.1875-0.1875 0.0625q-0.1875 0.0625-0.3125 0.1875l-0.125 0.125 0.125-0.125-0.5625-0.625-0.125 0.0625 0.125-0.0625q0.125-0.0625 0.25-0.1875l0.125-0.125-0.375 0.375 0.25-0.25" fill="#949494"/>
   <path d="m14.75 5.5v-0.25 0.375-0.125q0-0.125-0.09375-0.21875l-0.09375-0.09375 0.09375 0.09375 0.65625-0.59375-0.125-0.125 0.125 0.125q0.125 0.125 0.3125 0.1875l0.1875 0.0625-0.5625-0.1875 0.75 0.25v1l-0.75 0.25 0.5625-0.1875-0.1875 0.0625q-0.1875 0.0625-0.3125 0.1875l-0.125 0.125 0.125-0.125-0.65625-0.59375-0.09375 0.09375 0.09375-0.09375q0.09375-0.09375 0.09375-0.21875v-0.125 0.375-0.25" fill="#4a4a4a" fill-opacity=".8"/>
   <path d="m2 6.5v-0.5l0.75-0.25-0.5625 0.1875 0.1875-0.0625q0.1875-0.0625 0.3125-0.1875l0.125-0.125-0.125 0.125 0.625 0.625 0.125-0.125-0.125 0.125q-0.125 0.125-0.1875 0.3125l-0.0625 0.1875 0.1875-0.5625-0.25 0.75h-1v-0.5" fill="#7a7a7a" fill-opacity=".35294"/>
   <path d="m3.125 6.625q0.125-0.375 0.5-0.5l0.375-0.125v1h-1l0.125-0.375" fill="#e9e9e9" fill-opacity=".82745"/>
   <g>
    <path d="m4 6.5v-0.5h0.5q0.5 0 1 0t1 0 1 0 0.875 0.125 0.625 0.375l0.25 0.25-0.375-0.375 0.125 0.125q0.125 0.125 0.28125 0.21875l0.15625 0.09375-0.15625-0.09375-0.26562 0.26562q-0.26562 0.26562-0.64062 0.14062t-0.875-0.125-1 0-1 0-1 0h-0.5v-0.5" fill="#fff"/>
    <path d="m9 6.5-0.25-0.25 0.375 0.375-0.125-0.125q-0.125-0.125-0.28125-0.21875l-0.15625-0.09375 0.15625 0.09375 0.5625-0.625-0.09375-0.09375 0.09375 0.09375q0.09375 0.09375 0.21875 0.09375h0.125-0.375 0.5-0.375 0.125q0.125 0 0.25-0.0625l0.125-0.0625-0.125 0.0625 0.5625 0.625 0.125-0.125-0.125 0.125q-0.125 0.125-0.1875 0.3125l-0.0625 0.1875 0.1875-0.5625-0.25 0.75-0.375-0.125q-0.375-0.125-0.625-0.375" fill="#909090"/>
    <path d="m10.125 6.625q0.125-0.375 0.5-0.5t0.875-0.125h0.5v1l-0.375-0.125q-0.375-0.125-0.65625 0.15625l-0.28125 0.28125 0.125 0.125-0.125-0.125q-0.125-0.125-0.3125-0.1875l-0.1875-0.0625 0.5625 0.1875-0.75-0.25 0.125-0.375" fill="#6b6b6b"/>
    <path d="m12 6.5v-0.5l0.375-0.125q0.375-0.125 0.65625 0.15625l0.28125 0.28125 0.125-0.125-0.125 0.125q-0.125 0.125-0.1875 0.3125l-0.0625 0.1875 0.1875-0.5625-0.25 0.75h-1v-0.5" fill="#878787"/>
   </g>
   <path d="m 13.125,6.625 q 0.125,-0.375 0.5,-0.5 L 14,6 13.875,6.375 q -0.125,0.375 -0.5,0.5 L 13,7 13.125,6.625" fill="#4b4b4b" fill-opacity=".87451"/>
   <path d="m13.875 6.375 0.125-0.375 0.75-0.25-0.5625 0.1875 0.1875-0.0625q0.1875-0.0625 0.28125-0.15625l0.09375-0.09375-0.09375 0.09375 0.65625 0.59375 0.125-0.125-0.125 0.125q-0.125 0.125-0.1875 0.3125l-0.0625 0.1875 0.1875-0.5625-0.25 0.75-0.75 0.25 0.5625-0.1875-0.1875 0.0625q-0.1875 0.0625-0.3125 0.1875l-0.125 0.125 0.125-0.125-0.625-0.625-0.125 0.125 0.125-0.125q0.125-0.125 0.1875-0.3125l0.0625-0.1875-0.1875 0.5625 0.125-0.375" fill="#464646" fill-opacity=".8"/>
   <path d="m15.125 6.625q0.125-0.375 0.5-0.5l0.375-0.125v1h-1l0.125-0.375" fill="#464646" fill-opacity=".6"/>
   <path d="m2 7.5v-0.5h1v1h-1v-0.5" fill="#717171" fill-opacity=".40784"/>
   <g>
    <path d="m3 7.5v-0.5h1v1h-1v-0.5" fill="#fcfcfc"/>
    <path d="m4 7.5v-0.5h0.5q0.5 0 1 0t1 0 1 0 0.875 0.125 0.64062-0.14062l0.26562-0.26562-0.15625-0.09375 0.15625 0.09375q0.15625 0.09375 0.34375 0.15625l0.1875 0.0625-0.5625-0.1875 1.125 0.375q0.375 0.125 0.5 0.5l0.125 0.375h-0.5q-0.5 0-1 0t-1 0-1 0-1 0-1 0-1 0h-0.5v-0.5" fill="#fbfbfb"/>
    <path d="m10.875 7.625-0.125-0.375 0.1875 0.5625-0.0625-0.1875q-0.0625-0.1875-0.1875-0.3125l-0.125-0.125 0.125 0.125 0.28125-0.28125q0.28125-0.28125 0.65625-0.15625l0.375 0.125v1h-1l-0.125-0.375" fill="#666"/>
    <path d="m12 7.5v-0.5h1l-0.125 0.375q-0.125 0.375-0.5 0.5l-0.375 0.125v-0.5" fill="#7c7c7c"/>
   </g>
   <path d="m12.875 7.375 0.125-0.375 0.75-0.25-0.5625 0.1875 0.1875-0.0625q0.1875-0.0625 0.3125-0.1875l0.125-0.125-0.125 0.125 0.625 0.625 0.125-0.125-0.125 0.125q-0.125 0.125-0.1875 0.3125l-0.0625 0.1875 0.1875-0.5625-0.25 0.75-0.75 0.25 0.5625-0.1875-0.1875 0.0625q-0.1875 0.0625-0.28125 0.15625l-0.09375 0.09375 0.09375-0.09375-0.65625-0.59375-0.125 0.125 0.125-0.125q0.125-0.125 0.1875-0.3125l0.0625-0.1875-0.1875 0.5625 0.125-0.375" fill="#464646" fill-opacity=".88235"/>
   <path d="m14.125 7.625q0.125-0.375 0.5-0.5l0.375-0.125h1v4h-1l-0.375-0.125q-0.375-0.125-0.5-0.5l-0.125-0.375v-2l0.125-0.375" fill-opacity="0"/>
   <path d="m2 8.5v-0.5h1v1h-1v-0.5" fill="#6a6a6a" fill-opacity=".41569"/>
   <g>
    <path d="m3 8.5v-0.5h1v1h-1v-0.5" fill="#f8f8f8"/>
    <path d="m4 8.5v-0.5h0.5q0.5 0 1 0t1 0 1 0 1 0 1 0 1 0h0.5l0.25 0.75-0.1875-0.5625 0.0625 0.1875q0.0625 0.1875 0.1875 0.3125l0.125 0.125-0.125-0.125-0.28125 0.28125q-0.28125 0.28125-0.65625 0.15625t-0.875-0.125-1 0-1 0-1 0-1 0-1 0h-0.5v-0.5" fill="#f6f6f6"/>
    <path d="m11.125 8.375-0.125-0.375h1v1l-0.375-0.125q-0.375-0.125-0.5-0.5" fill="#828282"/>
    <path d="m12 8.5v-0.5l0.75-0.25-0.5625 0.1875 0.1875-0.0625q0.1875-0.0625 0.3125-0.1875l0.125-0.125-0.125 0.125 0.65625 0.59375 0.09375-0.09375-0.09375 0.09375q-0.09375 0.09375-0.09375 0.21875v0.125-0.375 0.5-0.375 0.125q0 0.125 0.09375 0.21875l0.09375 0.09375-0.09375-0.09375-0.65625 0.59375 0.125 0.125-0.125-0.125q-0.125-0.125-0.3125-0.1875l-0.1875-0.0625 0.5625 0.1875-0.75-0.25v-0.5" fill="#5c5c5c"/>
   </g>
   <path d="m13.25 8.5q0-0.25 0.375-0.375l0.375-0.125v1l-0.375-0.125q-0.375-0.125-0.375-0.375" fill="#464646" fill-opacity=".76863"/>
   <path d="m2 9.5v-0.5h1v1h-1v-0.5" fill="#626262" fill-opacity=".41961"/>
   <g>
    <path d="m3 9.5v-0.5h1v1h-1v-0.5" fill="#f4f4f4"/>
    <path d="m4 9.5v-0.5h0.5q0.5 0 1 0t1 0 1 0 1 0 1 0 0.875 0.125 0.65625-0.15625l0.28125-0.28125-0.125-0.125 0.125 0.125q0.125 0.125 0.3125 0.1875l0.1875 0.0625-0.5625-0.1875 0.75 0.25v1h-0.5q-0.5 0-1 0t-1 0-1 0-1 0-1 0-1 0-1 0h-0.5v-0.5" fill="#f0f0f0"/>
    <path d="m12 9.5v-0.5l0.375 0.125q0.375 0.125 0.5 0.5l0.125 0.375h-1v-0.5" fill="#f4f4f4"/>
   </g>
   <path d="m12.875 9.625-0.125-0.375 0.1875 0.5625-0.0625-0.1875q-0.0625-0.1875-0.1875-0.3125l-0.125-0.125 0.125 0.125 0.65625-0.59375-0.09375-0.09375 0.09375 0.09375q0.09375 0.09375 0.28125 0.15625l0.1875 0.0625-0.5625-0.1875 0.75 0.25v1h-1l-0.125-0.375" fill="#626262" fill-opacity=".41961"/>
   <path d="m1.875 10.375 0.125-0.375h1v1l-0.375 0.125q-0.375 0.125-0.65625-0.15625l-0.28125-0.28125-0.125 0.125 0.125-0.125q0.125-0.125 0.1875-0.3125l0.0625-0.1875-0.1875 0.5625 0.125-0.375" fill="#555" fill-opacity=".42353"/>
   <g>
    <path d="m3 10.5v-0.5h1v1h-1v-0.5" fill="#efefef"/>
    <path d="m4 10.5v-0.5h0.5q0.5 0 1 0t1 0 1 0 1 0 1 0 1 0 1 0h0.5v1h-0.5q-0.5 0-1 0t-1 0-1 0-1 0-1 0-1 0-1 0h-0.5v-0.5" fill="#eaeaea"/>
    <path d="m12 10.5v-0.5h1v1h-1v-0.5" fill="#efefef"/>
   </g>
   <path d="m13 10.5v-0.5h1l0.25 0.75-0.1875-0.5625 0.0625 0.1875q0.0625 0.1875 0.1875 0.3125l0.125 0.125-0.125-0.125-0.28125 0.28125q-0.28125 0.28125-0.65625 0.15625l-0.375-0.125v-0.5" fill="#555" fill-opacity=".42353"/>
   <path d="m0 11.5v-0.5h1l-0.125 0.375q-0.125 0.375-0.5 0.5l-0.375 0.125v-0.5" fill="#4a4a4a" fill-opacity=".32549"/>
   <path d="m0.875 11.375 0.125-0.375 0.75-0.25-0.5625 0.1875 0.1875-0.0625q0.1875-0.0625 0.3125-0.1875l0.125-0.125-0.125 0.125 0.28125 0.28125q0.28125 0.28125 0.65625 0.15625l0.375-0.125-0.125 0.375q-0.125 0.375-0.5 0.5t-0.75 0.25l-0.375 0.125 0.5625-0.1875-0.1875 0.0625q-0.1875 0.0625-0.28125 0.15625l-0.09375 0.09375 0.09375-0.09375-0.65625-0.59375-0.125 0.125 0.125-0.125q0.125-0.125 0.1875-0.3125l0.0625-0.1875-0.1875 0.5625 0.125-0.375" fill="#4d4d4d" fill-opacity=".43137"/>
   <g>
    <path d="m2.875 11.375 0.125-0.375h1v1l-0.75 0.25 0.5625-0.1875-0.1875 0.0625q-0.1875 0.0625-0.3125 0.1875l-0.125 0.125 0.125-0.125-0.625-0.625-0.125 0.125 0.125-0.125q0.125-0.125 0.1875-0.3125l0.0625-0.1875-0.1875 0.5625 0.125-0.375" fill="#ebebeb"/>
    <path d="m4 11.5v-0.5h0.5q0.5 0 1 0t1 0 1 0 1 0 1 0 1 0 1 0h0.5v1h-0.5q-0.5 0-1 0t-1 0-1 0-1 0-1 0-1 0-1 0h-0.5v-0.5" fill="#e4e4e4"/>
    <path d="m12 11.5v-0.5h1l0.25 0.75-0.1875-0.5625 0.0625 0.1875q0.0625 0.1875 0.1875 0.3125l0.125 0.125-0.125-0.125-0.625 0.625 0.125 0.125-0.125-0.125q-0.125-0.125-0.3125-0.1875l-0.1875-0.0625 0.5625 0.1875-0.75-0.25v-0.5" fill="#ebebeb"/>
   </g>
   <path d="m13.125 11.375-0.125-0.375 0.375 0.125q0.375 0.125 0.65625-0.15625l0.28125-0.28125-0.125-0.125 0.125 0.125q0.125 0.125 0.3125 0.1875l0.1875 0.0625-0.5625-0.1875 0.75 0.25 0.25 0.75-0.1875-0.5625 0.0625 0.1875q0.0625 0.1875 0.1875 0.3125l0.125 0.125-0.125-0.125-0.65625 0.59375 0.09375 0.09375-0.09375-0.09375q-0.09375-0.09375-0.28125-0.15625l-0.1875-0.0625 0.5625 0.1875-0.375-0.125q-0.375-0.125-0.75-0.25t-0.5-0.5" fill="#4d4d4d" fill-opacity=".43137"/>
   <path d="m15.125 11.375-0.125-0.375h1v1l-0.375-0.125q-0.375-0.125-0.5-0.5" fill="#4a4a4a" fill-opacity=".32549"/>
   <path d="m0 12.5v-0.5l0.75-0.25-0.5625 0.1875 0.1875-0.0625q0.1875-0.0625 0.3125-0.1875l0.125-0.125-0.125 0.125 0.65625 0.59375 0.09375-0.09375-0.09375 0.09375q-0.09375 0.09375-0.09375 0.21875v0.125-0.375 0.5-0.375 0.125q0 0.125 0.09375 0.21875l0.09375 0.09375-0.09375-0.09375-0.65625 0.59375 0.125 0.125-0.125-0.125q-0.125-0.125-0.3125-0.1875l-0.1875-0.0625 0.5625 0.1875-0.75-0.25v-0.5" fill="#3b3b3b" fill-opacity=".43922"/>
   <g>
    <path d="m1.25 12.5q0-0.25 0.375-0.375t0.75-0.25l0.375-0.125-0.5625 0.1875 0.1875-0.0625q0.1875-0.0625 0.3125-0.1875l0.125-0.125-0.125 0.125 0.625 0.625 0.125-0.125-0.125 0.125q-0.125 0.125-0.1875 0.3125l-0.0625 0.1875 0.1875-0.5625-0.25 0.75h-0.5q-0.5 0-0.875-0.125t-0.375-0.375" fill="#f0f0f0"/>
    <path d="m3.125 12.625q0.125-0.375 0.5-0.5l0.375-0.125v1h-1l0.125-0.375" fill="#ececec"/>
    <path d="m4 12.5v-0.5h0.5q0.5 0 1 0t1 0 1 0 1 0 1 0 1 0 1 0h0.5v1h-0.5q-0.5 0-1 0t-1 0-1 0-1 0-1 0-1 0-1 0h-0.5v-0.5" fill="#e8e8e8"/>
    <path d="m12 12.5v-0.5l0.375 0.125q0.375 0.125 0.5 0.5l0.125 0.375h-1v-0.5" fill="#ececec"/>
    <path d="m12.875 12.625-0.125-0.375 0.1875 0.5625-0.0625-0.1875q-0.0625-0.1875-0.1875-0.3125l-0.125-0.125 0.125 0.125 0.625-0.625-0.125-0.125 0.125 0.125q0.125 0.125 0.3125 0.1875l0.1875 0.0625-0.5625-0.1875 0.375 0.125q0.375 0.125 0.75 0.25t0.375 0.375-0.375 0.375-0.875 0.125h-0.5l-0.125-0.375" fill="#f0f0f0"/>
   </g>
   <path d="m14.75 12.5v-0.25 0.375-0.125q0-0.125-0.09375-0.21875l-0.09375-0.09375 0.09374 0.09374 0.32812-0.29688 0.32814-0.29686-0.125-0.125 0.125 0.125q0.125 0.125 0.3125 0.1875l0.1875 0.0625-0.5625-0.1875 0.75 0.25v1l-0.75 0.25 0.5625-0.1875-0.1875 0.0625q-0.1875 0.0625-0.3125 0.1875l-0.125 0.125 0.125-0.125-0.65625-0.59375-0.09374 0.09374 0.09375-0.09375q0.09374-0.09374 0.09374-0.21874v-0.125 0.375-0.25" fill="#3b3b3b" fill-opacity=".43922"/>
   <path d="m0 13.5v-0.5l0.375 0.125q0.375 0.125 0.5 0.5l0.125 0.375h-1v-0.5" fill="#141414" fill-opacity=".35686"/>
   <path d="m0.875 13.625-0.125-0.375 0.1875 0.5625-0.0625-0.1875q-0.0625-0.1875-0.1875-0.3125l-0.125-0.125 0.125 0.125 0.65625-0.59375-0.09375-0.09375 0.09375 0.09375q0.09375 0.09375 0.28125 0.15625l0.1875 0.0625-0.5625-0.1875 0.375 0.125q0.375 0.125 0.875 0.125h2q0.5 0 1 0t1 0 1 0 1 0 1 0 1 0 1 0h2q0.5 0 0.875-0.125l0.375-0.125-0.5625 0.1875 0.1875-0.0625q0.1875-0.0625 0.28125-0.15625l0.09375-0.09375-0.09374 0.09374 0.65625 0.59375 0.125-0.125-0.125 0.125q-0.125 0.125-0.1875 0.3125l-0.06251 0.18751 0.1875-0.5625-0.25 0.75h-1.5q-0.5 0-1 0t-1 0-1 0-1 0-1 0-1 0-1 0-1 0-1 0-1 0-1 0h-1.5l-0.125-0.375" fill="#181818" fill-opacity=".45882"/>
   <path d="m15.125 13.625q0.125-0.375 0.5-0.5l0.375-0.125v1h-1l0.125-0.375" fill="#141414" fill-opacity=".35686"/>
   <g>
    <path d="m0 14.5v-0.5h1v1h-1v-0.5" fill-opacity=".023529"/>
    <path d="m1 14.5v-0.5h1v1h-1v-0.5" fill-opacity=".086275"/>
    <path d="m2 14.5v-0.5h0.5q0.5 0 1 0t1 0 1 0 1 0 1 0 1 0 1 0 1 0 1 0 1 0 1 0h0.5v1h-0.5q-0.5 0-1 0t-1 0-1 0-1 0-1 0-1 0-1 0-1 0-1 0-1 0-1 0h-0.5v-0.5" fill-opacity=".10196"/>
    <path d="m14 14.5v-0.5h1v1h-1v-0.5" fill-opacity=".086275"/>
    <path d="m15 14.5v-0.5h1v1h-1v-0.5" fill-opacity=".023529"/>
   </g>
   <path d="m0 15.5v-0.5h2.5q0.5 0 1 0t1 0 1 0 1 0 1 0 1 0 1 0 1 0 1 0 1 0 1 0h2.5v1h-16v-0.5" fill-opacity="0"/>
  </g>
 </g>
</svg>
