<?xml version="1.0" encoding="UTF-8"?>
<!-- Created with Inkscape (http://www.inkscape.org/) -->
<svg id="SVGRoot" width="256px" height="256px" enable-background="new" version="1.1" viewBox="0 0 256 256" xmlns="http://www.w3.org/2000/svg" xmlns:cc="http://creativecommons.org/ns#" xmlns:dc="http://purl.org/dc/elements/1.1/" xmlns:rdf="http://www.w3.org/1999/02/22-rdf-syntax-ns#">
 <metadata>
  <rdf:RDF>
   <cc:Work rdf:about="">
    <dc:format>image/svg+xml</dc:format>
    <dc:type rdf:resource="http://purl.org/dc/dcmitype/StillImage"/>
    <dc:title/>
   </cc:Work>
  </rdf:RDF>
 </metadata>
 <g transform="matrix(15.719 0 0 15.719 2.5 3)" stroke-width=".063618">
  <path d="m0 0.5v-0.5h16v16h-16v-15.5m14.5 14.5q0.5 0 0.5-0.5v-1q0-0.5-0.375-0.375l-0.375 0.125 0.5625-0.1875-0.1875 0.0625q-0.1875 0.0625-0.3125 0.1875l-0.125 0.125 0.125-0.125-0.59375-0.59375-0.09375 0.15625 0.09375-0.15625q0.09375-0.15625 0.15625-0.34375l0.0625-0.1875-0.1875 0.5625 0.25-0.75v-1l-0.125-0.375q-0.125-0.375-0.375-0.625t-0.5-0.5-0.5-0.5-0.375-0.625l-0.125-0.375 0.125-0.375q0.125-0.375 0.375-0.625t0.5-0.5 0.5-0.5 0.375-0.625l0.125-0.375v-1l-0.125-0.375q-0.125-0.375-0.375-0.625t-0.5-0.5-0.625-0.375l-0.375-0.125h-1l-0.375 0.125q-0.375 0.125-0.625 0.375t-0.5 0.5-0.5 0.5-0.625 0.375-0.75 0-0.625-0.375-0.5-0.5-0.5-0.5-0.625-0.375l-0.375-0.125h-1l-0.375 0.125q-0.375 0.125-0.625 0.375t-0.5 0.5-0.375 0.625l-0.125 0.375v1l0.125 0.375q0.125 0.375 0.375 0.625t0.5 0.5 0.5 0.5 0.375 0.625l0.125 0.375-0.125 0.375q-0.125 0.375-0.375 0.625t-0.5 0.5-0.5 0.5-0.375 0.625l-0.125 0.375v1l0.25 0.75-0.1875-0.5625 0.0625 0.1875q0.0625 0.1875 0.15625 0.34375l0.09375 0.15625-0.09375-0.15625-0.59375 0.59375 0.125 0.125-0.125-0.125q-0.125-0.125-0.3125-0.1875l-0.1875-0.0625 0.5625 0.1875-0.375-0.125q-0.375-0.125-0.375 0.375v1q0 0.5 0.5 0.5h2q0.5 0 1 0h7q0.5 0 1 0h2" fill-opacity="0"/>
  <g fill="#6e6e6e">
   <path d="m3 2.5q0.25-0.25 0.625-0.375l0.375-0.125-0.125 0.375q-0.125 0.375-0.375 0.625l-0.25 0.25-0.5-0.5 0.25-0.25m-0.0625 0.0625-0.3125 0.3125 0.125-0.125q0.125-0.125 0.25-0.25l0.125-0.125-0.1875 0.1875m0.25 0.75 0.4375-0.4375-0.125 0.125q-0.125 0.125-0.25 0.25l-0.125 0.125 0.0625-0.0625" fill-opacity=".28235"/>
   <path d="m3.875 2.375 0.125-0.375h1l0.25 0.75-0.1875-0.5625 0.0625 0.1875q0.0625 0.1875 0.15625 0.34375l0.09375 0.15625-0.09375-0.15625-0.53125 0.59375 0.125 0.0625-0.125-0.0625q-0.125-0.0625-0.25-0.0625h-0.125 0.375-0.5 0.375-0.125q-0.125 0-0.25 0.0625l-0.125 0.0625 0.125-0.0625-0.53125-0.59375-0.09375 0.15625 0.09375-0.15625q0.09375-0.15625 0.15625-0.34375l0.0625-0.1875-0.1875 0.5625 0.125-0.375" fill-opacity=".8"/>
   <path d="m5.125 2.375-0.125-0.375 0.375 0.125q0.375 0.125 0.625 0.375l0.25 0.25-0.5 0.5-0.25-0.25q-0.25-0.25-0.375-0.625m0.4375 0.6875 0.3125 0.3125-0.125-0.125q-0.125-0.125-0.25-0.25l-0.125-0.125 0.1875 0.1875m0.75-0.25-0.4375-0.4375 0.125 0.125q0.125 0.125 0.25 0.25l0.125 0.125-0.0625-0.0625" fill-opacity=".28235"/>
   <path d="m10 2.5q0.25-0.25 0.625-0.375l0.375-0.125-0.125 0.375q-0.125 0.375-0.375 0.625l-0.25 0.25-0.5-0.5 0.25-0.25m-0.0625 0.0625-0.3125 0.3125 0.125-0.125q0.125-0.125 0.25-0.25l0.125-0.125-0.1875 0.1875m0.25 0.75 0.4375-0.4375-0.125 0.125q-0.125 0.125-0.25 0.25l-0.125 0.125 0.0625-0.0625" fill-opacity=".28235"/>
   <path d="m10.875 2.375 0.125-0.375h1l0.25 0.75-0.1875-0.5625 0.0625 0.1875q0.0625 0.1875 0.15625 0.34375l0.09375 0.15625-0.09375-0.15625-0.53125 0.59375 0.125 0.0625-0.125-0.0625q-0.125-0.0625-0.25-0.0625h-0.125 0.375-0.5 0.375-0.125q-0.125 0-0.25 0.0625l-0.125 0.0625 0.125-0.0625-0.53125-0.59375-0.09375 0.15625 0.09375-0.15625q0.09375-0.15625 0.15625-0.34375l0.0625-0.1875-0.1875 0.5625 0.125-0.375" fill-opacity=".8"/>
   <path d="m12.125 2.375-0.125-0.375 0.375 0.125q0.375 0.125 0.625 0.375l0.25 0.25-0.5 0.5-0.25-0.25q-0.25-0.25-0.375-0.625m0.4375 0.6875 0.3125 0.3125-0.125-0.125q-0.125-0.125-0.25-0.25l-0.125-0.125 0.1875 0.1875m0.75-0.25-0.4375-0.4375 0.125 0.125q0.125 0.125 0.25 0.25l0.125 0.125-0.0625-0.0625" fill-opacity=".28235"/>
  </g>
  <path d="m2.125 3.625q0.125-0.375 0.375-0.625l0.25-0.25 0.5 0.5-0.25 0.25q-0.25 0.25-0.625 0.375l-0.375 0.125 0.125-0.375m0.9375-0.1875 0.3125-0.3125-0.125 0.125q-0.125 0.125-0.25 0.25l-0.125 0.125 0.1875-0.1875m-0.25-0.75-0.4375 0.4375 0.125-0.125q0.125-0.125 0.25-0.25l0.125-0.125-0.0625 0.0625" fill="#6a6a6a" fill-opacity=".28235"/>
  <path d="m3 3.5q0.25-0.25 0.5-0.5l0.25-0.25-0.375 0.375 0.125-0.125q0.125-0.125 0.21875-0.28125l0.09375-0.15625-0.09375 0.15625 0.53125 0.59375 0.125-0.0625-0.125 0.0625q-0.125 0.0625-0.25 0.1875l-0.125 0.125 0.375-0.375-0.25 0.25q-0.25 0.25-0.5 0.5l-0.25 0.25 0.375-0.375-0.125 0.125q-0.125 0.125-0.1875 0.25l-0.0625 0.125 0.0625-0.125-0.59375-0.53125-0.15625 0.09375 0.15625-0.09375q0.15625-0.09375 0.28125-0.21875l0.125-0.125-0.375 0.375 0.25-0.25" fill="#6c6c6c" fill-opacity=".8"/>
  <path d="m4 3.5q0.25-0.25 0.5-0.25t0.5 0.25l0.25 0.25-0.5625 0.5625 0.0625 0.0625-0.0625-0.0625q-0.0625-0.0625-0.1875-0.0625h-0.125 0.375-0.5 0.375-0.125q-0.125 0-0.1875 0.0625l-0.0625 0.0625 0.0625-0.0625-0.5625-0.5625 0.25-0.25m-0.0625 0.0625-0.3125 0.3125 0.125-0.125q0.125-0.125 0.25-0.25l0.125-0.125-0.1875 0.1875m1.375 0.25-0.4375-0.4375 0.125 0.125q0.125 0.125 0.25 0.25l0.125 0.125-0.0625-0.0625" fill="#d4d4d4"/>
  <path d="m5 3.5-0.25-0.25 0.375 0.375-0.125-0.125q-0.125-0.125-0.25-0.1875l-0.125-0.0625 0.125 0.0625 0.53125-0.59375-0.09375-0.15625 0.09375 0.15625q0.09375 0.15625 0.21875 0.28125l0.125 0.125-0.375-0.375 0.25 0.25q0.25 0.25 0.5 0.5l0.25 0.25-0.5 0.5-0.25-0.25q-0.25-0.25-0.5-0.5m0.5625 0.5625 0.3125 0.3125-0.125-0.125q-0.125-0.125-0.25-0.25l-0.125-0.125 0.1875 0.1875m0.75-0.25-0.4375-0.4375 0.125 0.125q0.125 0.125 0.25 0.25l0.125 0.125-0.0625-0.0625" fill="#6c6c6c" fill-opacity=".8"/>
  <path d="m6 3.5-0.25-0.25 0.5-0.5 0.25 0.25q0.25 0.25 0.5 0.5t0.625 0.375 0.75 0 0.625-0.375 0.5-0.5l0.25-0.25 0.5 0.5-0.25 0.25q-0.25 0.25-0.5 0.5t-0.5 0.5-0.625 0.375-0.75 0-0.625-0.375-0.5-0.5-0.5-0.5m4.0625-0.0625 0.3125-0.3125-0.125 0.125q-0.125 0.125-0.25 0.25l-0.125 0.125 0.1875-0.1875m-0.25-0.75-0.4375 0.4375 0.125-0.125q0.125-0.125 0.25-0.25l0.125-0.125-0.0625 0.0625m-3.375 0.25-0.3125-0.3125 0.125 0.125q0.125 0.125 0.25 0.25l0.125 0.125-0.1875-0.1875m-0.75 0.25 0.4375 0.4375-0.125-0.125q-0.125-0.125-0.25-0.25l-0.125-0.125 0.0625 0.0625" fill="#6a6a6a" fill-opacity=".28235"/>
  <path d="m10 3.5q0.25-0.25 0.5-0.5l0.25-0.25-0.375 0.375 0.125-0.125q0.125-0.125 0.21875-0.28125l0.09375-0.15625-0.09375 0.15625 0.53125 0.59375 0.125-0.0625-0.125 0.0625q-0.125 0.0625-0.25 0.1875l-0.125 0.125 0.375-0.375-0.25 0.25q-0.25 0.25-0.5 0.5l-0.25 0.25-0.5-0.5 0.25-0.25m-0.0625 0.0625-0.3125 0.3125 0.125-0.125q0.125-0.125 0.25-0.25l0.125-0.125-0.1875 0.1875m0.25 0.75 0.4375-0.4375-0.125 0.125q-0.125 0.125-0.25 0.25l-0.125 0.125 0.0625-0.0625" fill="#6c6c6c" fill-opacity=".8"/>
  <path d="m11 3.5q0.25-0.25 0.5-0.25t0.5 0.25l0.25 0.25-0.5625 0.5625 0.0625 0.0625-0.0625-0.0625q-0.0625-0.0625-0.1875-0.0625h-0.125 0.375-0.5 0.375-0.125q-0.125 0-0.21875 0.09375l-0.09375 0.09375 0.09375-0.09375-0.53125-0.59375 0.25-0.25m-0.0625 0.0625-0.3125 0.3125 0.125-0.125q0.125-0.125 0.25-0.25l0.125-0.125-0.1875 0.1875m1.375 0.25-0.4375-0.4375 0.125 0.125q0.125 0.125 0.25 0.25l0.125 0.125-0.0625-0.0625" fill="#cdcdcd"/>
  <path d="m12 3.5-0.25-0.25 0.375 0.375-0.125-0.125q-0.125-0.125-0.25-0.1875l-0.125-0.0625 0.125 0.0625 0.53125-0.59375-0.09375-0.15625 0.09375 0.15625q0.09375 0.15625 0.21875 0.28125l0.125 0.125-0.375-0.375 0.25 0.25q0.25 0.25 0.5 0.5l0.25 0.25-0.375-0.375 0.125 0.125q0.125 0.125 0.28125 0.21875l0.15625 0.09375-0.15625-0.09375-0.59375 0.53125 0.0625 0.125-0.0625-0.125q-0.0625-0.125-0.1875-0.25l-0.125-0.125 0.375 0.375-0.25-0.25q-0.25-0.25-0.5-0.5" fill="#6c6c6c" fill-opacity=".8"/>
  <path d="m13 3.5-0.25-0.25 0.5-0.5 0.25 0.25q0.25 0.25 0.375 0.625l0.125 0.375-0.375-0.125q-0.375-0.125-0.625-0.375m0.4375-0.5625-0.3125-0.3125 0.125 0.125q0.125 0.125 0.25 0.25l0.125 0.125-0.1875-0.1875m-0.75 0.25 0.4375 0.4375-0.125-0.125q-0.125-0.125-0.25-0.25l-0.125-0.125 0.0625 0.0625" fill="#6a6a6a" fill-opacity=".28235"/>
  <path d="m2 4.5v-0.5l0.75-0.25-0.5625 0.1875 0.1875-0.0625q0.1875-0.0625 0.34375-0.15625l0.15625-0.09375-0.15625 0.09375 0.59375 0.53125 0.0625-0.125-0.0625 0.125q-0.0625 0.125-0.0625 0.25v0.125-0.375 0.5-0.375 0.125q0 0.125 0.0625 0.25l0.0625 0.125-0.0625-0.125-0.59375 0.53125 0.15625 0.09375-0.15625-0.09375q-0.15625-0.09375-0.34375-0.15625l-0.1875-0.0625 0.5625 0.1875-0.75-0.25v-0.5" fill="#6a6a6a" fill-opacity=".8"/>
  <g>
   <path d="m3.25 4.5q0-0.25 0.25-0.5l0.25-0.25 0.5625 0.5625 0.0625-0.0625-0.0625 0.0625q-0.0625 0.0625-0.0625 0.1875v0.125-0.375 0.5-0.375 0.125q0 0.125 0.0625 0.1875l0.0625 0.0625-0.0625-0.0625-0.5625 0.5625-0.25-0.25q-0.25-0.25-0.25-0.5m0.3125 0.5625 0.3125 0.3125-0.125-0.125q-0.125-0.125-0.25-0.25l-0.125-0.125 0.1875 0.1875m0.25-1.375-0.4375 0.4375 0.125-0.125q0.125-0.125 0.25-0.25l0.125-0.125-0.0625 0.0625" fill="#d3d3d3"/>
   <path d="m4.25 4.5q0-0.25 0.25-0.25t0.25 0.25-0.25 0.25-0.25-0.25" fill="#a9a9a9"/>
   <path d="m4.75 4.5v-0.25 0.375-0.125q0-0.125-0.0625-0.1875l-0.0625-0.0625 0.0625 0.0625 0.5625-0.5625 0.25 0.25q0.25 0.25 0.5 0.5l0.25 0.25-0.53125 0.59375 0.09375 0.09375-0.09375-0.09375q-0.09375-0.09375-0.21875-0.09375h-0.125 0.375-0.5 0.375-0.125q-0.125 0-0.1875 0.0625l-0.0625 0.0625 0.0625-0.0625-0.625-0.625-0.0625 0.0625 0.0625-0.0625q0.0625-0.0625 0.0625-0.1875v-0.125 0.375-0.25m1.5625 0.3125-0.4375-0.4375 0.125 0.125q0.125 0.125 0.25 0.25l0.125 0.125-0.0625-0.0625m-0.875-0.875-0.3125-0.3125 0.125 0.125q0.125 0.125 0.25 0.25l0.125 0.125-0.1875-0.1875" fill="#cfcfcf"/>
  </g>
  <path d="m6 4.5-0.25-0.25 0.5-0.5 0.25 0.25q0.25 0.25 0.5 0.5l0.25 0.25-0.375-0.375 0.125 0.125q0.125 0.125 0.28125 0.21875l0.15625 0.09375-0.15625-0.09375-0.53125 0.53125-0.25-0.25q-0.25-0.25-0.5-0.5m0.5625 0.5625 0.3125 0.3125-0.125-0.125q-0.125-0.125-0.25-0.25l-0.125-0.125 0.1875 0.1875m-0.125-1.125-0.3125-0.3125 0.125 0.125q0.125 0.125 0.25 0.25l0.125 0.125-0.1875-0.1875m-0.75 0.25 0.4375 0.4375-0.125-0.125q-0.125-0.125-0.25-0.25l-0.125-0.125 0.0625 0.0625" fill="#6a6a6a" fill-opacity=".8"/>
  <path d="m9 4.5q0.25-0.25 0.5-0.5l0.25-0.25 0.5 0.5-0.25 0.25q-0.25 0.25-0.5 0.5l-0.25 0.25 0.375-0.375-0.125 0.125q-0.125 0.125-0.1875 0.25l-0.0625 0.125 0.0625-0.125-0.59375-0.53125-0.15625 0.09375 0.15625-0.09375q0.15625-0.09375 0.28125-0.21875l0.125-0.125-0.375 0.375 0.25-0.25m1.0625-0.0625 0.3125-0.3125-0.125 0.125q-0.125 0.125-0.25 0.25l-0.125 0.125 0.1875-0.1875m-0.25-0.75-0.4375 0.4375 0.125-0.125q0.125-0.125 0.25-0.25l0.125-0.125-0.0625 0.0625" fill="#6a6a6a" fill-opacity=".8"/>
  <g>
   <path d="m10 4.5q0.25-0.25 0.5-0.5l0.25-0.25 0.53125 0.59375 0.09375-0.09375-0.09375 0.09375q-0.09375 0.09375-0.15625 0.28125l-0.0625 0.1875 0.1875-0.5625-0.25 0.75-0.75 0.25 0.5625-0.1875-0.1875 0.0625q-0.1875 0.0625-0.34375 0.15625l-0.15625 0.09375 0.15625-0.09375-0.53125-0.53125 0.25-0.25m-0.0625 0.0625-0.3125 0.3125 0.125-0.125q0.125-0.125 0.25-0.25l0.125-0.125-0.1875 0.1875m0.875-0.875-0.4375 0.4375 0.125-0.125q0.125-0.125 0.25-0.25l0.125-0.125-0.0625 0.0625" fill="#bfbfbf"/>
   <path d="m11.125 4.625q0.125-0.375 0.375-0.375t0.25 0.25-0.375 0.375l-0.375 0.125 0.125-0.375" fill="#a9a9a9"/>
   <path d="m11.75 4.5v-0.25 0.375-0.125q0-0.125-0.0625-0.1875l-0.0625-0.0625 0.0625 0.0625 0.5625-0.5625 0.25 0.25q0.25 0.25 0.25 0.5t-0.25 0.5l-0.25 0.25-0.59375-0.53125-0.09375 0.09375 0.09375-0.09375q0.09375-0.09375 0.09375-0.21875v-0.125 0.375-0.25m0.4375 0.8125 0.4375-0.4375-0.125 0.125q-0.125 0.125-0.25 0.25l-0.125 0.125 0.0625-0.0625m0.25-1.375-0.3125-0.3125 0.125 0.125q0.125 0.125 0.25 0.25l0.125 0.125-0.1875-0.1875" fill="#b9b9b9"/>
  </g>
  <path d="m12.75 4.5v-0.25 0.375-0.125q0-0.125-0.0625-0.25l-0.0625-0.125 0.0625 0.125 0.59375-0.53125-0.15625-0.09375 0.15625 0.09375q0.15625 0.09375 0.34375 0.15625l0.1875 0.0625-0.5625-0.1875 0.75 0.25v1l-0.75 0.25 0.5625-0.1875-0.1875 0.0625q-0.1875 0.0625-0.34375 0.15625l-0.15625 0.09375 0.15625-0.09375-0.59375-0.53125-0.0625 0.125 0.0625-0.125q0.0625-0.125 0.0625-0.25v-0.125 0.375-0.25" fill="#6a6a6a" fill-opacity=".8"/>
  <path d="m2.125 5.375-0.125-0.375 0.375 0.125q0.375 0.125 0.625 0.375l0.25 0.25-0.5 0.5-0.25-0.25q-0.25-0.25-0.375-0.625m0.4375 0.6875 0.3125 0.3125-0.125-0.125q-0.125-0.125-0.25-0.25l-0.125-0.125 0.1875 0.1875m0.75-0.25-0.4375-0.4375 0.125 0.125q0.125 0.125 0.25 0.25l0.125 0.125-0.0625-0.0625" fill="#6a6a6a" fill-opacity=".28235"/>
  <path d="m3 5.5-0.25-0.25 0.375 0.375-0.125-0.125q-0.125-0.125-0.28125-0.21875l-0.15625-0.09375 0.15625 0.09375 0.59375-0.53125-0.0625-0.125 0.0625 0.125q0.0625 0.125 0.1875 0.25l0.125 0.125-0.375-0.375 0.25 0.25q0.25 0.25 0.5 0.5l0.25 0.25-0.5 0.5-0.25-0.25q-0.25-0.25-0.5-0.5m0.5625 0.5625 0.3125 0.3125-0.125-0.125q-0.125-0.125-0.25-0.25l-0.125-0.125 0.1875 0.1875m0.75-0.25-0.4375-0.4375 0.125 0.125q0.125 0.125 0.25 0.25l0.125 0.125-0.0625-0.0625" fill="#696969" fill-opacity=".8"/>
  <g>
   <path d="m4 5.5-0.25-0.25 0.5625-0.5625-0.0625-0.0625 0.0625 0.0625q0.0625 0.0625 0.1875 0.0625h0.125-0.375 0.5-0.375 0.125q0.125 0 0.1875-0.0625l0.0625-0.0625-0.0625 0.0625 0.625 0.625 0.0625-0.0625-0.0625 0.0625q-0.0625 0.0625-0.0625 0.1875v0.125-0.375 0.5-0.375 0.125q0 0.125 0.09375 0.21875l0.09375 0.09375-0.09375-0.09375-0.59375 0.53125-0.25-0.25q-0.25-0.25-0.5-0.5m0.5625 0.5625 0.3125 0.3125-0.125-0.125q-0.125-0.125-0.25-0.25l-0.125-0.125 0.1875 0.1875m-0.875-0.875 0.4375 0.4375-0.125-0.125q-0.125-0.125-0.25-0.25l-0.125-0.125 0.0625 0.0625" fill="#c4c4c4"/>
   <path d="m5.25 5.5q0-0.25 0.25-0.25t0.375 0.375l0.125 0.375-0.375-0.125q-0.375-0.125-0.375-0.375" fill="#939393"/>
   <path d="m5.875 5.625-0.125-0.375 0.1875 0.5625-0.0625-0.1875q-0.0625-0.1875-0.15625-0.28125l-0.09375-0.09375 0.09375 0.09375 0.53125-0.59375 0.25 0.25q0.25 0.25 0.5 0.5l0.25 0.25-0.5625 0.5625 0.125 0.125-0.125-0.125q-0.125-0.125-0.3125-0.1875l-0.1875-0.0625 0.5625 0.1875-0.75-0.25-0.125-0.375m1.4375 0.1875-0.4375-0.4375 0.125 0.125q0.125 0.125 0.25 0.25l0.125 0.125-0.0625-0.0625m-0.875-0.875-0.3125-0.3125 0.125 0.125q0.125 0.125 0.25 0.25l0.125 0.125-0.1875-0.1875" fill="#bbb"/>
  </g>
  <path d="m7 5.5-0.25-0.25 0.53125-0.53125-0.15625-0.09375 0.15625 0.09375q0.15625 0.09375 0.34375 0.15625l0.1875 0.0625-0.5625-0.1875 0.375 0.125q0.375 0.125 0.75 0l0.375-0.125-0.5625 0.1875 0.1875-0.0625q0.1875-0.0625 0.34375-0.15625l0.15625-0.09375-0.15625 0.09375 0.59375 0.53125 0.0625-0.125-0.0625 0.125q-0.0625 0.125-0.0625 0.25v0.125-0.375 0.5-0.375 0.125q0 0.125 0.0625 0.1875l0.0625 0.0625-0.0625-0.0625-0.59375 0.59375 0.09375 0.15625-0.09375-0.15625q-0.09375-0.15625-0.21875-0.28125l-0.125-0.125 0.375 0.375-0.25-0.25q-0.25-0.25-0.51562 0.015625l-0.26562 0.26562 0.09375 0.15625-0.09375-0.15625q-0.09375-0.15625-0.21875-0.28125l-0.125-0.125 0.375 0.375-0.25-0.25q-0.25-0.25-0.5-0.5m-0.3125-0.3125 0.4375 0.4375-0.125-0.125q-0.125-0.125-0.25-0.25l-0.125-0.125 0.0625 0.0625" fill="#696969" fill-opacity=".8"/>
  <g>
   <path d="m9.25 5.5q0-0.25 0.25-0.5l0.25-0.25 0.53125 0.53125 0.15625-0.09375-0.15625 0.09375q-0.15625 0.09375-0.28125 0.21875l-0.125 0.125 0.375-0.375-0.25 0.25q-0.25 0.25-0.5 0.25t-0.25-0.25m0.5625-0.8125-0.4375 0.4375 0.125-0.125q0.125-0.125 0.25-0.25l0.125-0.125-0.0625 0.0625" fill="#acacac"/>
   <path d="m10 5.5q0.25-0.25 0.625-0.375l0.375-0.125 0.25 0.75-0.1875-0.5625 0.0625 0.1875q0.0625 0.1875 0.15625 0.28125l0.09375 0.09375-0.09375-0.09375-0.5625 0.6875 0.09375 0.09375-0.09375-0.09375q-0.09375-0.09375-0.21875-0.09375h-0.125 0.375-0.5 0.375-0.125q-0.125 0-0.21875 0.09375l-0.09375 0.09375 0.09375-0.09375-0.53125-0.65625-0.125 0.0625 0.125-0.0625q0.125-0.0625 0.25-0.1875l0.125-0.125-0.375 0.375 0.25-0.25" fill="#939393"/>
   <path d="m11.125 5.375-0.125-0.375 0.75-0.25-0.5625 0.1875 0.1875-0.0625q0.1875-0.0625 0.28125-0.15625l0.09375-0.09375-0.09375 0.09375 0.59375 0.53125-0.25 0.25q-0.25 0.25-0.5 0.25t-0.375-0.375m0.9375 0.0625 0.3125-0.3125-0.125 0.125q-0.125 0.125-0.25 0.25l-0.125 0.125 0.1875-0.1875" fill="#a2a2a2"/>
  </g>
  <path d="m12 5.5q0.25-0.25 0.5-0.5l0.25-0.25-0.375 0.375 0.125-0.125q0.125-0.125 0.1875-0.25l0.0625-0.125-0.0625 0.125 0.59375 0.53125 0.15625-0.09375-0.15625 0.09375q-0.15625 0.09375-0.28125 0.21875l-0.125 0.125 0.375-0.375-0.25 0.25q-0.25 0.25-0.5 0.5l-0.25 0.25-0.5-0.5625-0.125 0.0625 0.125-0.0625q0.125-0.0625 0.25-0.1875l0.125-0.125-0.375 0.375 0.25-0.25m0.1875 0.8125 0.4375-0.4375-0.125 0.125q-0.125 0.125-0.25 0.25l-0.125 0.125 0.0625-0.0625" fill="#696969" fill-opacity=".8"/>
  <path d="m13 5.5q0.25-0.25 0.625-0.375l0.375-0.125-0.125 0.375q-0.125 0.375-0.375 0.625l-0.25 0.25-0.5-0.5 0.25-0.25m-0.0625 0.0625-0.3125 0.3125 0.125-0.125q0.125-0.125 0.25-0.25l0.125-0.125-0.1875 0.1875m0.25 0.75 0.4375-0.4375-0.125 0.125q-0.125 0.125-0.25 0.25l-0.125 0.125 0.0625-0.0625" fill="#6a6a6a" fill-opacity=".28235"/>
  <path d="m3 6.5-0.25-0.25 0.5-0.5 0.25 0.25q0.25 0.25 0.5 0.5t0.5 0.5 0.375 0.625l0.125 0.375h-1l-0.125-0.375q-0.125-0.375-0.375-0.625t-0.5-0.5m0.4375-0.5625-0.3125-0.3125 0.125 0.125q0.125 0.125 0.25 0.25l0.125 0.125-0.1875-0.1875m-0.75 0.25 0.4375 0.4375-0.125-0.125q-0.125-0.125-0.25-0.25l-0.125-0.125 0.0625 0.0625" fill="#676767" fill-opacity=".28235"/>
  <path d="m4 6.5-0.25-0.25 0.5-0.5 0.25 0.25q0.25 0.25 0.5 0.5l0.25 0.25-0.375-0.375 0.125 0.125q0.125 0.125 0.25 0.1875l0.125 0.0625-0.125-0.0625-0.53125 0.59375 0.09375 0.15625-0.09375-0.15625q-0.09375-0.15625-0.21875-0.28125l-0.125-0.125 0.375 0.375-0.25-0.25q-0.25-0.25-0.5-0.5m0.4375-0.5625-0.3125-0.3125 0.125 0.125q0.125 0.125 0.25 0.25l0.125 0.125-0.1875-0.1875m-0.75 0.25 0.4375 0.4375-0.125-0.125q-0.125-0.125-0.25-0.25l-0.125-0.125 0.0625 0.0625" fill="#676767" fill-opacity=".8"/>
  <g>
   <path d="m5 6.5-0.25-0.25 0.59375-0.53125-0.09375-0.09375 0.09375 0.09375q0.09375 0.09375 0.28125 0.15625l0.1875 0.0625-0.5625-0.1875 0.75 0.25-0.125 0.375q-0.125 0.375-0.375 0.375t-0.5-0.25m-0.3125-0.3125 0.4375 0.4375-0.125-0.125q-0.125-0.125-0.25-0.25l-0.125-0.125 0.0625 0.0625" fill="#b0b0b0"/>
   <path d="m5.875 6.375 0.125-0.375 0.375 0.125q0.375 0.125 0.5 0.5l0.125 0.375-0.75 0.25 0.5625-0.1875-0.1875 0.0625q-0.1875 0.0625-0.3125 0.1875l-0.125 0.125 0.125-0.125-0.59375-0.65625-0.09375 0.09375 0.09375-0.09375q0.09375-0.09375 0.15625-0.28125l0.0625-0.1875-0.1875 0.5625 0.125-0.375" fill="#8b8b8b"/>
   <path d="m6.875 6.625-0.125-0.375 0.1875 0.5625-0.0625-0.1875q-0.0625-0.1875-0.1875-0.3125l-0.125-0.125 0.125 0.125 0.5625-0.5625 0.25 0.25q0.25 0.25 0.375 0.625l0.125 0.375h-1l-0.125-0.375m0.5625-0.6875-0.3125-0.3125 0.125 0.125q0.125 0.125 0.25 0.25l0.125 0.125-0.1875-0.1875" fill="#9a9a9a"/>
   <path d="m7.875 6.625-0.125-0.375 0.1875 0.5625-0.0625-0.1875q-0.0625-0.1875-0.15625-0.34375l-0.09375-0.15625 0.09375 0.15625 0.26562-0.26562q0.26562-0.26562 0.51562-0.015625t0.375 0.625l0.125 0.375h-1l-0.125-0.375" fill="#8e8e8e"/>
   <path d="m8.875 6.625-0.125-0.375 0.1875 0.5625-0.0625-0.1875q-0.0625-0.1875-0.15625-0.34375l-0.09375-0.15625 0.09375 0.15625 0.59375-0.59375-0.0625-0.0625 0.0625 0.0625q0.0625 0.0625 0.1875 0.0625h0.125-0.375 0.5-0.375 0.125q0.125 0 0.25-0.0625l0.125-0.0625-0.125 0.0625 0.53125 0.65625 0.09375-0.09375-0.09375 0.09375q-0.09375 0.09375-0.15625 0.28125l-0.0625 0.1875 0.1875-0.5625-0.25 0.75h-1l-0.125-0.375" fill="#737373"/>
   <path d="m10.125 6.625q0.125-0.375 0.375-0.375t0.375 0.375l0.125 0.375h-1l0.125-0.375" fill="#7c7c7c"/>
  </g>
  <path d="m10.875 6.625-0.125-0.375 0.1875 0.5625-0.0625-0.1875q-0.0625-0.1875-0.15625-0.28125l-0.09375-0.09375 0.09375 0.09375 0.5625-0.6875-0.09375-0.09375 0.09375 0.09375q0.09375 0.09375 0.21875 0.09375h0.125-0.375 0.5-0.375 0.125q0.125 0 0.25-0.0625l0.125-0.0625-0.125 0.0625 0.5 0.5625-0.25 0.25q-0.25 0.25-0.625 0.375l-0.375 0.125-0.125-0.375m1.1875-0.1875 0.3125-0.3125-0.125 0.125q-0.125 0.125-0.25 0.25l-0.125 0.125 0.1875-0.1875" fill="#676767" fill-opacity=".8"/>
  <path d="m12 6.5q0.25-0.25 0.5-0.5l0.25-0.25 0.5 0.5-0.25 0.25q-0.25 0.25-0.5 0.5t-0.375 0.625l-0.125 0.375h-1v-1l0.375-0.125q0.375-0.125 0.625-0.375m1.0625-0.0625 0.3125-0.3125-0.125 0.125q-0.125 0.125-0.25 0.25l-0.125 0.125 0.1875-0.1875m-0.25-0.75-0.4375 0.4375 0.125-0.125q0.125-0.125 0.25-0.25l0.125-0.125-0.0625 0.0625" fill="#676767" fill-opacity=".28235"/>
  <path d="m4.875 7.625-0.125-0.375 0.1875 0.5625-0.0625-0.1875q-0.0625-0.1875-0.15625-0.34375l-0.09375-0.15625 0.09375 0.15625 0.53125-0.59375-0.125-0.0625 0.125 0.0625q0.125 0.0625 0.25 0.0625h0.125-0.375 0.5-0.375 0.125q0.125 0 0.21875-0.09375l0.09375-0.09375-0.09375 0.09375 0.59375 0.65625 0.125-0.125-0.125 0.125q-0.125 0.125-0.1875 0.3125l-0.0625 0.1875 0.1875-0.5625-0.25 0.75h-1l-0.125-0.375" fill="#646464" fill-opacity=".8"/>
  <g>
   <path d="m6.125 7.625q0.125-0.375 0.5-0.5l0.375-0.125v1h-1l0.125-0.375" fill="#858585"/>
   <path d="m7 7.5v-0.5h2v1h-0.5q-0.5 0-1 0h-0.5v-0.5" fill="#727272"/>
   <path d="m9 7.5v-0.5h1v1h-1v-0.5" fill="#757575"/>
  </g>
  <path d="m10 7.5v-0.5h1v1h-1v-0.5" fill="#646464" fill-opacity=".8"/>
  <path d="m3.875 8.375 0.125-0.375h1v1l-0.375 0.125q-0.375 0.125-0.5 0.5l-0.125 0.375-0.75 0.25 0.5625-0.1875-0.1875 0.0625q-0.1875 0.0625-0.3125 0.1875l-0.125 0.125 0.125-0.125-0.5625-0.5625 0.25-0.25q0.25-0.25 0.5-0.5t0.375-0.625m-0.9375 1.1875-0.3125 0.3125 0.125-0.125q0.125-0.125 0.25-0.25l0.125-0.125-0.1875 0.1875" fill="#606060" fill-opacity=".28235"/>
  <path d="m5 8.5v-0.5h1v1h-1v-0.5" fill="#626262" fill-opacity=".8"/>
  <path d="m6 8.5v-0.5h1v1h-1v-0.5" fill="#7b7b7b"/>
  <path d="m7 8.5v-0.5h0.5q0.5 0 1 0h1.5v1h-0.5q-0.5 0-1 0t-1 0h-0.5v-0.5" fill="#777"/>
  <path d="m10 8.5v-0.5h1v1h-1v-0.5" fill="#626262" fill-opacity=".8"/>
  <path d="m11 8.5v-0.5h1l0.125 0.375q0.125 0.375 0.375 0.625t0.5 0.5l0.25 0.25-0.5625 0.5625 0.125 0.125-0.125-0.125q-0.125-0.125-0.3125-0.1875l-0.1875-0.0625 0.5625 0.1875-0.75-0.25-0.125-0.375q-0.125-0.375-0.5-0.5l-0.375-0.125v-0.5m2.3125 1.3125-0.4375-0.4375 0.125 0.125q0.125 0.125 0.25 0.25l0.125 0.125-0.0625-0.0625" fill="#606060" fill-opacity=".28235"/>
  <path d="m4.125 9.625q0.125-0.375 0.5-0.5l0.375-0.125v1h-1l0.125-0.375" fill="#5f5f5f" fill-opacity=".8"/>
  <path d="m5 9.5v-0.5h2.5q0.5 0 1 0t1 0h1.5v1h-0.5q-0.5 0-1 0h-1q-0.5 0-1 0h-1q-0.5 0-1 0h-0.5v-0.5" fill="#7d7d7d"/>
  <path d="m11 9.5v-0.5l0.375 0.125q0.375 0.125 0.5 0.5l0.125 0.375h-1v-0.5" fill="#5f5f5f" fill-opacity=".8"/>
  <path d="m2.125 10.625q0.125-0.375 0.375-0.625l0.25-0.25 0.5625 0.5625 0.125-0.125-0.125 0.125q-0.125 0.125-0.1875 0.3125l-0.0625 0.1875 0.1875-0.5625-0.25 0.75h-1l0.125-0.375m0.6875-0.9375-0.4375 0.4375 0.125-0.125q0.125-0.125 0.25-0.25l0.125-0.125-0.0625 0.0625" fill="#5c5c5c" fill-opacity=".28235"/>
  <path d="m3.125 10.625q0.125-0.375 0.5-0.5l0.375-0.125v1h-1l0.125-0.375" fill="#5d5d5d" fill-opacity=".8"/>
  <path d="m4 10.5v-0.5h1.5q0.5 0 1 0h0.5v1h-1.5q-0.5 0-1 0h-0.5v-0.5" fill="#838383"/>
  <path d="m7 10.5v-0.5h0.5q0.5 0 1 0h0.5v1h-0.5q-0.5 0-1 0h-0.5v-0.5" fill="#5d5d5d" fill-opacity=".8"/>
  <path d="m9 10.5v-0.5h0.5q0.5 0 1 0h1.5v1h-0.5q-0.5 0-1 0h-1.5v-0.5" fill="#838383"/>
  <path d="m12 10.5v-0.5l0.375 0.125q0.375 0.125 0.5 0.5l0.125 0.375h-1v-0.5" fill="#5d5d5d" fill-opacity=".8"/>
  <path d="m12.875 10.625-0.125-0.375 0.1875 0.5625-0.0625-0.1875q-0.0625-0.1875-0.1875-0.3125l-0.125-0.125 0.125 0.125 0.5625-0.5625 0.25 0.25q0.25 0.25 0.375 0.625l0.125 0.375h-1l-0.125-0.375m0.5625-0.6875-0.3125-0.3125 0.125 0.125q0.125 0.125 0.25 0.25l0.125 0.125-0.1875-0.1875" fill="#5c5c5c" fill-opacity=".28235"/>
  <path d="m2 11.5v-0.5h1l0.25 0.75-0.1875-0.5625 0.0625 0.1875q0.0625 0.1875 0.15625 0.34375l0.09375 0.15625-0.09375-0.15625-0.5625 0.5625 0.15625 0.09375-0.15625-0.09375q-0.15625-0.09375-0.34375-0.15625l-0.1875-0.0625 0.5625 0.1875-0.75-0.25v-0.5" fill="#5a5a5a" fill-opacity=".8"/>
  <path d="m3.125 11.375-0.125-0.375h1.5q0.5 0 1 0h0.5l-0.125 0.375q-0.125 0.375-0.375 0.625l-0.25 0.25-0.25-0.25q-0.25-0.25-0.5-0.25t-0.5 0.25l-0.25 0.25-0.25-0.25q-0.25-0.25-0.375-0.625m0.4375 0.6875 0.3125 0.3125-0.125-0.125q-0.125-0.125-0.25-0.25l-0.125-0.125 0.1875 0.1875m1.625 0.25 0.4375-0.4375-0.125 0.125q-0.125 0.125-0.25 0.25l-0.125 0.125 0.0625-0.0625" fill="#898989"/>
  <path d="m5.875 11.375 0.125-0.375h1l-0.125 0.375q-0.125 0.375-0.375 0.625l-0.25 0.25-0.53125-0.53125-0.09375 0.15625 0.09375-0.15625q0.09375-0.15625 0.15625-0.34375l0.0625-0.1875-0.1875 0.5625 0.125-0.375m0.3125 0.9375 0.4375-0.4375-0.125 0.125q-0.125 0.125-0.25 0.25l-0.125 0.125 0.0625-0.0625" fill="#5a5a5a" fill-opacity=".8"/>
  <path d="m6.875 11.375 0.125-0.375h0.5q0.5 0 1 0h0.5l0.25 0.75-0.1875-0.5625 0.0625 0.1875q0.0625 0.1875 0.15625 0.34375l0.09375 0.15625-0.09375-0.15625-0.5625 0.5625 0.15625 0.09375-0.15625-0.09375q-0.15625-0.09375-0.34375-0.15625l-0.1875-0.0625 0.5625 0.1875-0.375-0.125q-0.375-0.125-0.75 0l-0.375 0.125 0.5625-0.1875-0.1875 0.0625q-0.1875 0.0625-0.34375 0.15625l-0.15625 0.09375 0.15625-0.09375-0.5625-0.5625-0.09375 0.15625 0.09375-0.15625q0.09375-0.15625 0.15625-0.34375l0.0625-0.1875-0.1875 0.5625 0.125-0.375" fill="#595959" fill-opacity=".28235"/>
  <path d="m9.125 11.375-0.125-0.375h1l0.25 0.75-0.1875-0.5625 0.0625 0.1875q0.0625 0.1875 0.15625 0.34375l0.09375 0.15625-0.09375-0.15625-0.53125 0.53125-0.25-0.25q-0.25-0.25-0.375-0.625m0.4375 0.6875 0.3125 0.3125-0.125-0.125q-0.125-0.125-0.25-0.25l-0.125-0.125 0.1875 0.1875" fill="#5a5a5a" fill-opacity=".8"/>
  <path d="m10.125 11.375-0.125-0.375h0.5q0.5 0 1 0h1.5l-0.125 0.375q-0.125 0.375-0.375 0.625l-0.25 0.25-0.25-0.25q-0.25-0.25-0.5-0.25t-0.5 0.25l-0.25 0.25-0.25-0.25q-0.25-0.25-0.375-0.625m0.4375 0.6875 0.3125 0.3125-0.125-0.125q-0.125-0.125-0.25-0.25l-0.125-0.125 0.1875 0.1875m1.625 0.25 0.4375-0.4375-0.125 0.125q-0.125 0.125-0.25 0.25l-0.125 0.125 0.0625-0.0625" fill="#898989"/>
  <path d="m12.875 11.375 0.125-0.375h1v1l-0.75 0.25 0.5625-0.1875-0.1875 0.0625q-0.1875 0.0625-0.34375 0.15625l-0.15625 0.09375 0.15625-0.09375-0.5625-0.5625-0.09375 0.15625 0.09375-0.15625q0.09375-0.15625 0.15625-0.34375l0.0625-0.1875-0.1875 0.5625 0.125-0.375" fill="#5a5a5a" fill-opacity=".8"/>
  <path d="m2.125 12.375-0.125-0.375 0.375 0.125q0.375 0.125 0.625 0.375l0.25 0.25-0.53125 0.53125 0.09375 0.15625-0.09375-0.15625q-0.09375-0.15625-0.21875-0.28125l-0.125-0.125 0.375 0.375-0.25-0.25q-0.25-0.25-0.375-0.625m1.1875 0.4375-0.4375-0.4375 0.125 0.125q0.125 0.125 0.25 0.25l0.125 0.125-0.0625-0.0625" fill="#434343" fill-opacity=".28235"/>
  <path d="m3 12.5-0.25-0.25 0.375 0.375-0.125-0.125q-0.125-0.125-0.28125-0.21875l-0.15625-0.09375 0.15625 0.09375 0.5625-0.5625-0.09375-0.15625 0.09375 0.15625q0.09375 0.15625 0.21875 0.28125l0.125 0.125-0.375-0.375 0.25 0.25q0.25 0.25 0.5 0.5l0.25 0.25-0.375-0.375 0.125 0.125q0.125 0.125 0.25 0.1875l0.125 0.0625-0.125-0.0625-0.5 0.5625-0.25-0.25q-0.25-0.25-0.5-0.5m0.5625 0.5625 0.3125 0.3125-0.125-0.125q-0.125-0.125-0.25-0.25l-0.125-0.125 0.1875 0.1875" fill="#535353" fill-opacity=".8"/>
  <path d="m4 12.5-0.25-0.25 0.25-0.25q0.25-0.25 0.5-0.25t0.5 0.25l0.25 0.25-0.25 0.25q-0.25 0.25-0.5 0.25t-0.5-0.25m1.0625-0.0625 0.3125-0.3125-0.125 0.125q-0.125 0.125-0.25 0.25l-0.125 0.125 0.1875-0.1875m-1.375-0.25 0.4375 0.4375-0.125-0.125q-0.125-0.125-0.25-0.25l-0.125-0.125 0.0625 0.0625" fill="#8d8d8d"/>
  <path d="m5 12.5q0.25-0.25 0.5-0.5l0.25-0.25-0.375 0.375 0.125-0.125q0.125-0.125 0.21875-0.28125l0.09375-0.15625-0.09375 0.15625 0.53125 0.53125-0.25 0.25q-0.25 0.25-0.5 0.5l-0.25 0.25-0.5-0.5625-0.125 0.0625 0.125-0.0625q0.125-0.0625 0.25-0.1875l0.125-0.125-0.375 0.375 0.25-0.25m0.1875 0.8125 0.4375-0.4375-0.125 0.125q-0.125 0.125-0.25 0.25l-0.125 0.125 0.0625-0.0625m0.875-0.875 0.3125-0.3125-0.125 0.125q-0.125 0.125-0.25 0.25l-0.125 0.125 0.1875-0.1875" fill="#535353" fill-opacity=".8"/>
  <path d="m6 12.5q0.25-0.25 0.5-0.5l0.25-0.25-0.375 0.375 0.125-0.125q0.125-0.125 0.21875-0.28125l0.09375-0.15625-0.09375 0.15625 0.5625 0.5625 0.15625-0.09375-0.15625 0.09375q-0.15625 0.09375-0.28125 0.21875l-0.125 0.125 0.375-0.375-0.25 0.25q-0.25 0.25-0.5 0.5l-0.25 0.25 0.375-0.375-0.125 0.125q-0.125 0.125-0.21875 0.28125l-0.09375 0.15625 0.09375-0.15625-0.53125-0.53125 0.25-0.25m-0.0625 0.0625-0.3125 0.3125 0.125-0.125q0.125-0.125 0.25-0.25l0.125-0.125-0.1875 0.1875" fill="#434343" fill-opacity=".28235"/>
  <path d="m7 12.5q0.25-0.25 0.625-0.375t0.75 0 0.625 0.375l0.25 0.25-0.5625 0.5625 0.125 0.125-0.125-0.125q-0.125-0.125-0.3125-0.1875l-0.1875-0.0625 0.5625 0.1875-0.75-0.25-0.75 0.25 0.5625-0.1875-0.1875 0.0625q-0.1875 0.0625-0.3125 0.1875l-0.125 0.125 0.125-0.125-0.5625-0.5625 0.25-0.25m-0.0625 0.0625-0.3125 0.3125 0.125-0.125q0.125-0.125 0.25-0.25l0.125-0.125-0.1875 0.1875m2.375 0.25-0.4375-0.4375 0.125 0.125q0.125 0.125 0.25 0.25l0.125 0.125-0.0625-0.0625" fill-opacity="0"/>
  <path d="m9 12.5-0.25-0.25 0.375 0.375-0.125-0.125q-0.125-0.125-0.28125-0.21875l-0.15625-0.09375 0.15625 0.09375 0.5625-0.5625-0.09375-0.15625 0.09375 0.15625q0.09375 0.15625 0.21875 0.28125l0.125 0.125-0.375-0.375 0.25 0.25q0.25 0.25 0.5 0.5l0.25 0.25-0.53125 0.53125 0.09375 0.15625-0.09375-0.15625q-0.09375-0.15625-0.21875-0.28125l-0.125-0.125 0.375 0.375-0.25-0.25q-0.25-0.25-0.5-0.5m1.3125 0.3125-0.4375-0.4375 0.125 0.125q0.125 0.125 0.25 0.25l0.125 0.125-0.0625-0.0625" fill="#434343" fill-opacity=".28235"/>
  <path d="m10 12.5-0.25-0.25 0.53125-0.53125-0.09374-0.15626 0.09375 0.15625q0.09374 0.15626 0.21874 0.28126l0.125 0.125-0.375-0.375 0.25 0.25q0.25 0.25 0.5 0.5l0.25 0.25-0.375-0.375 0.125 0.125q0.125 0.125 0.25 0.1875l0.125 0.0625-0.125-0.0625-0.5 0.5625-0.25-0.25q-0.25-0.25-0.5-0.5m0.5625 0.5625 0.3125 0.3125-0.125-0.125q-0.125-0.125-0.25-0.25l-0.125-0.125 0.1875 0.1875m-0.875-0.875 0.4375 0.4375-0.125-0.125q-0.125-0.125-0.25-0.25l-0.125-0.125 0.0625 0.0625" fill="#535353" fill-opacity=".8"/>
  <path d="m11 12.5-0.25-0.25 0.25-0.25q0.25-0.25 0.5-0.25t0.5 0.25l0.25 0.25-0.25 0.25q-0.25 0.25-0.5 0.25t-0.5-0.25m1.0625-0.0625 0.3125-0.3125-0.125 0.125q-0.125 0.125-0.25 0.25l-0.125 0.125 0.1875-0.1875m-1.375-0.25 0.4375 0.4375-0.125-0.125q-0.125-0.125-0.25-0.25l-0.125-0.125 0.0625 0.0625" fill="#8d8d8d"/>
  <path d="m12 12.5q0.25-0.25 0.5-0.5l0.25-0.25-0.375 0.375 0.125-0.125q0.125-0.125 0.21875-0.28125l0.09375-0.15625-0.09374 0.15626 0.56249 0.56249 0.15626-0.09374-0.15625 0.09375q-0.15626 0.09374-0.28126 0.21874l-0.125 0.125 0.375-0.375-0.25 0.25q-0.25 0.25-0.5 0.5l-0.25 0.25-0.5-0.5625-0.125 0.0625 0.125-0.0625q0.125-0.0625 0.25-0.1875l0.125-0.125-0.375 0.375 0.25-0.25m0.1875 0.8125 0.4375-0.4375-0.125 0.125q-0.125 0.125-0.25 0.25l-0.125 0.125 0.0625-0.0625" fill="#535353" fill-opacity=".8"/>
  <path d="m13 12.5q0.25-0.25 0.625-0.375l0.375-0.125-0.125 0.375q-0.125 0.375-0.375 0.625l-0.25 0.25 0.375-0.375-0.125 0.125q-0.125 0.125-0.21875 0.28125l-0.09375 0.15625 0.09374-0.15626-0.53124-0.53124 0.25-0.25m-0.0625 0.0625-0.3125 0.3125 0.125-0.125q0.125-0.125 0.25-0.25l0.125-0.125-0.1875 0.1875" fill="#434343" fill-opacity=".28235"/>
  <path d="m1 13.5q0-0.5 0.375-0.375t0.5 0.5l0.125 0.375h-1v-0.5" fill="#1b1b1b" fill-opacity=".1098"/>
  <path d="m1.875 13.625-0.125-0.375 0.1875 0.5625-0.0625-0.1875q-0.0625-0.1875-0.1875-0.3125l-0.125-0.125 0.125 0.125 0.59375-0.59375-0.09375-0.15625 0.09375 0.15625q0.09375 0.15625 0.21875 0.28125l0.125 0.125-0.375-0.375 0.25 0.25q0.25 0.25 0.375 0.625l0.125 0.375h-1l-0.125-0.375" fill="#1b1b1b" fill-opacity=".14902"/>
  <path d="m2.875 13.625-0.125-0.375 0.1875 0.5625-0.0625-0.1875q-0.0625-0.1875-0.15625-0.34375l-0.09375-0.15625 0.09375 0.15625 0.53125-0.53125 0.25 0.25q0.25 0.25 0.5 0.5l0.25 0.25-0.375-0.375 0.125 0.125q0.125 0.125 0.25 0.1875l0.125 0.0625-0.125-0.0625-0.25 0.28125q-0.25 0.28125-0.625 0.15625l-0.375-0.125-0.125-0.375m0.5625-0.6875-0.3125-0.3125 0.125 0.125q0.125 0.125 0.25 0.25l0.125 0.125-0.1875-0.1875" fill="#333" fill-opacity=".39216"/>
  <path d="m4 13.5-0.25-0.25 0.5-0.5625-0.125-0.0625 0.125 0.0625q0.125 0.0625 0.25 0.0625h0.125-0.375 0.5-0.375 0.125q0.125 0 0.25-0.0625l0.125-0.0625-0.125 0.0625 0.5 0.5625-0.25 0.25q-0.25 0.25-0.5 0.25t-0.5-0.25m1.0625-0.0625 0.3125-0.3125-0.125 0.125q-0.125 0.125-0.25 0.25l-0.125 0.125 0.1875-0.1875m-1.375-0.25 0.4375 0.4375-0.125-0.125q-0.125-0.125-0.25-0.25l-0.125-0.125 0.0625 0.0625" fill="#494949" fill-opacity=".8"/>
  <path d="m5 13.5q0.25-0.25 0.5-0.5l0.25-0.25 0.53125 0.53125 0.09375-0.15625-0.09375 0.15625q-0.09375 0.15625-0.15625 0.34375l-0.0625 0.1875 0.1875-0.5625-0.25 0.75-0.75 0.25 0.5625-0.1875-0.1875 0.0625q-0.1875 0.0625-0.3125 0.1875l-0.125 0.125 0.125-0.125-0.5625-0.625-0.125 0.0625 0.125-0.0625q0.125-0.0625 0.25-0.1875l0.125-0.125-0.375 0.375 0.25-0.25m0.8125-0.8125-0.4375 0.4375 0.125-0.125q0.125-0.125 0.25-0.25l0.125-0.125-0.0625 0.0625" fill="#323232" fill-opacity=".38039"/>
  <path d="m6.125 13.625q0.125-0.375 0.375-0.625l0.25-0.25 0.5625 0.5625 0.125-0.125-0.125 0.125q-0.125 0.125-0.1875 0.3125l-0.0625 0.1875 0.1875-0.5625-0.25 0.75h-1l0.125-0.375m0.6875-0.9375-0.4375 0.4375 0.125-0.125q0.125-0.125 0.25-0.25l0.125-0.125-0.0625 0.0625" fill="#1c1c1c" fill-opacity=".14118"/>
  <path d="m7.125 13.625q0.125-0.375 0.5-0.5l0.375-0.125v1h-1l0.125-0.375" fill="#1a1a1a" fill-opacity=".11373"/>
  <path d="m8 13.5v-0.5l0.375 0.125q0.375 0.125 0.5 0.5l0.125 0.375h-1v-0.5" fill="#1c1c1c" fill-opacity=".10588"/>
  <path d="m8.875 13.625-0.125-0.375 0.1875 0.5625-0.0625-0.1875q-0.0625-0.1875-0.1875-0.3125l-0.125-0.125 0.125 0.125 0.5625-0.5625 0.25 0.25q0.25 0.25 0.375 0.625l0.125 0.375h-1l-0.125-0.375m0.5625-0.6875-0.3125-0.3125 0.125 0.125q0.125 0.125 0.25 0.25l0.125 0.125-0.1875-0.1875" fill="#171717" fill-opacity=".12941"/>
  <path d="m9.875 13.625-0.125-0.375 0.1875 0.5625-0.0625-0.1875q-0.0625-0.1875-0.15625-0.34375l-0.09375-0.15625 0.09375 0.15625 0.53125-0.53125 0.25 0.25q0.25 0.25 0.5 0.5l0.25 0.25-0.375-0.375 0.125 0.125q0.125 0.125 0.25 0.1875l0.125 0.0625-0.125-0.0625-0.5625 0.625 0.125 0.125-0.125-0.125q-0.125-0.125-0.3125-0.1875l-0.1875-0.0625 0.5625 0.1875-0.75-0.25-0.125-0.375m0.5625-0.6875-0.3125-0.3125 0.125 0.125q0.125 0.125 0.25 0.25l0.125 0.125-0.1875-0.1875" fill="#353535" fill-opacity=".37647"/>
  <path d="m11 13.5-0.25-0.25 0.5-0.5625-0.125-0.0625 0.125 0.0625q0.125 0.0625 0.25 0.0625h0.125-0.375 0.5-0.375 0.125q0.125 0 0.25-0.0625l0.125-0.0625-0.125 0.0625 0.5 0.5625-0.25 0.25q-0.25 0.25-0.5 0.25t-0.5-0.25m1.0625-0.0625 0.3125-0.3125-0.125 0.125q-0.125 0.125-0.25 0.25l-0.125 0.125 0.1875-0.1875m-1.375-0.25 0.4375 0.4375-0.125-0.125q-0.125-0.125-0.25-0.25l-0.125-0.125 0.0625 0.0625" fill="#494949" fill-opacity=".8"/>
  <path d="m12 13.5q0.25-0.25 0.5-0.5l0.25-0.25 0.53125 0.53125 0.04687-0.07813 0.04688-0.07812-0.09375 0.15625q-0.09375 0.15625-0.15625 0.34375l-0.0625 0.1875 0.1875-0.5625-0.25 0.75-0.375 0.125q-0.375 0.125-0.625-0.15625l-0.25-0.28125-0.125 0.0625 0.125-0.0625q0.125-0.0625 0.25-0.1875l0.125-0.125-0.375 0.375 0.25-0.25m0.8125-0.8125-0.4375 0.4375 0.125-0.125q0.125-0.125 0.25-0.25l0.125-0.125-0.0625 0.0625" fill="#333" fill-opacity=".39216"/>
  <path d="m13.125 13.625q0.125-0.375 0.375-0.625l0.25-0.25-0.375 0.375 0.125-0.125q0.125-0.125 0.21875-0.28125l0.09375-0.15625-0.09374 0.15626 0.59375 0.59375 0.125-0.125-0.125 0.125q-0.125 0.125-0.1875 0.3125l-0.06251 0.18749 0.1875-0.5625-0.25 0.75h-1l0.125-0.375" fill="#1a1a1a" fill-opacity=".15294"/>
  <path d="m14.125 13.625q0.125-0.375 0.5-0.5t0.375 0.375v0.5h-1l0.125-0.375" fill="#1b1b1b" fill-opacity=".1098"/>
  <path d="m1 14.5v-0.5h1v1h-0.5q-0.5 0-0.5-0.5" fill="#121212" fill-opacity=".054902"/>
  <path d="m2 14.5v-0.5h1v1h-1v-0.5" fill="#1b1b1b" fill-opacity=".07451"/>
  <path d="m3 14.5v-0.5l0.375 0.125q0.375 0.125 0.625-0.15625l0.25-0.28125-0.125-0.0625 0.125 0.0625q0.125 0.0625 0.25 0.0625h0.125-0.375 0.5-0.375 0.125q0.125 0 0.25-0.0625l0.125-0.0625-0.125 0.0625 0.5625 0.625 0.125-0.125-0.125 0.125q-0.125 0.125-0.1875 0.3125l-0.0625 0.1875 0.1875-0.5625-0.25 0.75h-0.5q-0.5 0-1 0h-0.5v-0.5" fill="#141414" fill-opacity=".098039"/>
  <path d="m5.125 14.625q0.125-0.375 0.5-0.5l0.375-0.125v1h-1l0.125-0.375" fill="#171717" fill-opacity=".086275"/>
  <path d="m6 14.5v-0.5h1v1h-1v-0.5" fill="#1c1c1c" fill-opacity=".070588"/>
  <path d="m7 14.5v-0.5h1v1h-1v-0.5" fill="#111" fill-opacity=".058824"/>
  <path d="m8 14.5v-0.5h1v1h-1v-0.5" fill="#121212" fill-opacity=".054902"/>
  <path d="m9 14.5v-0.5h1v1h-1v-0.5" fill="#1e1e1e" fill-opacity=".066667"/>
  <path d="m10 14.5v-0.5l0.375 0.125q0.375 0.125 0.5 0.5l0.125 0.375h-1v-0.5" fill="#181818" fill-opacity=".082353"/>
  <path d="m10.875 14.625-0.125-0.375 0.1875 0.5625-0.0625-0.1875q-0.0625-0.1875-0.1875-0.3125l-0.125-0.125 0.125 0.125 0.5625-0.625-0.125-0.0625 0.125 0.0625q0.125 0.0625 0.25 0.0625h0.125-0.375 0.5-0.375 0.125q0.125 0 0.25-0.0625l0.125-0.0625-0.125 0.0625 0.25 0.28125q0.25 0.28125 0.625 0.15625l0.375-0.125v1h-0.5q-0.5 0-1 0h-0.5l-0.125-0.375" fill="#141414" fill-opacity=".098039"/>
  <path d="m13 14.5v-0.5h1v1h-1v-0.5" fill="#1a1a1a" fill-opacity=".078431"/>
  <path d="m14 14.5v-0.5h1v0.5q0 0.5-0.5 0.5h-0.5v-0.5" fill="#121212" fill-opacity=".054902"/>
 </g>
</svg>
