<?xml version="1.0" encoding="UTF-8"?>
<!-- Created with Inkscape (http://www.inkscape.org/) -->
<svg id="SVGRoot" width="256px" height="256px" enable-background="new" version="1.1" viewBox="0 0 256 256" xmlns="http://www.w3.org/2000/svg" xmlns:cc="http://creativecommons.org/ns#" xmlns:dc="http://purl.org/dc/elements/1.1/" xmlns:rdf="http://www.w3.org/1999/02/22-rdf-syntax-ns#">
 <defs>
  <filter id="filter2105" color-interpolation-filters="sRGB">
   <feComposite in2="SourceGraphic" k2="1" operator="arithmetic" result="composite1"/>
   <feColorMatrix in="composite1" result="colormatrix1" type="saturate" values="1"/>
   <feFlood flood-color="rgb(224,0,0)" result="flood1"/>
   <feBlend in="flood1" in2="colormatrix1" mode="screen" result="blend1"/>
   <feBlend in2="blend1" mode="multiply" result="blend2"/>
   <feColorMatrix in="blend2" result="colormatrix2" type="saturate" values="1"/>
   <feComposite in="colormatrix2" in2="SourceGraphic" k2="1" operator="in" result="composite2"/>
  </filter>
 </defs>
 <metadata>
  <rdf:RDF>
   <cc:Work rdf:about="">
    <dc:format>image/svg+xml</dc:format>
    <dc:type rdf:resource="http://purl.org/dc/dcmitype/StillImage"/>
    <dc:title/>
   </cc:Work>
  </rdf:RDF>
 </metadata>
 <g filter="url(#filter2105)">
  <g transform="matrix(15.719,0,0,15.719,2.5,2)" stroke-width=".063618">
   <path d="m0 0.5v-0.5h16v8h-1.5q-0.5 0-0.875-0.125t-0.5-0.5l-0.125-0.375v-1l-0.125-0.375q-0.125-0.375-0.375-0.625t-0.375-0.625l-0.25-0.75q-0.125-0.375-0.5-0.5l-0.75-0.25q-0.375-0.125-0.625-0.375t-0.625-0.375l-0.375-0.125h-5l-0.375 0.125q-0.375 0.125-0.625 0.375t-0.625 0.375l-0.75 0.25q-0.375 0.125-0.5 0.5l-0.25 0.75q-0.125 0.375-0.5 0.5l-0.375 0.125v-4.5" fill-opacity="0"/>
   <path d="M 3,2.5 Q 3.25,2.25 3.625,2.125 L 4,2 V 3 L 3.25,3.25 3.8125,3.0625 3.625,3.125 Q 3.4375,3.1875 3.3125,3.3125 L 3.1875,3.4375 3.3125,3.3125 2.71875,2.71875 2.5625,2.8125 2.71875,2.71875 Q 2.875,2.625 3,2.5 L 3.125,2.375 2.75,2.75 3,2.5" fill="#959595" fill-opacity=".20784"/>
   <path d="m4 2.5v-0.5h1v1h-1v-0.5" fill="#949494" fill-opacity=".55294"/>
   <path d="m5 2.5v-0.5h1l-0.125 0.375q-0.125 0.375-0.5 0.5l-0.375 0.125v-0.5" fill="#959595" fill-opacity=".71373"/>
   <path d="M 5.875,2.375 6,2 H 7 L 7.25,2.75 7.0625,2.1875 7.125,2.375 Q 7.1875,2.5625 7.3125,2.6875 L 7.4375,2.8125 7.3125,2.6875 6.71875,3.34375 6.8125,3.4375 6.71875,3.34375 Q 6.625,3.25 6.5,3.25 H 6.375 6.75 6.25 6.625 6.5 q -0.125,0 -0.1875,0.0625 L 6.25,3.375 6.3125,3.3125 5.6875,2.6875 5.5625,2.8125 5.6875,2.6875 Q 5.8125,2.5625 5.875,2.375 L 5.9375,2.1875 5.75,2.75 5.875,2.375" fill="#949494" fill-opacity=".78824"/>
   <path d="m7.125 2.375-0.125-0.375h1v1l-0.375-0.125q-0.375-0.125-0.5-0.5" fill="#959595" fill-opacity=".71373"/>
   <path d="m8 2.5v-0.5h1v1h-1v-0.5" fill="#949494" fill-opacity=".55294"/>
   <path d="M 9,2.5 V 2 L 9.375,2.125 Q 9.75,2.25 10,2.5 L 10.25,2.75 9.875,2.375 10,2.5 q 0.125,0.125 0.28125,0.21875 L 10.4375,2.8125 10.28125,2.71875 9.71875,3.28125 9.875,3.375 9.71875,3.28125 Q 9.5625,3.1875 9.375,3.125 L 9.1875,3.0625 9.75,3.25 9,3 V 2.5" fill="#959595" fill-opacity=".20784"/>
   <path d="m1.125 3.625q0.125-0.375 0.5-0.5l0.375-0.125v1h-1l0.125-0.375" fill="#999" fill-opacity=".039216"/>
   <path d="M 2,3.5 V 3 L 2.75,2.75 2.1875,2.9375 2.375,2.875 Q 2.5625,2.8125 2.71875,2.71875 L 2.875,2.625 2.71875,2.71875 3.3125,3.3125 3.4375,3.1875 3.3125,3.3125 Q 3.1875,3.4375 3.125,3.625 L 3.0625,3.8125 3.25,3.25 3,4 H 2 V 3.5" fill="#8f8f8f" fill-opacity=".47451"/>
   <path d="M 3.125,3.625 Q 3.25,3.25 3.625,3.125 L 4,3 3.875,3.375 Q 3.75,3.75 3.375,3.875 L 3,4 3.125,3.625" fill="#9b9b9b" fill-opacity=".82745"/>
   <path d="M 3.875,3.375 4,3 H 5 L 5.25,3.75 5.0625,3.1875 5.125,3.375 Q 5.1875,3.5625 5.28125,3.71875 L 5.375,3.875 5.28125,3.71875 4.71875,4.34375 4.8125,4.4375 4.71875,4.34375 Q 4.625,4.25 4.5,4.25 H 4.375 4.75 4.25 4.625 4.5 q -0.125,0 -0.21875,0.09375 L 4.1875,4.4375 4.28125,4.34375 3.6875,3.6875 3.5625,3.8125 3.6875,3.6875 Q 3.8125,3.5625 3.875,3.375 L 3.9375,3.1875 3.75,3.75 3.875,3.375" fill="#b7b7b7" fill-opacity=".92549"/>
   <path d="M 5.125,3.375 5,3 5.75,2.75 5.1875,2.9375 5.375,2.875 Q 5.5625,2.8125 5.6875,2.6875 l 0.125,-0.125 -0.125,0.125 0.625,0.625 L 6.375,3.25 6.3125,3.3125 Q 6.25,3.375 6.25,3.5 V 3.625 3.25 3.75 3.375 3.5 q 0,0.125 0.09375,0.21875 L 6.4375,3.8125 6.34375,3.71875 5.75,4.25 5.5,4 Q 5.25,3.75 5.125,3.375 M 5.5625,4.0625 5.875,4.375 5.75,4.25 Q 5.625,4.125 5.5,4 L 5.375,3.875 5.5625,4.0625" fill="#c4c4c4" fill-opacity=".97647"/>
   <path d="m6.25 3.5q0-0.25 0.25-0.25t0.375 0.375l0.125 0.375-0.375-0.125q-0.375-0.125-0.375-0.375" fill="#c7c7c7" fill-opacity=".99608"/>
   <path d="M 6.875,3.625 6.75,3.25 6.9375,3.8125 6.875,3.625 Q 6.8125,3.4375 6.71875,3.34375 L 6.625,3.25 6.71875,3.34375 7.3125,2.6875 7.1875,2.5625 7.3125,2.6875 Q 7.4375,2.8125 7.625,2.875 L 7.8125,2.9375 7.25,2.75 8,3 V 4 H 7 L 6.875,3.625" fill="#c2c2c2" fill-opacity=".97647"/>
   <path d="m8 3.5v-0.5h1v1h-1v-0.5" fill="#b6b6b6" fill-opacity=".92549"/>
   <path d="M 9,3.5 V 3 L 9.375,3.125 Q 9.75,3.25 10,3.5 L 10.25,3.75 9.875,3.375 10,3.5 q 0.125,0.125 0.28125,0.21875 L 10.4375,3.8125 10.28125,3.71875 9.6875,4.3125 9.8125,4.4375 9.6875,4.3125 Q 9.5625,4.1875 9.375,4.125 L 9.1875,4.0625 9.75,4.25 9,4 V 3.5" fill="#9b9b9b" fill-opacity=".82745"/>
   <path d="M 10,3.5 9.75,3.25 10.125,3.625 10,3.5 Q 9.875,3.375 9.71875,3.28125 L 9.5625,3.1875 9.71875,3.28125 10.28125,2.71875 10.125,2.625 10.28125,2.71875 Q 10.4375,2.8125 10.625,2.875 L 10.8125,2.9375 10.25,2.75 11,3 V 4 L 10.625,3.875 Q 10.25,3.75 10,3.5" fill="#8f8f8f" fill-opacity=".47451"/>
   <path d="m11 3.5v-0.5l0.375 0.125q0.375 0.125 0.5 0.5l0.125 0.375h-1v-0.5" fill="#999" fill-opacity=".039216"/>
   <path d="m0.875 4.375 0.125-0.375h1v1l-0.75 0.25 0.5625-0.1875-0.1875 0.0625q-0.1875 0.0625-0.3125 0.1875l-0.125 0.125 0.125-0.125-0.625-0.625-0.125 0.125 0.125-0.125q0.125-0.125 0.1875-0.3125l0.0625-0.1875-0.1875 0.5625 0.125-0.375" fill="#898989" fill-opacity=".47451"/>
   <path d="m2 4.5v-0.5h1v1h-1v-0.5" fill="#909090" fill-opacity=".81176"/>
   <path d="M 3,4.5 V 4 L 3.75,3.75 3.1875,3.9375 3.375,3.875 Q 3.5625,3.8125 3.6875,3.6875 L 3.8125,3.5625 3.6875,3.6875 4.28125,4.34375 4.375,4.25 4.28125,4.34375 Q 4.1875,4.4375 4.125,4.625 L 4.0625,4.8125 4.25,4.25 4,5 H 3 V 4.5" fill="#8f8f8f" fill-opacity=".82745"/>
   <path d="m4.125 4.625q0.125-0.375 0.375-0.375t0.375 0.375l0.125 0.375h-1l0.125-0.375" fill="#808080" fill-opacity=".80784"/>
   <path d="M 4.875,4.625 4.75,4.25 4.9375,4.8125 4.875,4.625 Q 4.8125,4.4375 4.71875,4.34375 L 4.625,4.25 4.71875,4.34375 5.28125,3.71875 5.1875,3.5625 5.28125,3.71875 Q 5.375,3.875 5.5,4 L 5.625,4.125 5.25,3.75 5.5,4 Q 5.75,4.25 6,4.5 L 6.25,4.75 5.71875,5.28125 5.875,5.375 5.71875,5.28125 Q 5.5625,5.1875 5.375,5.125 L 5.1875,5.0625 5.75,5.25 5,5 4.875,4.625 M 6.3125,4.8125 5.875,4.375 6,4.5 Q 6.125,4.625 6.25,4.75 L 6.375,4.875 6.3125,4.8125" fill="#868686" fill-opacity=".83137"/>
   <path d="M 6,4.5 5.75,4.25 6.34375,3.71875 6.25,3.625 6.34375,3.71875 Q 6.4375,3.8125 6.625,3.875 L 6.8125,3.9375 6.25,3.75 7,4 7.25,4.75 7.0625,4.1875 7.125,4.375 Q 7.1875,4.5625 7.28125,4.71875 L 7.375,4.875 7.28125,4.71875 6.71875,5.28125 6.8125,5.4375 6.71875,5.28125 Q 6.625,5.125 6.5,5 L 6.375,4.875 6.75,5.25 6.5,5 Q 6.25,4.75 6,4.5 M 5.6875,4.1875 6.125,4.625 6,4.5 Q 5.875,4.375 5.75,4.25 L 5.625,4.125 5.6875,4.1875" fill="#a0a0a0" fill-opacity=".90196"/>
   <g fill="#c0c0c0">
    <path d="M 7.125,4.375 7,4 H 8 L 8.25,4.75 8.0625,4.1875 8.125,4.375 Q 8.1875,4.5625 8.3125,4.6875 L 8.4375,4.8125 8.3125,4.6875 7.75,5.25 7.5,5 Q 7.25,4.75 7.125,4.375 M 7.5625,5.0625 7.875,5.375 7.75,5.25 Q 7.625,5.125 7.5,5 L 7.375,4.875 7.5625,5.0625" fill-opacity=".98824"/>
    <path d="m8.125 4.375-0.125-0.375h1v1l-0.375-0.125q-0.375-0.125-0.5-0.5"/>
    <path d="m9 4.5v-0.5l0.375 0.125q0.375 0.125 0.5 0.5l0.125 0.375h-1v-0.5" fill-opacity=".98824"/>
   </g>
   <path d="M 9.875,4.625 9.75,4.25 9.9375,4.8125 9.875,4.625 Q 9.8125,4.4375 9.6875,4.3125 L 9.5625,4.1875 9.6875,4.3125 10.28125,3.71875 10.125,3.625 10.28125,3.71875 Q 10.4375,3.8125 10.625,3.875 L 10.8125,3.9375 10.25,3.75 11,4 11.25,4.75 11.0625,4.1875 11.125,4.375 q 0.0625,0.1875 0.15625,0.34375 L 11.375,4.875 11.28125,4.71875 10.6875,5.3125 l 0.125,0.125 -0.125,-0.125 Q 10.5625,5.1875 10.375,5.125 L 10.1875,5.0625 10.75,5.25 10,5 9.875,4.625" fill="#a2a2a2" fill-opacity=".86667"/>
   <path d="M 11.125,4.375 11,4 h 1 L 12.25,4.75 12.0625,4.1875 12.125,4.375 q 0.0625,0.1875 0.15625,0.34375 L 12.375,4.875 12.28125,4.71875 11.71875,5.28125 11.8125,5.4375 11.71875,5.28125 Q 11.625,5.125 11.5,5 L 11.375,4.875 11.75,5.25 11.5,5 Q 11.25,4.75 11.125,4.375" fill="#898989" fill-opacity=".47451"/>
   <path d="m0 5.5v-0.5l0.75-0.25-0.5625 0.1875 0.1875-0.0625q0.1875-0.0625 0.3125-0.1875l0.125-0.125-0.125 0.125 0.625 0.625 0.125-0.125-0.125 0.125q-0.125 0.125-0.1875 0.3125l-0.0625 0.1875 0.1875-0.5625-0.25 0.75h-1v-0.5" fill="#828282" fill-opacity=".22353"/>
   <path d="m1.125 5.625q0.125-0.375 0.5-0.5l0.375-0.125v1h-1l0.125-0.375" fill="#8f8f8f" fill-opacity=".8"/>
   <path d="m2 5.5v-0.5h1l-0.125 0.375q-0.125 0.375-0.5 0.5l-0.375 0.125v-0.5" fill="#8a8a8a" fill-opacity=".51373"/>
   <path d="M 2.875,5.375 3,5 H 4 V 6 L 3.25,6.25 3.8125,6.0625 3.625,6.125 Q 3.4375,6.1875 3.28125,6.28125 L 3.125,6.375 3.28125,6.28125 2.6875,5.6875 2.5625,5.8125 2.6875,5.6875 Q 2.8125,5.5625 2.875,5.375 L 2.9375,5.1875 2.75,5.75 2.875,5.375" fill="#868686" fill-opacity=".14902"/>
   <path d="m4 5.5v-0.5h1v1h-1v-0.5" fill="#6d6d6d" fill-opacity=".027451"/>
   <path d="M 5,5.5 V 5 L 5.375,5.125 Q 5.75,5.25 6,5.5 L 6.25,5.75 5.875,5.375 6,5.5 Q 6.125,5.625 6.28125,5.71875 L 6.4375,5.8125 6.28125,5.71875 5.71875,6.28125 5.875,6.375 5.71875,6.28125 Q 5.5625,6.1875 5.375,6.125 L 5.1875,6.0625 5.75,6.25 5,6 V 5.5" fill="#727272" fill-opacity=".14902"/>
   <path d="M 6,5.5 5.75,5.25 6.125,5.625 6,5.5 Q 5.875,5.375 5.71875,5.28125 L 5.5625,5.1875 5.71875,5.28125 6.25,4.75 6.5,5 Q 6.75,5.25 6.875,5.625 L 7,6 6.625,5.875 Q 6.25,5.75 6,5.5 M 6.4375,4.9375 6.125,4.625 6.25,4.75 Q 6.375,4.875 6.5,5 L 6.625,5.125 6.4375,4.9375" fill="#6f6f6f" fill-opacity=".51373"/>
   <path d="M 6.875,5.625 6.75,5.25 6.9375,5.8125 6.875,5.625 Q 6.8125,5.4375 6.71875,5.28125 L 6.625,5.125 6.71875,5.28125 7.28125,4.71875 7.1875,4.5625 7.28125,4.71875 Q 7.375,4.875 7.5,5 L 7.625,5.125 7.25,4.75 7.5,5 Q 7.75,5.25 8,5.5 L 8.25,5.75 7.875,5.375 8,5.5 Q 8.125,5.625 8.28125,5.71875 L 8.4375,5.8125 8.28125,5.71875 7.71875,6.28125 7.875,6.375 7.71875,6.28125 Q 7.5625,6.1875 7.375,6.125 L 7.1875,6.0625 7.75,6.25 7,6 6.875,5.625" fill="#848484" fill-opacity=".85098"/>
   <path d="M 8,5.5 7.75,5.25 8.3125,4.6875 8.1875,4.5625 8.3125,4.6875 Q 8.4375,4.8125 8.625,4.875 L 8.8125,4.9375 8.25,4.75 9,5 V 6 L 8.625,5.875 Q 8.25,5.75 8,5.5 M 7.6875,5.1875 8.125,5.625 8,5.5 Q 7.875,5.375 7.75,5.25 L 7.625,5.125 7.6875,5.1875" fill="#bcbcbc" fill-opacity=".98824"/>
   <path d="m9 5.5v-0.5h1v1h-1v-0.5" fill="#bababa"/>
   <path d="m10 5.5v-0.5l0.375 0.125q0.375 0.125 0.5 0.5l0.125 0.375h-1v-0.5" fill="#bcbcbc" fill-opacity=".98824"/>
   <path d="M 10.875,5.625 10.75,5.25 10.9375,5.8125 10.875,5.625 Q 10.8125,5.4375 10.6875,5.3125 l -0.125,-0.125 0.125,0.125 L 11.28125,4.71875 11.1875,4.5625 11.28125,4.71875 Q 11.375,4.875 11.5,5 L 11.625,5.125 11.25,4.75 11.5,5 q 0.25,0.25 0.375,0.625 L 12,6 H 11 L 10.875,5.625" fill="#909090" fill-opacity=".82745"/>
   <path d="M 11.875,5.625 11.75,5.25 11.9375,5.8125 11.875,5.625 Q 11.8125,5.4375 11.71875,5.28125 L 11.625,5.125 11.71875,5.28125 12.28125,4.71875 12.1875,4.5625 12.28125,4.71875 Q 12.375,4.875 12.5,5 L 12.625,5.125 12.25,4.75 12.5,5 q 0.25,0.25 0.375,0.625 L 13,6 H 12 L 11.875,5.625" fill="#828282" fill-opacity=".20784"/>
   <path d="m0 6.5v-0.5h1v1h-1v-0.5" fill="#8a8a8a" fill-opacity=".59608"/>
   <path d="m1 6.5v-0.5h1l-0.125 0.375q-0.125 0.375-0.5 0.5l-0.375 0.125v-0.5" fill="#909090" fill-opacity=".51373"/>
   <path d="M 1.875,6.375 2,6 2.75,5.75 2.1875,5.9375 2.375,5.875 Q 2.5625,5.8125 2.6875,5.6875 L 2.8125,5.5625 2.6875,5.6875 3.28125,6.28125 3.4375,6.1875 3.28125,6.28125 Q 3.125,6.375 3,6.5 L 2.875,6.625 3.25,6.25 3,6.5 Q 2.75,6.75 2.5,7 L 2.25,7.25 1.6875,6.6875 1.5625,6.8125 1.6875,6.6875 Q 1.8125,6.5625 1.875,6.375 L 1.9375,6.1875 1.75,6.75 1.875,6.375 M 2.1875,7.3125 2.625,6.875 2.5,7 Q 2.375,7.125 2.25,7.25 L 2.125,7.375 2.1875,7.3125" fill="#aaa" fill-opacity=".011765"/>
   <path d="m3 6.5q0.25-0.25 0.625-0.375l0.375-0.125h1l0.375 0.125q0.375 0.125 0.625 0.375t0.5 0.5 0.25 0.5-0.375 0.375l-0.75 0.25q-0.375 0.125-0.625 0.375t-0.625 0.375l-0.375 0.125h-2l-0.375-0.125q-0.375-0.125-0.375-0.375t0.25-0.5 0.5-0.5 0.5-0.5 0.5-0.5" fill-opacity="0"/>
   <path d="M 6,6.5 5.75,6.25 6.125,6.625 6,6.5 Q 5.875,6.375 5.71875,6.28125 L 5.5625,6.1875 5.71875,6.28125 6.28125,5.71875 6.125,5.625 6.28125,5.71875 Q 6.4375,5.8125 6.625,5.875 L 6.8125,5.9375 6.25,5.75 7,6 7.25,6.75 7.0625,6.1875 7.125,6.375 Q 7.1875,6.5625 7.28125,6.71875 L 7.375,6.875 7.28125,6.71875 6.6875,7.25 6.75,7.375 6.6875,7.25 Q 6.625,7.125 6.5,7 L 6.375,6.875 6.75,7.25 6.5,7 Q 6.25,6.75 6,6.5" fill="#555" fill-opacity=".011765"/>
   <path d="M 7.125,6.375 7,6 7.375,6.125 Q 7.75,6.25 8,6.5 L 8.25,6.75 7.71875,7.28125 7.8125,7.4375 7.71875,7.28125 Q 7.625,7.125 7.5,7 L 7.375,6.875 7.75,7.25 7.5,7 Q 7.25,6.75 7.125,6.375 M 8.3125,6.8125 7.875,6.375 8,6.5 Q 8.125,6.625 8.25,6.75 L 8.375,6.875 8.3125,6.8125" fill="#656565" fill-opacity=".51373"/>
   <path d="M 8,6.5 7.75,6.25 8.125,6.625 8,6.5 Q 7.875,6.375 7.71875,6.28125 L 7.5625,6.1875 7.71875,6.28125 8.28125,5.71875 8.125,5.625 8.28125,5.71875 Q 8.4375,5.8125 8.625,5.875 L 8.8125,5.9375 8.25,5.75 9,6 9.25,6.75 9.0625,6.1875 9.125,6.375 Q 9.1875,6.5625 9.3125,6.6875 L 9.4375,6.8125 9.3125,6.6875 8.75,7.25 8.5,7 Q 8.25,6.75 8,6.5 M 8.5625,7.0625 8.875,7.375 8.75,7.25 Q 8.625,7.125 8.5,7 L 8.375,6.875 8.5625,7.0625" fill="#969696" fill-opacity=".89804"/>
   <path d="m9.125 6.375-0.125-0.375h1v1l-0.375-0.125q-0.375-0.125-0.5-0.5" fill="#b7b7b7"/>
   <path d="m10 6.5v-0.5h1v1h-1v-0.5" fill="#b6b6b6"/>
   <path d="m11 6.5v-0.5h1l-0.125 0.375q-0.125 0.375-0.5 0.5l-0.375 0.125v-0.5" fill="#a9a9a9" fill-opacity=".92549"/>
   <path d="m11.875 6.375 0.125-0.375h1v1l-0.75 0.25 0.5625-0.1875-0.1875 0.0625q-0.1875 0.0625-0.3125 0.1875l-0.125 0.125 0.125-0.125-0.625-0.625-0.125 0.125 0.125-0.125q0.125-0.125 0.1875-0.3125l0.0625-0.1875-0.1875 0.5625 0.125-0.375" fill="#7d7d7d" fill-opacity=".55294"/>
   <path d="m0 7.5v-0.5h1l-0.125 0.375q-0.125 0.375-0.5 0.5l-0.375 0.125v-0.5" fill="#949494" fill-opacity=".77255"/>
   <path d="M 0.875,7.375 1,7 1.75,6.75 1.1875,6.9375 1.375,6.875 Q 1.5625,6.8125 1.6875,6.6875 L 1.8125,6.5625 1.6875,6.6875 2.25,7.25 2,7.5 Q 1.75,7.75 1.5,8 L 1.25,8.25 1.625,7.875 1.5,8 Q 1.375,8.125 1.3125,8.25 L 1.25,8.375 1.3125,8.25 0.6875,7.6875 0.5625,7.8125 0.6875,7.6875 Q 0.8125,7.5625 0.875,7.375 L 0.9375,7.1875 0.75,7.75 0.875,7.375 M 2.0625,7.4375 2.375,7.125 2.25,7.25 Q 2.125,7.375 2,7.5 L 1.875,7.625 2.0625,7.4375" fill="#949494" fill-opacity=".14902"/>
   <path d="M 6.75,7.5 V 7.25 7.625 7.5 Q 6.75,7.375 6.6875,7.25 L 6.625,7.125 6.6875,7.25 7.28125,6.71875 7.1875,6.5625 7.28125,6.71875 Q 7.375,6.875 7.5,7 L 7.625,7.125 7.25,6.75 7.5,7 Q 7.75,7.25 7.875,7.625 L 8,8 7.625,8.125 Q 7.25,8.25 6.95312,7.98438 L 6.65624,7.71876 6.56249,7.81251 6.65624,7.71876 Q 6.74999,7.62501 6.74999,7.50001 v -0.125 0.375 -0.25" fill="#656565" fill-opacity=".14902"/>
   <path d="M 7.875,7.625 7.75,7.25 7.9375,7.8125 7.875,7.625 Q 7.8125,7.4375 7.71875,7.28125 L 7.625,7.125 7.71875,7.28125 8.25,6.75 8.5,7 Q 8.75,7.25 9,7.5 L 9.25,7.75 8.875,7.375 9,7.5 Q 9.125,7.625 9.28125,7.71875 L 9.4375,7.8125 9.28125,7.71875 8.65625,8.28125 8.75,8.375 8.65625,8.28125 Q 8.5625,8.1875 8.375,8.125 L 8.1875,8.0625 8.75,8.25 8,8 7.875,7.625 M 8.4375,6.9375 8.125,6.625 8.25,6.75 Q 8.375,6.875 8.5,7 L 8.625,7.125 8.4375,6.9375" fill="#707070" fill-opacity=".83137"/>
   <path d="M 9,7.5 8.75,7.25 9.3125,6.6875 9.1875,6.5625 9.3125,6.6875 Q 9.4375,6.8125 9.625,6.875 L 9.8125,6.9375 9.25,6.75 10,7 V 8 L 9.625,7.875 Q 9.25,7.75 9,7.5 M 8.6875,7.1875 9.125,7.625 9,7.5 Q 8.875,7.375 8.75,7.25 L 8.625,7.125 8.6875,7.1875" fill="#a0a0a0"/>
   <path d="m10 7.5v-0.5h1v1h-1v-0.5" fill="#8d8d8d"/>
   <path d="m11 7.5v-0.5l0.75-0.25-0.5625 0.1875 0.1875-0.0625q0.1875-0.0625 0.3125-0.1875l0.125-0.125-0.125 0.125 0.625 0.625 0.125-0.125-0.125 0.125q-0.125 0.125-0.1875 0.3125l-0.0625 0.1875 0.1875-0.5625-0.25 0.75h-1v-0.5" fill="#9b9b9b" fill-opacity=".98039"/>
   <path d="m 12.125,7.625 q 0.125,-0.375 0.5,-0.5 L 13,7 13.25,7.75 13.0625,7.1875 13.125,7.375 q 0.0625,0.1875 0.1875,0.3125 l 0.125,0.125 -0.125,-0.125 -0.28125,0.28125 Q 12.75,8.25 12.375,8.125 L 12,8 12.125,7.625" fill="#767676" fill-opacity=".71373"/>
   <path d="M 0,8.5 V 8 L 0.75,7.75 0.1875,7.9375 0.375,7.875 Q 0.5625,7.8125 0.6875,7.6875 L 0.8125,7.5625 0.6875,7.6875 1.3125,8.25 1.375,8.125 1.3125,8.25 Q 1.25,8.375 1.25,8.5 V 8.625 8.25 8.75 8.375 8.5 q 0,0.125 0.09375,0.21875 L 1.4375,8.8125 1.34375,8.71875 0.65625,9.28125 0.75,9.375 0.65625,9.28125 Q 0.5625,9.1875 0.375,9.125 L 0.1875,9.0625 0.75,9.25 0,9 V 8.5" fill="#7d7d7d" fill-opacity=".2"/>
   <path d="M 5,8.5 Q 5.25,8.25 5.625,8.125 L 6,8 V 9 L 5.25,9.25 5.8125,9.0625 5.625,9.125 Q 5.4375,9.1875 5.28125,9.28125 L 5.125,9.375 5.28125,9.28125 4.71875,8.71875 4.5625,8.8125 4.71875,8.71875 Q 4.875,8.625 5,8.5 L 5.125,8.375 4.75,8.75 5,8.5" fill="#6c6c6c" fill-opacity=".6"/>
   <path d="m6 8.5v-0.5l0.75-0.25-0.5625 0.1875 0.1875-0.0625q0.1875-0.0625 0.28125-0.15625l0.09375-0.09375-0.09375 0.09375 0.29688 0.26562q0.29688 0.26562 0.67188 0.14062l0.375-0.125 0.25 0.75-0.1875-0.5625 0.0625 0.1875q0.0625 0.1875 0.15625 0.28125l0.09375 0.09375-0.09375-0.09375-0.53125 0.65625 0.125 0.0625-0.125-0.0625q-0.125-0.0625-0.25-0.0625h-0.125 0.375-0.5 0.375-0.125q-0.125 0-0.1875 0.0625l-0.0625 0.0625 0.0625-0.0625-0.28125-0.28125q-0.28125-0.28125-0.65625-0.15625l-0.375 0.125v-0.5" fill="#6e6e6e" fill-opacity=".8"/>
   <path d="m8.125 8.375-0.125-0.375 0.375 0.125q0.375 0.125 0.375 0.375t-0.25 0.25-0.375-0.375" fill="#676767" fill-opacity=".8"/>
   <path d="M 8.75,8.5 V 8.25 8.625 8.5 Q 8.75,8.375 8.65625,8.28125 L 8.5625,8.1875 8.65625,8.28125 9.28125,7.71875 9.125,7.625 9.28125,7.71875 Q 9.4375,7.8125 9.625,7.875 L 9.8125,7.9375 9.25,7.75 10,8 V 9 L 9.25,9.25 9.8125,9.0625 9.625,9.125 Q 9.4375,9.1875 9.3125,9.3125 L 9.1875,9.4375 9.3125,9.3125 8.6875,8.6875 8.625,8.75 8.6875,8.6875 Q 8.75,8.625 8.75,8.5 V 8.375 8.75 8.5" fill="#9a9a9a"/>
   <path d="m10 8.5v-0.5h1v1h-1v-0.5" fill="#888"/>
   <path d="m11 8.5v-0.5h1v1h-1v-0.5" fill="#989898"/>
   <path d="m12 8.5v-0.5l0.375 0.125q0.375 0.125 0.65625-0.15625l0.28125-0.28125-0.125-0.125 0.125 0.125q0.125 0.125 0.3125 0.1875l0.1875 0.0625-0.5625-0.1875 0.375 0.125q0.375 0.125 0.875 0.125h0.5v1h-3v-0.5" fill="#6e6e6e" fill-opacity=".8"/>
   <path d="m15 8.5v-0.5h1v1h-1v-0.5" fill="#6c6c6c" fill-opacity=".6"/>
   <path d="m0 9.5v-0.5l0.375 0.125q0.375 0.125 0.375 0.375t-0.375 0.375l-0.375 0.125v-0.5" fill="#686868" fill-opacity=".10588"/>
   <path d="M 0.75,9.5 V 9.25 9.625 9.5 Q 0.75,9.375 0.65625,9.28125 L 0.5625,9.1875 0.65625,9.28125 1.34375,8.71875 1.25,8.625 1.34375,8.71875 Q 1.4375,8.8125 1.625,8.875 L 1.8125,8.9375 1.25,8.75 2,9 v 1 L 1.25,10.25 1.8125,10.0625 1.625,10.125 q -0.1875,0.0625 -0.3125,0.1875 l -0.125,0.125 0.125,-0.125 L 0.65625,9.71875 0.5625,9.8125 0.65625,9.71875 Q 0.75,9.625 0.75,9.5 V 9.375 9.75 9.5" fill="#666" fill-opacity=".60784"/>
   <path d="m2 9.5v-0.5h1l0.25 0.75-0.1875-0.5625 0.0625 0.1875q0.0625 0.1875 0.15625 0.34375l0.09375 0.15625-0.09375-0.15625-0.59375 0.59375 0.125 0.125-0.125-0.125q-0.125-0.125-0.3125-0.1875l-0.1875-0.0625 0.5625 0.1875-0.75-0.25v-0.5" fill="#676767" fill-opacity=".8"/>
   <path d="M 3.125,9.375 3,9 H 4 L 4.25,9.75 4.0625,9.1875 4.125,9.375 Q 4.1875,9.5625 4.28125,9.65625 L 4.375,9.75 4.28125,9.65625 3.71875,10.28125 3.8125,10.4375 3.71875,10.28125 Q 3.625,10.125 3.5,10 L 3.375,9.875 3.75,10.25 3.5,10 Q 3.25,9.75 3.125,9.375" fill="#666" fill-opacity=".60784"/>
   <path d="M 4.125,9.375 4,9 4.75,8.75 4.1875,8.9375 4.375,8.875 Q 4.5625,8.8125 4.71875,8.71875 L 4.875,8.625 4.71875,8.71875 5.28125,9.28125 5.4375,9.1875 5.28125,9.28125 Q 5.125,9.375 5,9.5 L 4.875,9.625 5.25,9.25 5,9.5 Q 4.75,9.75 4.5,9.75 4.25,9.75 4.125,9.375" fill="#686868" fill-opacity=".10588"/>
   <path d="M 5,9.5 Q 5.25,9.25 5.625,9.125 L 6,9 6.25,9.75 6.0625,9.1875 6.125,9.375 Q 6.1875,9.5625 6.28125,9.71875 L 6.375,9.875 6.28125,9.71875 5.75,10.3125 5.875,10.375 5.75,10.3125 Q 5.625,10.25 5.5,10.25 H 5.375 5.75 5.25 5.625 5.5 q -0.125,0 -0.21875,0.09375 L 5.1875,10.4375 5.28125,10.34375 4.75,9.6875 4.625,9.75 4.75,9.6875 Q 4.875,9.625 5,9.5 L 5.125,9.375 4.75,9.75 5,9.5" fill="#676767" fill-opacity=".28235"/>
   <path d="M 6.125,9.375 6,9 6.375,8.875 Q 6.75,8.75 7.03125,9.03125 L 7.3125,9.3125 7.375,9.25 7.3125,9.3125 Q 7.25,9.375 7.25,9.5 V 9.625 9.25 9.75 9.375 9.5 q 0,0.125 0.0625,0.25 L 7.375,9.875 7.3125,9.75 6.75,10.25 6.5,10 Q 6.25,9.75 6.125,9.375 M 6.5625,10.0625 6.875,10.375 6.75,10.25 Q 6.625,10.125 6.5,10 L 6.375,9.875 6.5625,10.0625" fill="#676767" fill-opacity=".8"/>
   <path d="m7.25 9.5q0-0.25 0.25-0.25t0.5 0.25l0.25 0.25-0.375-0.375 0.125 0.125q0.125 0.125 0.28125 0.21875l0.15625 0.09375-0.15625-0.09375-0.53125 0.53125-0.25-0.25q-0.25-0.25-0.25-0.5m0.3125 0.5625 0.3125 0.3125-0.125-0.125q-0.125-0.125-0.25-0.25l-0.125-0.125 0.1875 0.1875" fill="#a9a9a9"/>
   <path d="M 8,9.5 7.75,9.25 8.125,9.625 8,9.5 Q 7.875,9.375 7.75,9.3125 L 7.625,9.25 7.75,9.3125 8.28125,8.65625 8.1875,8.5625 8.28125,8.65625 Q 8.375,8.75 8.5,8.75 H 8.625 8.25 8.75 8.375 8.5 q 0.125,0 0.1875,-0.0625 L 8.75,8.625 8.6875,8.6875 l 0.625,0.625 0.125,-0.125 -0.125,0.125 Q 9.1875,9.4375 9.125,9.625 L 9.0625,9.8125 9.25,9.25 9,10 8.625,9.875 Q 8.25,9.75 8,9.5" fill="#979797"/>
   <path d="m9.125 9.625q0.125-0.375 0.5-0.5l0.375-0.125v1h-1l0.125-0.375" fill="#8e8e8e"/>
   <path d="m10 9.5v-0.5h1v1h-1v-0.5" fill="#868686"/>
   <path d="m11 9.5v-0.5h1v1h-1v-0.5" fill="#8d8d8d"/>
   <path d="m12 9.5v-0.5h1l-0.125 0.375q-0.125 0.375-0.5 0.5l-0.375 0.125v-0.5" fill="#949494"/>
   <path d="m12.875 9.375 0.125-0.375h1l-0.125 0.375q-0.125 0.375-0.375 0.625l-0.25 0.25-0.5625-0.5625-0.125 0.125 0.125-0.125q0.125-0.125 0.1875-0.3125l0.0625-0.1875-0.1875 0.5625 0.125-0.375m0.3125 0.9375 0.4375-0.4375-0.125 0.125q-0.125 0.125-0.25 0.25l-0.125 0.125 0.0625-0.0625" fill="#9e9e9e"/>
   <path d="m13.875 9.375 0.125-0.375h1l-0.125 0.375q-0.125 0.375-0.375 0.625l-0.25 0.25-0.53125-0.53125-0.09375 0.15625 0.09375-0.15625q0.09375-0.15625 0.15625-0.34375l0.0625-0.1875-0.1875 0.5625 0.125-0.375m0.3125 0.9375 0.4375-0.4375-0.125 0.125q-0.125 0.125-0.25 0.25l-0.125 0.125 0.0625-0.0625" fill="#676767" fill-opacity=".8"/>
   <path d="m14.875 9.375 0.125-0.375h1v1l-0.75 0.25 0.5625-0.1875-0.1875 0.0625q-0.1875 0.0625-0.34375 0.15625l-0.15625 0.09375 0.15625-0.09375-0.5625-0.5625-0.09375 0.15625 0.09375-0.15625q0.09375-0.15625 0.15625-0.34375l0.0625-0.1875-0.1875 0.5625 0.125-0.375" fill="#676767" fill-opacity=".28235"/>
   <path d="m0 10.5v-0.5l0.75-0.25-0.5625 0.1875 0.1875-0.0625q0.1875-0.0625 0.28125-0.15625l0.09375-0.09375-0.09375 0.09375 0.65625 0.59375 0.125-0.125-0.125 0.125q-0.125 0.125-0.1875 0.3125l-0.0625 0.1875 0.1875-0.5625-0.25 0.75h-1v-0.5" fill="#5f5f5f" fill-opacity=".60784"/>
   <path d="m1.125 10.625q0.125-0.375 0.5-0.5l0.375-0.125v1h-1l0.125-0.375" fill="#989898" fill-opacity=".9098"/>
   <path d="m2 10.5v-0.5l0.375 0.125q0.375 0.125 0.5 0.5l0.125 0.375h-1v-0.5" fill="#bbb"/>
   <path d="M 2.875,10.625 2.75,10.25 2.9375,10.8125 2.875,10.625 Q 2.8125,10.4375 2.6875,10.3125 l -0.125,-0.125 0.125,0.125 L 3.28125,9.71875 3.1875,9.5625 3.28125,9.71875 Q 3.375,9.875 3.5,10 L 3.625,10.125 3.25,9.75 3.5,10 q 0.25,0.25 0.375,0.625 L 4,11 H 3 L 2.875,10.625" fill="#929292" fill-opacity=".9098"/>
   <path d="M 3.875,10.625 3.75,10.25 3.9375,10.8125 3.875,10.625 Q 3.8125,10.4375 3.71875,10.28125 L 3.625,10.125 3.71875,10.28125 4.28125,9.65625 4.1875,9.5625 4.28125,9.65625 Q 4.375,9.75 4.5,9.75 H 4.625 4.25 4.75 4.375 4.5 q 0.125,0 0.25,-0.0625 L 4.875,9.625 4.75,9.6875 5.28125,10.34375 5.375,10.25 5.28125,10.34375 Q 5.1875,10.4375 5.125,10.625 L 5.0625,10.8125 5.25,10.25 5,11 H 4 L 3.875,10.625" fill="#5f5f5f" fill-opacity=".60784"/>
   <path d="m5.125 10.625q0.125-0.375 0.375-0.375t0.5 0.25 0.5 0.5 0.5 0.5 0.5 0.5 0.5 0.5l0.25 0.25-0.5625 0.5625 0.125 0.125-0.125-0.125q-0.125-0.125-0.3125-0.1875l-0.1875-0.0625 0.5625 0.1875-0.75-0.25h-1l-0.75 0.25 0.5625-0.1875-0.1875 0.0625q-0.1875 0.0625-0.3125 0.1875l-0.125 0.125 0.125-0.125-0.59375-0.59375-0.09375 0.15625 0.09375-0.15625q0.09375-0.15625 0.15625-0.34375l0.0625-0.1875-0.1875 0.5625 0.25-0.75v-1l0.125-0.375m3.1875 2.1875-0.4375-0.4375 0.125 0.125q0.125 0.125 0.25 0.25l0.125 0.125-0.0625-0.0625" fill-opacity="0"/>
   <path d="M 6,10.5 5.75,10.25 6.125,10.625 6,10.5 Q 5.875,10.375 5.75,10.3125 L 5.625,10.25 5.75,10.3125 6.28125,9.71875 6.1875,9.5625 6.28125,9.71875 Q 6.375,9.875 6.5,10 L 6.625,10.125 6.25,9.75 6.5,10 q 0.25,0.25 0.5,0.5 l 0.25,0.25 -0.5,0.5 L 6.5,11 Q 6.25,10.75 6,10.5 M 6.5625,11.0625 6.875,11.375 6.75,11.25 Q 6.625,11.125 6.5,11 l -0.125,-0.125 0.1875,0.1875 m 0.75,-0.25 L 6.875,10.375 7,10.5 q 0.125,0.125 0.25,0.25 l 0.125,0.125 -0.0625,-0.0625" fill="#606060" fill-opacity=".28235"/>
   <path d="m7 10.5-0.25-0.25 0.5625-0.5-0.0625-0.125 0.0625 0.125q0.0625 0.125 0.1875 0.25l0.125 0.125-0.375-0.375 0.25 0.25q0.25 0.25 0.5 0.5l0.25 0.25-0.5 0.5-0.25-0.25q-0.25-0.25-0.5-0.5m0.5625 0.5625 0.3125 0.3125-0.125-0.125q-0.125-0.125-0.25-0.25l-0.125-0.125 0.1875 0.1875m0.75-0.25-0.4375-0.4375 0.125 0.125q0.125 0.125 0.25 0.25l0.125 0.125-0.0625-0.0625m-1.625-0.625 0.4375 0.4375-0.125-0.125q-0.125-0.125-0.25-0.25l-0.125-0.125 0.0625 0.0625" fill="#5f5f5f" fill-opacity=".8"/>
   <path d="M 8,10.5 7.75,10.25 8.28125,9.71875 8.125,9.625 8.28125,9.71875 Q 8.4375,9.8125 8.625,9.875 L 8.8125,9.9375 8.25,9.75 9,10 9.25,10.75 9.0625,10.1875 9.125,10.375 q 0.0625,0.1875 0.1875,0.3125 l 0.125,0.125 -0.125,-0.125 L 8.75,11.25 8.5,11 Q 8.25,10.75 8,10.5 M 8.5625,11.0625 8.875,11.375 8.75,11.25 Q 8.625,11.125 8.5,11 L 8.375,10.875 8.5625,11.0625 M 7.6875,10.1875 8.125,10.625 8,10.5 Q 7.875,10.375 7.75,10.25 l -0.125,-0.125 0.0625,0.0625" fill="#9f9f9f"/>
   <path d="m9.125 10.375-0.125-0.375h3l-0.125 0.375q-0.125 0.375-0.5 0.5l-0.375 0.125h-1l-0.375-0.125q-0.375-0.125-0.5-0.5" fill="#838383"/>
   <path d="m11.875 10.375 0.125-0.375 0.75-0.25-0.5625 0.1875 0.1875-0.0625q0.1875-0.0625 0.3125-0.1875l0.125-0.125-0.125 0.125 0.5625 0.5625-0.25 0.25q-0.25 0.25-0.5 0.5l-0.25 0.25-0.5625-0.5625-0.125 0.125 0.125-0.125q0.125-0.125 0.1875-0.3125l0.0625-0.1875-0.1875 0.5625 0.125-0.375m0.3125 0.9375 0.4375-0.4375-0.125 0.125q-0.125 0.125-0.25 0.25l-0.125 0.125 0.0625-0.0625m0.875-0.875 0.3125-0.3125-0.125 0.125q-0.125 0.125-0.25 0.25l-0.125 0.125 0.1875-0.1875" fill="#999"/>
   <path d="m13 10.5q0.25-0.25 0.5-0.5l0.25-0.25-0.375 0.375 0.125-0.125q0.125-0.125 0.21875-0.28125l0.09375-0.15625-0.09375 0.15625 0.53125 0.53125-0.25 0.25q-0.25 0.25-0.5 0.5l-0.25 0.25-0.5-0.5 0.25-0.25m-0.0625 0.0625-0.3125 0.3125 0.125-0.125q0.125-0.125 0.25-0.25l0.125-0.125-0.1875 0.1875m0.25 0.75 0.4375-0.4375-0.125 0.125q-0.125 0.125-0.25 0.25l-0.125 0.125 0.0625-0.0625m0.875-0.875 0.3125-0.3125-0.125 0.125q-0.125 0.125-0.25 0.25l-0.125 0.125 0.1875-0.1875" fill="#5f5f5f" fill-opacity=".8"/>
   <path d="m14 10.5q0.25-0.25 0.5-0.5l0.25-0.25-0.375 0.375 0.125-0.125q0.125-0.125 0.21875-0.28125l0.09375-0.15625-0.09375 0.15625 0.5625 0.5625 0.15626-0.09374-0.15625 0.09375q-0.15626 0.09374-0.28126 0.21874l-0.125 0.125 0.375-0.375-0.25 0.25q-0.25 0.25-0.5 0.5l-0.25 0.25-0.5-0.5 0.25-0.25m-0.0625 0.0625-0.3125 0.3125 0.125-0.125q0.125-0.125 0.25-0.25l0.125-0.125-0.1875 0.1875m0.25 0.75 0.4375-0.4375-0.125 0.125q-0.125 0.125-0.25 0.25l-0.125 0.125 0.0625-0.0625" fill="#606060" fill-opacity=".28235"/>
   <path d="m15 10.5q0.25-0.25 0.625-0.375l0.375-0.125v3h-2l-0.75 0.25 0.5625-0.1875-0.1875 0.0625q-0.1875 0.0625-0.3125 0.1875l-0.125 0.125 0.125-0.125-0.5625-0.5625 0.25-0.25q0.25-0.25 0.5-0.5t0.5-0.5 0.5-0.5 0.5-0.5m-2.0625 2.0625-0.3125 0.3125 0.125-0.125q0.125-0.125 0.25-0.25l0.125-0.125-0.1875 0.1875" fill-opacity="0"/>
   <path d="m0 11.5v-0.5h1l0.25 0.75-0.1875-0.5625 0.0625 0.1875q0.0625 0.1875 0.15625 0.34375l0.09375 0.15625-0.09375-0.15625-0.5625 0.5625 0.15625 0.09375-0.15625-0.09375q-0.15625-0.09375-0.34375-0.15625l-0.1875-0.0625 0.5625 0.1875-0.75-0.25v-0.5" fill="#585858" fill-opacity=".8"/>
   <path d="M 1.125,11.375 1,11 H 2 L 2.25,11.75 2.0625,11.1875 2.125,11.375 q 0.0625,0.1875 0.1875,0.3125 l 0.125,0.125 -0.125,-0.125 L 1.71875,12.28125 1.8125,12.4375 1.71875,12.28125 Q 1.625,12.125 1.5,12 L 1.375,11.875 1.75,12.25 1.5,12 Q 1.25,11.75 1.125,11.375" fill="#b8b8b8"/>
   <path d="m2.125 11.375-0.125-0.375h1v1l-0.375-0.125q-0.375-0.125-0.5-0.5" fill="#9a9a9a"/>
   <path d="m3 11.5v-0.5h1l-0.125 0.375q-0.125 0.375-0.5 0.5l-0.375 0.125v-0.5" fill="#959595"/>
   <path d="m3.875 11.375 0.125-0.375h1v1l-0.75 0.25 0.5625-0.1875-0.1875 0.0625q-0.1875 0.0625-0.34375 0.15625l-0.15625 0.09375 0.15625-0.09375-0.59375-0.59375-0.125 0.125 0.125-0.125q0.125-0.125 0.1875-0.3125l0.0625-0.1875-0.1875 0.5625 0.125-0.375" fill="#585858" fill-opacity=".8"/>
   <path d="m7 11.5-0.25-0.25 0.5-0.5 0.25 0.25q0.25 0.25 0.5 0.5l0.25 0.25-0.5 0.5-0.25-0.25q-0.25-0.25-0.5-0.5m0.5625 0.5625 0.3125 0.3125-0.125-0.125q-0.125-0.125-0.25-0.25l-0.125-0.125 0.1875 0.1875m0.75-0.25-0.4375-0.4375 0.125 0.125q0.125 0.125 0.25 0.25l0.125 0.125-0.0625-0.0625m-0.875-0.875-0.3125-0.3125 0.125 0.125q0.125 0.125 0.25 0.25l0.125 0.125-0.1875-0.1875m-0.75 0.25 0.4375 0.4375-0.125-0.125q-0.125-0.125-0.25-0.25l-0.125-0.125 0.0625 0.0625" fill="#595959" fill-opacity=".28235"/>
   <path d="m8 11.5-0.25-0.25 0.5-0.5 0.25 0.25q0.25 0.25 0.5 0.5l0.25 0.25-0.5 0.5-0.25-0.25q-0.25-0.25-0.5-0.5m0.5625 0.5625 0.3125 0.3125-0.125-0.125q-0.125-0.125-0.25-0.25l-0.125-0.125 0.1875 0.1875m0.75-0.25-0.4375-0.4375 0.125 0.125q0.125 0.125 0.25 0.25l0.125 0.125-0.0625-0.0625m-0.875-0.875-0.3125-0.3125 0.125 0.125q0.125 0.125 0.25 0.25l0.125 0.125-0.1875-0.1875m-0.75 0.25 0.4375 0.4375-0.125-0.125q-0.125-0.125-0.25-0.25l-0.125-0.125 0.0625 0.0625" fill="#585858" fill-opacity=".8"/>
   <path d="m9 11.5-0.25-0.25 0.5625-0.5625-0.125-0.125 0.125 0.125q0.125 0.125 0.3125 0.1875l0.1875 0.0625-0.5625-0.1875 0.75 0.25 0.25 0.75-0.1875-0.5625 0.0625 0.1875q0.0625 0.1875 0.15625 0.28125l0.09375 0.09375-0.09375-0.09375-0.53125 0.59375-0.25-0.25q-0.25-0.25-0.5-0.5m0.5625 0.5625 0.3125 0.3125-0.125-0.125q-0.125-0.125-0.25-0.25l-0.125-0.125 0.1875 0.1875m-0.875-0.875 0.4375 0.4375-0.125-0.125q-0.125-0.125-0.25-0.25l-0.125-0.125 0.0625 0.0625" fill="#969696"/>
   <path d="m10.125 11.375-0.125-0.375h1l-0.125 0.375q-0.125 0.375-0.375 0.375t-0.375-0.375" fill="#808080"/>
   <path d="m10.875 11.375 0.125-0.375 0.75-0.25-0.5625 0.1875 0.1875-0.0625q0.1875-0.0625 0.3125-0.1875l0.125-0.125-0.125 0.125 0.5625 0.5625-0.25 0.25q-0.25 0.25-0.5 0.5l-0.25 0.25-0.53125-0.59375-0.09375 0.09375 0.09375-0.09375q0.09375-0.09375 0.15625-0.28125l0.0625-0.1875-0.1875 0.5625 0.125-0.375m0.3125 0.9375 0.4375-0.4375-0.125 0.125q-0.125 0.125-0.25 0.25l-0.125 0.125 0.0625-0.0625m0.875-0.875 0.3125-0.3125-0.125 0.125q-0.125 0.125-0.25 0.25l-0.125 0.125 0.1875-0.1875" fill="#939393"/>
   <path d="m12 11.5q0.25-0.25 0.5-0.5l0.25-0.25 0.5 0.5-0.25 0.25q-0.25 0.25-0.5 0.5l-0.25 0.25-0.5-0.5 0.25-0.25m-0.0625 0.0625-0.3125 0.3125 0.125-0.125q0.125-0.125 0.25-0.25l0.125-0.125-0.1875 0.1875m0.25 0.75 0.4375-0.4375-0.125 0.125q-0.125 0.125-0.25 0.25l-0.125 0.125 0.0625-0.0625m0.875-0.875 0.3125-0.3125-0.125 0.125q-0.125 0.125-0.25 0.25l-0.125 0.125 0.1875-0.1875m-0.25-0.75-0.4375 0.4375 0.125-0.125q0.125-0.125 0.25-0.25l0.125-0.125-0.0625 0.0625" fill="#585858" fill-opacity=".8"/>
   <path d="m13 11.5q0.25-0.25 0.5-0.5l0.25-0.25 0.5 0.5-0.25 0.25q-0.25 0.25-0.5 0.5l-0.25 0.25-0.5-0.5 0.25-0.25m-0.0625 0.0625-0.3125 0.3125 0.125-0.125q0.125-0.125 0.25-0.25l0.125-0.125-0.1875 0.1875m0.25 0.75 0.4375-0.4375-0.125 0.125q-0.125 0.125-0.25 0.25l-0.125 0.125 0.0625-0.0625m0.875-0.875 0.3125-0.3125-0.125 0.125q-0.125 0.125-0.25 0.25l-0.125 0.125 0.1875-0.1875m-0.25-0.75-0.4375 0.4375 0.125-0.125q0.125-0.125 0.25-0.25l0.125-0.125-0.0625 0.0625" fill="#595959" fill-opacity=".28235"/>
   <path d="M 0,12.5 V 12 l 0.375,0.125 Q 0.75,12.25 1,12.5 L 1.25,12.75 0.875,12.375 1,12.5 q 0.125,0.125 0.28125,0.21875 L 1.4375,12.8125 1.28125,12.71875 0.71875,13.28125 0.875,13.375 0.71875,13.28125 Q 0.5625,13.1875 0.375,13.125 L 0.1875,13.0625 0.75,13.25 0,13 v -0.5" fill="#525252" fill-opacity=".60784"/>
   <path d="M 1,12.5 0.75,12.25 1.125,12.625 1,12.5 Q 0.875,12.375 0.71875,12.28125 L 0.5625,12.1875 0.71875,12.28125 1.28125,11.71875 1.1875,11.5625 1.28125,11.71875 Q 1.375,11.875 1.5,12 L 1.625,12.125 1.25,11.75 1.5,12 q 0.25,0.25 0.375,0.625 L 2,13 1.625,12.875 Q 1.25,12.75 1,12.5" fill="#878787" fill-opacity=".9098"/>
   <path d="m1.875 12.625-0.125-0.375 0.1875 0.5625-0.0625-0.1875q-0.0625-0.1875-0.15625-0.34375l-0.09375-0.15625 0.09375 0.15625 0.59375-0.59375-0.125-0.125 0.125 0.125q0.125 0.125 0.3125 0.1875l0.1875 0.0625-0.5625-0.1875 0.75 0.25-0.125 0.375q-0.125 0.375-0.5 0.5l-0.375 0.125-0.125-0.375" fill="#8d8d8d"/>
   <path d="m2.875 12.375 0.125-0.375 0.75-0.25-0.5625 0.1875 0.1875-0.0625q0.1875-0.0625 0.3125-0.1875l0.125-0.125-0.125 0.125 0.59375 0.59375 0.15625-0.09375-0.15625 0.09375q-0.15625 0.09375-0.28125 0.21875l-0.125 0.125 0.375-0.375-0.25 0.25q-0.25 0.25-0.5 0.5l-0.25 0.25 0.375-0.375-0.125 0.125q-0.125 0.125-0.21875 0.28125l-0.09375 0.15625 0.09375-0.15625-0.59375-0.59375-0.125 0.125 0.125-0.125q0.125-0.125 0.1875-0.3125l0.0625-0.1875-0.1875 0.5625 0.125-0.375" fill="#757575" fill-opacity=".9098"/>
   <path d="m4 12.5q0.25-0.25 0.625-0.375l0.375-0.125-0.125 0.375q-0.125 0.375-0.375 0.625l-0.25 0.25-0.5-0.5 0.25-0.25m-0.0625 0.0625-0.3125 0.3125 0.125-0.125q0.125-0.125 0.25-0.25l0.125-0.125-0.1875 0.1875m0.25 0.75 0.4375-0.4375-0.125 0.125q-0.125 0.125-0.25 0.25l-0.125 0.125 0.0625-0.0625" fill="#525252" fill-opacity=".60784"/>
   <path d="m8 12.5-0.25-0.25 0.5-0.5 0.25 0.25q0.25 0.25 0.5 0.5l0.25 0.25-0.53125 0.53125 0.09375 0.15625-0.09375-0.15625q-0.09375-0.15625-0.21875-0.28125l-0.125-0.125 0.375 0.375-0.25-0.25q-0.25-0.25-0.5-0.5m1.3125 0.3125-0.4375-0.4375 0.125 0.125q0.125 0.125 0.25 0.25l0.125 0.125-0.0625-0.0625m-0.875-0.875-0.3125-0.3125 0.125 0.125q0.125 0.125 0.25 0.25l0.125 0.125-0.1875-0.1875m-0.75 0.25 0.4375 0.4375-0.125-0.125q-0.125-0.125-0.25-0.25l-0.125-0.125 0.0625 0.0625" fill="#404040" fill-opacity=".28235"/>
   <path d="m9 12.5-0.25-0.25 0.5-0.5 0.25 0.25q0.25 0.25 0.5 0.5l0.25 0.25-0.375-0.375 0.125 0.125q0.125 0.125 0.25 0.1875l0.125 0.0625-0.125-0.0625-0.5 0.5625-0.25-0.25q-0.25-0.25-0.5-0.5m0.5625 0.5625 0.3125 0.3125-0.125-0.125q-0.125-0.125-0.25-0.25l-0.125-0.125 0.1875 0.1875m-0.125-1.125-0.3125-0.3125 0.125 0.125q0.125 0.125 0.25 0.25l0.125 0.125-0.1875-0.1875m-0.75 0.25 0.4375 0.4375-0.125-0.125q-0.125-0.125-0.25-0.25l-0.125-0.125 0.0625 0.0625" fill="#535353" fill-opacity=".8"/>
   <path d="m10 12.5-0.25-0.25 0.53125-0.59375-0.09374-0.09374 0.09375 0.09375q0.09374 0.09374 0.21874 0.09374h0.125-0.375 0.5-0.375 0.125q0.125 0 0.21875-0.09375l0.09375-0.09375-0.09374 0.09374 0.53124 0.59376-0.25 0.25q-0.25 0.25-0.5 0.25t-0.5-0.25m1.0625-0.0625 0.3125-0.3125-0.125 0.125q-0.125 0.125-0.25 0.25l-0.125 0.125 0.1875-0.1875m-1.375-0.25 0.4375 0.4375-0.125-0.125q-0.125-0.125-0.25-0.25l-0.125-0.125 0.0625 0.0625" fill="#909090"/>
   <path d="m11 12.5q0.25-0.25 0.5-0.5l0.25-0.25 0.5 0.5-0.25 0.25q-0.25 0.25-0.5 0.5l-0.25 0.25-0.5-0.5625-0.125 0.0625 0.125-0.0625q0.125-0.0625 0.25-0.1875l0.125-0.125-0.375 0.375 0.25-0.25m0.1875 0.8125 0.4375-0.4375-0.125 0.125q-0.125 0.125-0.25 0.25l-0.125 0.125 0.0625-0.0625m0.875-0.875 0.3125-0.3125-0.125 0.125q-0.125 0.125-0.25 0.25l-0.125 0.125 0.1875-0.1875m-0.25-0.75-0.4375 0.4375 0.125-0.125q0.125-0.125 0.25-0.25l0.125-0.125-0.0625 0.0625" fill="#535353" fill-opacity=".8"/>
   <path d="m12 12.5q0.25-0.25 0.5-0.5l0.25-0.25 0.5 0.5-0.25 0.25q-0.25 0.25-0.5 0.5l-0.25 0.25 0.375-0.375-0.125 0.125q-0.125 0.125-0.21875 0.28125l-0.09375 0.15625 0.09374-0.15626-0.53124-0.53124 0.25-0.25m-0.0625 0.0625-0.3125 0.3125 0.125-0.125q0.125-0.125 0.25-0.25l0.125-0.125-0.1875 0.1875m1.125-0.125 0.3125-0.3125-0.125 0.125q-0.125 0.125-0.25 0.25l-0.125 0.125 0.1875-0.1875m-0.25-0.75-0.4375 0.4375 0.125-0.125q0.125-0.125 0.25-0.25l0.125-0.125-0.0625 0.0625" fill="#404040" fill-opacity=".28235"/>
   <path d="m0 13.5v-0.5l0.375 0.125q0.375 0.125 0.625 0.375l0.25 0.25-0.375-0.375 0.125 0.125q0.125 0.125 0.28125 0.21875l0.15625 0.09375-0.15625-0.09375-0.59375 0.59375 0.125 0.125-0.125-0.125q-0.125-0.125-0.3125-0.1875l-0.1875-0.0625 0.5625 0.1875-0.75-0.25v-0.5" fill="#131313" fill-opacity=".16078"/>
   <path d="M 1,13.5 0.75,13.25 1.125,13.625 1,13.5 Q 0.875,13.375 0.71875,13.28125 L 0.5625,13.1875 0.71875,13.28125 1.28125,12.71875 1.125,12.625 1.28125,12.71875 Q 1.4375,12.8125 1.625,12.875 L 1.8125,12.9375 1.25,12.75 2,13 v 1 L 1.625,13.875 Q 1.25,13.75 1,13.5" fill="#474747" fill-opacity=".63137"/>
   <path d="m2 13.5v-0.5l0.75-0.25-0.5625 0.1875 0.1875-0.0625q0.1875-0.0625 0.3125-0.1875l0.125-0.125-0.125 0.125 0.59375 0.59375 0.09375-0.15625-0.09375 0.15625q-0.09375 0.15625-0.15625 0.34375l-0.0625 0.1875 0.1875-0.5625-0.25 0.75h-1v-0.5" fill="#4e4e4e" fill-opacity=".8"/>
   <path d="m3.125 13.625q0.125-0.375 0.375-0.625l0.25-0.25 0.5 0.5-0.25 0.25q-0.25 0.25-0.625 0.375l-0.375 0.125 0.125-0.375m0.9375-0.1875 0.3125-0.3125-0.125 0.125q-0.125 0.125-0.25 0.25l-0.125 0.125 0.1875-0.1875m-0.25-0.75-0.4375 0.4375 0.125-0.125q0.125-0.125 0.25-0.25l0.125-0.125-0.0625 0.0625" fill="#474747" fill-opacity=".63137"/>
   <path d="m4 13.5q0.25-0.25 0.5-0.5l0.25-0.25-0.375 0.375 0.125-0.125q0.125-0.125 0.21875-0.28125l0.09375-0.15625-0.09375 0.15625 0.59375 0.59375 0.125-0.125-0.125 0.125q-0.125 0.125-0.1875 0.3125l-0.0625 0.1875 0.1875-0.5625-0.25 0.75-0.75 0.25 0.5625-0.1875-0.1875 0.0625q-0.1875 0.0625-0.3125 0.1875l-0.125 0.125 0.125-0.125-0.59375-0.59375-0.15625 0.09375 0.15625-0.09375q0.15625-0.09375 0.28125-0.21875l0.125-0.125-0.375 0.375 0.25-0.25" fill="#121212" fill-opacity=".22353"/>
   <path d="m5.125 13.625q0.125-0.375 0.5-0.5l0.375-0.125v1h-1l0.125-0.375" fill-opacity=".11765"/>
   <path d="m6 13.5v-0.5h1v1h-1v-0.5" fill-opacity=".10196"/>
   <path d="m7 13.5v-0.5l0.375 0.125q0.375 0.125 0.5 0.5l0.125 0.375h-1v-0.5" fill-opacity=".11765"/>
   <path d="m7.875 13.625-0.125-0.375 0.1875 0.5625-0.0625-0.1875q-0.0625-0.1875-0.1875-0.3125l-0.125-0.125 0.125 0.125 0.5625-0.5625 0.25 0.25q0.25 0.25 0.375 0.625l0.125 0.375h-1l-0.125-0.375m0.5625-0.6875-0.3125-0.3125 0.125 0.125q0.125 0.125 0.25 0.25l0.125 0.125-0.1875-0.1875" fill-opacity=".14902"/>
   <path d="m8.875 13.625-0.125-0.375 0.1875 0.5625-0.0625-0.1875q-0.0625-0.1875-0.15625-0.34375l-0.09375-0.15625 0.09375 0.15625 0.53125-0.53125 0.25 0.25q0.25 0.25 0.5 0.5l0.25 0.25-0.375-0.375 0.125 0.125q0.125 0.125 0.25 0.1875l0.125 0.0625-0.125-0.0625-0.5625 0.625 0.125 0.125-0.125-0.125q-0.125-0.125-0.3125-0.1875l-0.1875-0.0625 0.5625 0.1875-0.75-0.25-0.125-0.375m0.5625-0.6875-0.3125-0.3125 0.125 0.125q0.125 0.125 0.25 0.25l0.125 0.125-0.1875-0.1875" fill="#2a2a2a" fill-opacity=".38431"/>
   <path d="m10 13.5-0.25-0.25 0.5-0.5625-0.125-0.0625 0.125 0.0625q0.125 0.0625 0.25 0.0625h0.125-0.375 0.5-0.375 0.125q0.125 0 0.25-0.0625l0.125-0.0625-0.125 0.0625 0.5 0.5625-0.25 0.25q-0.25 0.25-0.5 0.25t-0.5-0.25m1.0625-0.0625 0.3125-0.3125-0.125 0.125q-0.125 0.125-0.25 0.25l-0.125 0.125 0.1875-0.1875m-1.375-0.25 0.4375 0.4375-0.125-0.125q-0.125-0.125-0.25-0.25l-0.125-0.125 0.0625 0.0625" fill="#4e4e4e" fill-opacity=".8"/>
   <path d="m11 13.5q0.25-0.25 0.5-0.5l0.25-0.25 0.53125 0.53125 0.04687-0.07813 0.04688-0.07812-0.09375 0.15625q-0.09375 0.15625-0.15625 0.34375l-0.0625 0.1875 0.1875-0.5625-0.25 0.75-0.75 0.25 0.5625-0.1875-0.1875 0.0625q-0.1875 0.0625-0.3125 0.1875l-0.125 0.125 0.125-0.125-0.5625-0.625-0.125 0.0625 0.125-0.0625q0.125-0.0625 0.25-0.1875l0.125-0.125-0.375 0.375 0.25-0.25m0.8125-0.8125-0.4375 0.4375 0.125-0.125q0.125-0.125 0.25-0.25l0.125-0.125-0.0625 0.0625" fill="#292929" fill-opacity=".38824"/>
   <path d="m12.125 13.625q0.125-0.375 0.375-0.625l0.25-0.25 0.5625 0.5625 0.125-0.125-0.125 0.125q-0.125 0.125-0.1875 0.3125l-0.0625 0.1875 0.1875-0.5625-0.25 0.75h-1l0.125-0.375m0.6875-0.9375-0.4375 0.4375 0.125-0.125q0.125-0.125 0.25-0.25l0.125-0.125-0.0625 0.0625" fill-opacity=".14902"/>
   <path d="m13.125 13.625q0.125-0.375 0.5-0.5l0.375-0.125v1h-1l0.125-0.375" fill-opacity=".098039"/>
   <path d="m14 13.5v-0.5h1v1h-1v-0.5" fill-opacity=".047059"/>
   <path d="m15 13.5v-0.5h1v1h-1v-0.5" fill-opacity=".0078431"/>
   <path d="m0 14.5v-0.5l0.375 0.125q0.375 0.125 0.5 0.5l0.125 0.375h-1v-0.5" fill-opacity=".039216"/>
   <path d="m0.875 14.625-0.125-0.375 0.1875 0.5625-0.0625-0.1875q-0.0625-0.1875-0.1875-0.3125l-0.125-0.125 0.125 0.125 0.59375-0.59375-0.15625-0.09375 0.15625 0.09375q0.15625 0.09375 0.34375 0.15625l0.1875 0.0625-0.5625-0.1875 0.75 0.25v1h-1l-0.125-0.375" fill-opacity=".090196"/>
   <path d="m2 14.5v-0.5h1v1h-1v-0.5" fill-opacity=".098039"/>
   <path d="m3 14.5v-0.5l0.75-0.25-0.5625 0.1875 0.1875-0.0625q0.1875-0.0625 0.34375-0.15625l0.15625-0.09375-0.15625 0.09375 0.59375 0.59375 0.125-0.125-0.125 0.125q-0.125 0.125-0.1875 0.3125l-0.0625 0.1875 0.1875-0.5625-0.25 0.75h-1v-0.5" fill-opacity=".090196"/>
   <path d="m4.125 14.625q0.125-0.375 0.5-0.5l0.375-0.125v1h-1l0.125-0.375" fill-opacity=".07451"/>
   <path d="m5 14.5v-0.5h1v1h-1v-0.5" fill-opacity=".058824"/>
   <path d="m6 14.5v-0.5h1v1h-1v-0.5" fill-opacity=".05098"/>
   <path d="m7 14.5v-0.5h1v1h-1v-0.5" fill-opacity=".058824"/>
   <path d="m8 14.5v-0.5h1v1h-1v-0.5" fill-opacity=".07451"/>
   <path d="m9 14.5v-0.5l0.375 0.125q0.375 0.125 0.5 0.5l0.125 0.375h-1v-0.5" fill-opacity=".090196"/>
   <path d="m9.875 14.625-0.125-0.375 0.1875 0.5625-0.0625-0.1875q-0.0625-0.1875-0.1875-0.3125l-0.125-0.125 0.125 0.125 0.5625-0.625-0.125-0.0625 0.125 0.0625q0.125 0.0625 0.25 0.0625h0.125-0.375 0.5-0.375 0.125q0.125 0 0.25-0.0625l0.125-0.0625-0.125 0.0625 0.5625 0.625 0.125-0.125-0.125 0.125q-0.125 0.125-0.1875 0.3125l-0.0625 0.1875 0.1875-0.5625-0.25 0.75h-1l-0.125-0.375" fill-opacity=".10196"/>
   <path d="m11.125 14.625q0.125-0.375 0.5-0.5l0.375-0.125v1h-1l0.125-0.375" fill-opacity=".094118"/>
   <path d="m12 14.5v-0.5h1v1h-1v-0.5" fill-opacity=".07451"/>
   <path d="m13 14.5v-0.5h1v1h-1v-0.5" fill-opacity=".05098"/>
   <path d="m14 14.5v-0.5h1v1h-1v-0.5" fill-opacity=".023529"/>
   <path d="m15 14.5v-0.5h1v1h-1v-0.5" fill-opacity=".0039216"/>
   <path d="m0 15.5v-0.5h16v1h-16v-0.5" fill-opacity="0"/>
  </g>
 </g>
</svg>
