<?xml version="1.0" encoding="UTF-8"?>
<!-- Created with Inkscape (http://www.inkscape.org/) -->
<svg width="256" height="256" version="1.1" viewBox="0 0 67.733 67.733" xmlns="http://www.w3.org/2000/svg" xmlns:cc="http://creativecommons.org/ns#" xmlns:dc="http://purl.org/dc/elements/1.1/" xmlns:rdf="http://www.w3.org/1999/02/22-rdf-syntax-ns#">
 <metadata>
  <rdf:RDF>
   <cc:Work rdf:about="">
    <dc:format>image/svg+xml</dc:format>
    <dc:type rdf:resource="http://purl.org/dc/dcmitype/StillImage"/>
    <dc:title/>
   </cc:Work>
  </rdf:RDF>
 </metadata>
 <g display="none">
  <path d="m6.35 63.5v-50.8l6.35-6.35h42.333l6.35 6.35v42.333l-6.35 6.35h-33.866l-6.35-6.35v-33.866l6.35-6.35h8.4666l6.35 6.35v25.4" fill="none" stroke="#5c5c5c" stroke-linecap="round" stroke-width="4.2333" style="paint-order:normal"/>
 </g>
 <g display="none">
  <path d="m35.983 47.625-8.4666-15.875h16.933z" fill="#5c5c5c" stroke="#5c5c5c" stroke-linecap="round" stroke-width="4.2333"/>
 </g>
 <g display="none">
  <g stroke="#686868" stroke-linecap="round" stroke-width="4.2333">
   <path d="m35.983 47.625-8.4666-15.875h16.933z" display="inline" fill="#686868"/>
   <path d="m6.35 63.5v-50.8l6.35-6.35h42.333l6.35 6.35v42.333l-6.35 6.35h-33.866l-6.35-6.35v-33.867l6.35-6.35h8.4666l6.35 6.35v25.4" display="inline" fill="none" style="paint-order:normal"/>
  </g>
 </g>
 <g display="none" fill-rule="evenodd" stroke="#686868">
  <rect x="2.1167" y="2.1167" width="63.5" height="52.916" fill="#fff" stroke-width="4.2333"/>
  <rect x="4.2333" y="12.7" width="59.266" height="4.2333" fill="#686868" stroke-width=".26458"/>
 </g>
 <g display="none">
  <rect x="4.2333" y="4.2333" width="59.266" height="49.741" fill="none" stroke="#5c5c5c" stroke-width="2.1167"/>
 </g>
 <g display="none">
  <path d="m27.517 22.86v15.24h-10.583l16.933 25.4 16.933-25.4h-10.583v-15.24z" fill="#686868" fill-rule="evenodd" stroke="#fff" stroke-width="2.1167"/>
 </g>
 <g display="none">
  <path d="m44.661 15.875-10.795 10.795-10.795-10.795-7.1966 7.1966 10.795 10.795-10.795 10.795 7.1966 7.1966 10.795-10.795 10.795 10.795 7.1966-7.1966-10.795-10.795 10.795-10.795z" fill="#5c5c5c" fill-rule="evenodd" stroke="#fdfdfd" stroke-width="4.2333"/>
 </g>
 <g display="none" fill="none" stroke="#5c5c5c" stroke-linecap="round" stroke-width="1.0564">
  <g transform="matrix(.8961 0 0 1 3.5186 0)">
   <path d="m10.583 4.2333c15.356 38.761 30.872 40.255 46.566 0" stroke-width="2.236"/>
   <path d="m6.7027 4.466h54.328" stroke-width="8.944"/>
  </g>
  <g transform="matrix(.8961 0 0 -1 3.5186 67.733)">
   <path d="m10.583 4.2333c15.356 38.761 30.872 40.255 46.566 0" stroke-width="2.236"/>
   <path d="m6.7027 4.5529h54.328" stroke-width="8.944"/>
  </g>
 </g>
 <g display="none">
  <path d="m4.2333 4.2333h59.266v59.266h-59.266z" fill="none" stroke="#5c5c5c" stroke-linejoin="round" stroke-width="4.2069"/>
 </g>
 <g display="none">
  <path d="m58.054 38.834a24.19 23.978 0 0 1-14.934 22.153 24.19 23.978 0 0 1-26.362-5.2 24.19 23.978 0 0 1-5.2404-26.132 24.19 23.978 0 0 1 22.352-14.798" fill="none" stroke="#5c5c5c" stroke-linecap="round" stroke-width="8.4666" style="paint-order:normal"/>
  <path d="m30.162 1.0583c5.3194 8.1987 5.9618 16.633 0 25.4l25.4-12.7z" fill="#5c5c5c"/>
 </g>
 <g transform="matrix(4.1589 0 0 4.1589 .59531 .59531)" stroke-width=".24045">
  <path d="m0 0.5v-0.5h16v16h-1v-1.5q0-0.5-0.5-0.5h-3.5l0.125-0.375q0.125-0.375 0.5-0.5l0.375-0.125h2l0.375-0.125q0.375-0.125 0.5-0.5l0.125-0.375v-9l-0.125-0.375q-0.125-0.375-0.5-0.5l-0.375-0.125h-2.5q-0.5 0-1 0t-1 0-1 0-1 0-1 0-1 0-1 0h-2.5l-0.375 0.125q-0.375 0.125-0.5 0.5l-0.125 0.375v9l0.125 0.375q0.125 0.375 0.5 0.5l0.375 0.125h3l0.375-0.125q0.375-0.125 0.5-0.5l0.125-0.375v-1l-0.125-0.375q-0.125-0.375-0.375-0.625t-0.5-0.5-0.5-0.5-0.375-0.625l-0.125-0.375v-1l0.125-0.375q0.125-0.375 0.375-0.625t0.5-0.5 0.625-0.375 0.875-0.125 1 0 1 0 1 0 0.875 0.125 0.625 0.375 0.5 0.5 0.375 0.625l0.125 0.375v2l-0.125 0.375q-0.125 0.375-0.375 0.375t-0.375-0.375l-0.25-0.75q-0.125-0.375-0.5-0.5l-0.375-0.125-0.375 0.125q-0.375 0.125-0.625 0.375t-0.5 0.5-0.5 0.5-0.5 0.5-0.375 0.625l-0.125 0.375v1l0.125 0.375q0.125 0.375 0.375 0.625t0.5 0.5l0.25 0.25-0.5625 0.5625 0.125 0.125-0.125-0.125q-0.125-0.125-0.3125-0.1875l-0.1875-0.0625 0.5625 0.1875-0.75-0.25h-5.5q-0.5 0-0.5 0.5t0 1v0.5h-1v-15.5m8.3125 13.312-0.4375-0.4375 0.125 0.125q0.125 0.125 0.25 0.25l0.125 0.125-0.0625-0.0625" fill-opacity="0"/>
  <path d="m1.125 2.625q0.125-0.375 0.5-0.5l0.375-0.125v1h-1l0.125-0.375" fill="#959595" fill-opacity=".047059"/>
  <path d="m2 2.5v-0.5h1v1h-1v-0.5" fill="#959595" fill-opacity=".45098"/>
  <g fill="#949494">
   <path d="m3 2.5v-0.5h1l-0.125 0.375q-0.125 0.375-0.5 0.5l-0.375 0.125v-0.5" fill-opacity=".72941"/>
   <path d="m3.875 2.375 0.125-0.375h0.5q0.5 0 1 0t1 0 1 0 1 0 1 0 1 0 1 0h0.5l0.25 0.75-0.1875-0.5625 0.0625 0.1875q0.0625 0.1875 0.1875 0.3125l0.125 0.125-0.125-0.125-0.59375 0.59375 0.15625 0.09375-0.15625-0.09375q-0.15625-0.09375-0.34375-0.15625l-0.1875-0.0625 0.5625 0.1875-0.375-0.125q-0.375-0.125-0.875-0.125t-1 0-1 0-1 0-1 0-1 0-0.875 0.125l-0.375 0.125 0.5625-0.1875-0.1875 0.0625q-0.1875 0.0625-0.34375 0.15625l-0.15625 0.09375 0.15625-0.09375-0.59375-0.59375-0.125 0.125 0.125-0.125q0.125-0.125 0.1875-0.3125l0.0625-0.1875-0.1875 0.5625 0.125-0.375" fill-opacity=".8"/>
   <path d="m12.125 2.375-0.125-0.375h1v1l-0.375-0.125q-0.375-0.125-0.5-0.5" fill-opacity=".72941"/>
  </g>
  <path d="m13 2.5v-0.5h1v1h-1v-0.5" fill="#959595" fill-opacity=".45098"/>
  <path d="m14 2.5v-0.5l0.375 0.125q0.375 0.125 0.5 0.5l0.125 0.375h-1v-0.5" fill="#959595" fill-opacity=".047059"/>
  <path d="m1 3.5v-0.5h1v1h-1v-0.5" fill="#909090" fill-opacity=".45098"/>
  <path d="m2 3.5v-0.5h1v1h-1v-0.5" fill="#a6a6a6" fill-opacity=".86667"/>
  <path d="m3 3.5v-0.5l0.75-0.25-0.5625 0.1875 0.1875-0.0625q0.1875-0.0625 0.3125-0.1875l0.125-0.125-0.125 0.125 0.59375 0.59375 0.15625-0.09375-0.15625 0.09375q-0.15625 0.09375-0.28125 0.21875l-0.125 0.125 0.375-0.375-0.25 0.25q-0.25 0.25-0.625 0.375l-0.375 0.125v-0.5" fill="#c2c2c2" fill-opacity=".97647"/>
  <path d="m4 3.5q0.25-0.25 0.625-0.375t0.875-0.125 1 0 1 0 1 0 1 0 1 0 0.875 0.125 0.625 0.375l0.25 0.25-0.375-0.375 0.125 0.125q0.125 0.125 0.28125 0.21875l0.15625 0.09375-0.15625-0.09375-0.5625 0.5625 0.15625 0.09375-0.15625-0.09375q-0.15625-0.09375-0.34375-0.15625l-0.1875-0.0625 0.5625 0.1875-0.375-0.125q-0.375-0.125-0.875-0.125t-1 0-1 0-1 0-1 0-1 0-0.875 0.125l-0.375 0.125 0.5625-0.1875-0.1875 0.0625q-0.1875 0.0625-0.34375 0.15625l-0.15625 0.09375 0.15625-0.09375-0.5625-0.5625-0.15625 0.09375 0.15625-0.09375q0.15625-0.09375 0.28125-0.21875l0.125-0.125-0.375 0.375 0.25-0.25" fill="#c7c7c7"/>
  <path d="m12 3.5-0.25-0.25 0.375 0.375-0.125-0.125q-0.125-0.125-0.28125-0.21875l-0.15625-0.09375 0.15625 0.09375 0.59375-0.59375-0.125-0.125 0.125 0.125q0.125 0.125 0.3125 0.1875l0.1875 0.0625-0.5625-0.1875 0.75 0.25v1l-0.375-0.125q-0.375-0.125-0.625-0.375" fill="#c2c2c2" fill-opacity=".97647"/>
  <path d="m13 3.5v-0.5h1v1h-1v-0.5" fill="#a5a5a5" fill-opacity=".86667"/>
  <path d="m14 3.5v-0.5h1v1h-1v-0.5" fill="#909090" fill-opacity=".45098"/>
  <path d="m1 4.5v-0.5h1v1h-1v-0.5" fill="#8c8c8c" fill-opacity=".72941"/>
  <path d="m2 4.5v-0.5h1l-0.125 0.375q-0.125 0.375-0.5 0.5l-0.375 0.125v-0.5" fill="#c0c0c0" fill-opacity=".97647"/>
  <path d="m2.875 4.375 0.125-0.375 0.75-0.25-0.5625 0.1875 0.1875-0.0625q0.1875-0.0625 0.34375-0.15625l0.15625-0.09375-0.15625 0.09375 0.5625 0.5625 0.15625-0.09375-0.15625 0.09375q-0.15625 0.09375-0.28125 0.21875l-0.125 0.125 0.375-0.375-0.25 0.25q-0.25 0.25-0.5 0.5l-0.25 0.25 0.375-0.375-0.125 0.125q-0.125 0.125-0.21875 0.28125l-0.09375 0.15625 0.09375-0.15625-0.59375-0.59375-0.125 0.125 0.125-0.125q0.125-0.125 0.1875-0.3125l0.0625-0.1875-0.1875 0.5625 0.125-0.375" fill="#a8a8a8" fill-opacity=".95294"/>
  <path d="m4 4.5q0.25-0.25 0.625-0.375t0.875-0.125 1 0 1 0 1 0 1 0 1 0 0.875 0.125 0.625 0.375l0.25 0.25-0.5 0.5-0.25-0.25q-0.25-0.25-0.51562 0.015625l-0.26562 0.26562 0.15625 0.09375-0.15625-0.09375q-0.15625-0.09375-0.34375-0.15625l-0.1875-0.0625 0.5625 0.1875-0.375-0.125q-0.375-0.125-0.875-0.125t-1 0-1 0-1 0-0.875 0.125l-0.375 0.125 0.5625-0.1875-0.1875 0.0625q-0.1875 0.0625-0.34375 0.15625l-0.15625 0.09375 0.15625-0.09375-0.26562-0.26562q-0.26562-0.26562-0.51562-0.015625l-0.25 0.25-0.5-0.5 0.25-0.25m-0.0625 0.0625-0.3125 0.3125 0.125-0.125q0.125-0.125 0.25-0.25l0.125-0.125-0.1875 0.1875m0.25 0.75 0.4375-0.4375-0.125 0.125q-0.125 0.125-0.25 0.25l-0.125 0.125 0.0625-0.0625m7.375-0.25 0.3125 0.3125-0.125-0.125q-0.125-0.125-0.25-0.25l-0.125-0.125 0.1875 0.1875m0.75-0.25-0.4375-0.4375 0.125 0.125q0.125 0.125 0.25 0.25l0.125 0.125-0.0625-0.0625" fill="#6a6a6a" fill-opacity=".8"/>
  <path d="m12 4.5-0.25-0.25 0.375 0.375-0.125-0.125q-0.125-0.125-0.28125-0.21875l-0.15625-0.09375 0.15625 0.09375 0.5625-0.5625-0.15625-0.09375 0.15625 0.09375q0.15625 0.09375 0.34375 0.15625l0.1875 0.0625-0.5625-0.1875 0.75 0.25 0.25 0.75-0.1875-0.5625 0.0625 0.1875q0.0625 0.1875 0.1875 0.3125l0.125 0.125-0.125-0.125-0.59375 0.59375 0.09375 0.15625-0.09375-0.15625q-0.09375-0.15625-0.21875-0.28125l-0.125-0.125 0.375 0.375-0.25-0.25q-0.25-0.25-0.5-0.5" fill="#a8a8a8" fill-opacity=".95294"/>
  <path d="m13.125 4.375-0.125-0.375h1v1l-0.375-0.125q-0.375-0.125-0.5-0.5" fill="#bebebe" fill-opacity=".97647"/>
  <path d="m14 4.5v-0.5h1v1h-1v-0.5" fill="#8c8c8c" fill-opacity=".72941"/>
  <path d="m1 5.5v-0.5h1v1h-1v-0.5" fill="#868686" fill-opacity=".8"/>
  <path d="m2 5.5v-0.5l0.75-0.25-0.5625 0.1875 0.1875-0.0625q0.1875-0.0625 0.3125-0.1875l0.125-0.125-0.125 0.125 0.59375 0.59375 0.09375-0.15625-0.09375 0.15625q-0.09375 0.15625-0.15625 0.34375l-0.0625 0.1875 0.1875-0.5625-0.25 0.75h-1v-0.5" fill="#c0c0c0"/>
  <path d="m3.125 5.625q0.125-0.375 0.375-0.625l0.25-0.25 0.5 0.5-0.25 0.25q-0.25 0.25-0.625 0.375l-0.375 0.125 0.125-0.375m0.9375-0.1875 0.3125-0.3125-0.125 0.125q-0.125 0.125-0.25 0.25l-0.125 0.125 0.1875-0.1875m-0.25-0.75-0.4375 0.4375 0.125-0.125q0.125-0.125 0.25-0.25l0.125-0.125-0.0625 0.0625" fill="#686868" fill-opacity=".8"/>
  <path d="m4 5.5q0.25-0.25 0.5-0.5t0.51562 0.015625l0.26562 0.26562 0.15625-0.09375-0.15625 0.09375q-0.15625 0.09375-0.28125 0.21875l-0.125 0.125 0.375-0.375-0.25 0.25q-0.25 0.25-0.5 0.5l-0.25 0.25 0.375-0.375-0.125 0.125q-0.125 0.125-0.21875 0.28125l-0.09375 0.15625 0.09375-0.15625-0.5625-0.5625-0.15625 0.09375 0.15625-0.09375q0.15625-0.09375 0.28125-0.21875l0.125-0.125-0.375 0.375 0.25-0.25" fill="#696969" fill-opacity=".2"/>
  <path d="m11 5.5-0.25-0.25 0.375 0.375-0.125-0.125q-0.125-0.125-0.28125-0.21875l-0.15625-0.09375 0.15625 0.09375 0.26562-0.26562q0.26562-0.26562 0.51562-0.015625t0.5 0.5l0.25 0.25-0.375-0.375 0.125 0.125q0.125 0.125 0.28125 0.21875l0.15625 0.09375-0.15625-0.09375-0.5625 0.5625 0.09375 0.15625-0.09375-0.15625q-0.09375-0.15625-0.21875-0.28125l-0.125-0.125 0.375 0.375-0.25-0.25q-0.25-0.25-0.5-0.5" fill="#696969" fill-opacity=".2"/>
  <path d="m12 5.5-0.25-0.25 0.5-0.5 0.25 0.25q0.25 0.25 0.375 0.625l0.125 0.375-0.375-0.125q-0.375-0.125-0.625-0.375m0.4375-0.5625-0.3125-0.3125 0.125 0.125q0.125 0.125 0.25 0.25l0.125 0.125-0.1875-0.1875m-0.75 0.25 0.4375 0.4375-0.125-0.125q-0.125-0.125-0.25-0.25l-0.125-0.125 0.0625 0.0625" fill="#686868" fill-opacity=".8"/>
  <path d="m12.875 5.625-0.125-0.375 0.1875 0.5625-0.0625-0.1875q-0.0625-0.1875-0.15625-0.34375l-0.09375-0.15625 0.09375 0.15625 0.59375-0.59375-0.125-0.125 0.125 0.125q0.125 0.125 0.3125 0.1875l0.1875 0.0625-0.5625-0.1875 0.75 0.25-0.125 0.375q-0.125 0.375-0.5 0.5l-0.375 0.125-0.125-0.375" fill="#bdbdbd"/>
  <path d="m13.875 5.375 0.125-0.375h1v1l-0.75 0.25 0.5625-0.1875-0.1875 0.0625q-0.1875 0.0625-0.34375 0.15625l-0.15625 0.09375 0.15625-0.09375-0.59375-0.59375-0.125 0.125 0.125-0.125q0.125-0.125 0.1875-0.3125l0.0625-0.1875-0.1875 0.5625 0.125-0.375" fill="#868686" fill-opacity=".8"/>
  <path d="m1 6.5v-0.5h1v1h-1v-0.5" fill="#808080" fill-opacity=".8"/>
  <path d="m2 6.5v-0.5h1v1h-1v-0.5" fill="#bbb"/>
  <path d="m3 6.5v-0.5l0.75-0.25-0.5625 0.1875 0.1875-0.0625q0.1875-0.0625 0.34375-0.15625l0.15625-0.09375-0.15625 0.09375 0.5625 0.5625 0.09375-0.15625-0.09375 0.15625q-0.09375 0.15625-0.15625 0.34375l-0.0625 0.1875 0.1875-0.5625-0.25 0.75h-1v-0.5" fill="#676767" fill-opacity=".8"/>
  <path d="m11.875 6.625-0.125-0.375 0.1875 0.5625-0.0625-0.1875q-0.0625-0.1875-0.15625-0.34375l-0.09375-0.15625 0.09375 0.15625 0.5625-0.5625-0.15625-0.09375 0.15625 0.09375q0.15625 0.09375 0.34375 0.15625l0.1875 0.0625-0.5625-0.1875 0.75 0.25v1h-1l-0.125-0.375" fill="#676767" fill-opacity=".8"/>
  <path d="m13 6.5v-0.5l0.75-0.25-0.5625 0.1875 0.1875-0.0625q0.1875-0.0625 0.3125-0.1875l0.125-0.125-0.125 0.125 0.59375 0.59375 0.15625-0.09375-0.15625 0.09375q-0.15625 0.09375-0.28125 0.21875l-0.125 0.125 0.375-0.375-0.25 0.25q-0.25 0.25-0.625 0.375l-0.375 0.125v-0.5" fill="#b7b7b7"/>
  <path d="m14 6.5q0.25-0.25 0.625-0.375l0.375-0.125v1l-0.75 0.25 0.5625-0.1875-0.1875 0.0625q-0.1875 0.0625-0.34375 0.15625l-0.15625 0.09375 0.15625-0.09375-0.5625-0.5625-0.15625 0.09375 0.15625-0.09375q0.15625-0.09375 0.28125-0.21875l0.125-0.125-0.375 0.375 0.25-0.25" fill="#808080" fill-opacity=".8"/>
  <path d="m1 7.5v-0.5h1l0.25 0.75-0.1875-0.5625 0.0625 0.1875q0.0625 0.1875 0.1875 0.3125l0.125 0.125-0.125-0.125-0.59375 0.59375 0.15625 0.09375-0.15625-0.09375q-0.15625-0.09375-0.34375-0.15625l-0.1875-0.0625 0.5625 0.1875-0.75-0.25v-0.5" fill="#797979" fill-opacity=".8"/>
  <path d="m2.125 7.375-0.125-0.375h1v1l-0.375-0.125q-0.375-0.125-0.5-0.5" fill="#b2b2b2"/>
  <path d="m3 7.5v-0.5h1v1h-1v-0.5" fill="#656565" fill-opacity=".8"/>
  <path d="m12 7.5v-0.5h1v1h-1v-0.5" fill="#656565" fill-opacity=".8"/>
  <path d="m13 7.5v-0.5l0.75-0.25-0.5625 0.1875 0.1875-0.0625q0.1875-0.0625 0.34375-0.15625l0.15625-0.09375-0.15625 0.09375 0.5625 0.5625 0.15625-0.09375-0.15625 0.09375q-0.15625 0.09375-0.28125 0.21875l-0.125 0.125 0.375-0.375-0.25 0.25q-0.25 0.25-0.625 0.375l-0.375 0.125v-0.5" fill="#acacac"/>
  <path d="m14 7.5q0.25-0.25 0.625-0.375l0.375-0.125v1l-0.75 0.25 0.5625-0.1875-0.1875 0.0625q-0.1875 0.0625-0.34375 0.15625l-0.15625 0.09375 0.15625-0.09375-0.5625-0.5625-0.15625 0.09375 0.15625-0.09375q0.15625-0.09375 0.28125-0.21875l0.125-0.125-0.375 0.375 0.25-0.25" fill="#797979" fill-opacity=".8"/>
  <path d="m1 8.5v-0.5l0.375 0.125q0.375 0.125 0.625 0.375l0.25 0.25-0.375-0.375 0.125 0.125q0.125 0.125 0.28125 0.21875l0.15625 0.09375-0.15625-0.09375-0.59375 0.59375 0.125 0.125-0.125-0.125q-0.125-0.125-0.3125-0.1875l-0.1875-0.0625 0.5625 0.1875-0.75-0.25v-0.5" fill="#727272" fill-opacity=".8"/>
  <path d="m2 8.5-0.25-0.25 0.375 0.375-0.125-0.125q-0.125-0.125-0.28125-0.21875l-0.15625-0.09375 0.15625 0.09375 0.59375-0.59375-0.125-0.125 0.125 0.125q0.125 0.125 0.3125 0.1875l0.1875 0.0625-0.5625-0.1875 0.75 0.25v1l-0.375-0.125q-0.375-0.125-0.625-0.375" fill="#a9a9a9"/>
  <path d="m3 8.5v-0.5h1l0.25 0.75-0.1875-0.5625 0.0625 0.1875q0.0625 0.1875 0.15625 0.34375l0.09375 0.15625-0.09375-0.15625-0.59375 0.59375 0.125 0.125-0.125-0.125q-0.125-0.125-0.3125-0.1875l-0.1875-0.0625 0.5625 0.1875-0.75-0.25v-0.5" fill="#626262" fill-opacity=".8"/>
  <path d="m9 8.5q0.25-0.25 0.625-0.375l0.375-0.125v1l-0.75 0.25 0.5625-0.1875-0.1875 0.0625q-0.1875 0.0625-0.34375 0.15625l-0.15625 0.09375 0.15625-0.09375-0.53125-0.53125 0.25-0.25m-0.0625 0.0625-0.3125 0.3125 0.125-0.125q0.125-0.125 0.25-0.25l0.125-0.125-0.1875 0.1875" fill="#717171" fill-opacity=".28235"/>
  <path d="m10 8.5v-0.5l0.375 0.125q0.375 0.125 0.5 0.5l0.125 0.375h-1v-0.5" fill="#717171" fill-opacity=".6"/>
  <path d="m12 8.5v-0.5h1v1h-1v-0.5" fill="#626262" fill-opacity=".8"/>
  <path d="m13 8.5v-0.5l0.75-0.25-0.5625 0.1875 0.1875-0.0625q0.1875-0.0625 0.34375-0.15625l0.15625-0.09375-0.15625 0.09375 0.5625 0.5625 0.15625-0.09375-0.15625 0.09375q-0.15625 0.09375-0.28125 0.21875l-0.125 0.125 0.375-0.375-0.25 0.25q-0.25 0.25-0.625 0.375l-0.375 0.125v-0.5" fill="#a1a1a1"/>
  <path d="m14 8.5q0.25-0.25 0.625-0.375l0.375-0.125v1l-0.75 0.25 0.5625-0.1875-0.1875 0.0625q-0.1875 0.0625-0.34375 0.15625l-0.15625 0.09375 0.15625-0.09375-0.5625-0.5625-0.15625 0.09375 0.15625-0.09375q0.15625-0.09375 0.28125-0.21875l0.125-0.125-0.375 0.375 0.25-0.25" fill="#727272" fill-opacity=".8"/>
  <path d="m1 9.5v-0.5l0.375 0.125q0.375 0.125 0.5 0.5l0.125 0.375h-1v-0.5" fill="#6a6a6a" fill-opacity=".8"/>
  <path d="m1.875 9.625-0.125-0.375 0.1875 0.5625-0.0625-0.1875q-0.0625-0.1875-0.1875-0.3125l-0.125-0.125 0.125 0.125 0.59375-0.59375-0.15625-0.09375 0.15625 0.09375q0.15625 0.09375 0.34375 0.15625l0.1875 0.0625-0.5625-0.1875 0.75 0.25 0.25 0.75-0.1875-0.5625 0.0625 0.1875q0.0625 0.1875 0.1875 0.3125l0.125 0.125-0.125-0.125-0.625 0.625 0.125 0.125-0.125-0.125q-0.125-0.125-0.3125-0.1875l-0.1875-0.0625 0.5625 0.1875-0.75-0.25-0.125-0.375" fill="#a1a1a1"/>
  <path d="M 3.125,9.375 3,9 3.375,9.125 q 0.375,0.125 0.5,0.5 L 4,10 3.625,9.875 Q 3.25,9.75 3.125,9.375" fill="#606060" fill-opacity=".8"/>
  <path d="m3.875 9.625-0.125-0.375 0.1875 0.5625-0.0625-0.1875q-0.0625-0.1875-0.1875-0.3125l-0.125-0.125 0.125 0.125 0.59375-0.59375-0.09375-0.15625 0.09375 0.15625q0.09375 0.15625 0.21875 0.28125l0.125 0.125-0.375-0.375 0.25 0.25q0.25 0.25 0.5 0.5l0.25 0.25-0.53125 0.53125 0.15625 0.09375-0.15625-0.09375q-0.15625-0.09375-0.34375-0.15625l-0.1875-0.0625 0.5625 0.1875-0.75-0.25-0.125-0.375m1.4375 0.1875-0.4375-0.4375 0.125 0.125q0.125 0.125 0.25 0.25l0.125 0.125-0.0625-0.0625" fill="#646464" fill-opacity=".2"/>
  <path d="m8 9.5q0.25-0.25 0.5-0.5l0.25-0.25 0.53125 0.53125 0.15625-0.09375-0.15625 0.09375q-0.15625 0.09375-0.28125 0.21875l-0.125 0.125 0.375-0.375-0.25 0.25q-0.25 0.25-0.5 0.5l-0.25 0.25-0.5-0.5 0.25-0.25m-0.0625 0.0625-0.3125 0.3125 0.125-0.125q0.125-0.125 0.25-0.25l0.125-0.125-0.1875 0.1875m0.25 0.75 0.4375-0.4375-0.125 0.125q-0.125 0.125-0.25 0.25l-0.125 0.125 0.0625-0.0625m0.625-1.625-0.4375 0.4375 0.125-0.125q0.125-0.125 0.25-0.25l0.125-0.125-0.0625 0.0625" fill="#6a6a6a" fill-opacity=".28235"/>
  <path d="m9 9.5q0.25-0.25 0.625-0.375l0.375-0.125h1l0.25 0.75-0.1875-0.5625 0.0625 0.1875q0.0625 0.1875 0.15625 0.28125l0.09375 0.09375-0.09375-0.09375-0.26562 0.29688q-0.26562 0.29688-0.51562 0.046875t-0.5 0.03125l-0.25 0.28125 0.125 0.0625-0.125-0.0625q-0.125-0.0625-0.25-0.0625h-0.125 0.375-0.5 0.375-0.125q-0.125 0-0.25 0.0625l-0.125 0.0625 0.125-0.0625-0.5-0.5625 0.25-0.25m-0.0625 0.0625-0.3125 0.3125 0.125-0.125q0.125-0.125 0.25-0.25l0.125-0.125-0.1875 0.1875" fill="#6a6a6a" fill-opacity=".8"/>
  <path d="m11.875 9.375 0.125-0.375h1l-0.125 0.375q-0.125 0.375-0.375 0.625l-0.25 0.25-0.53125-0.59375-0.09375 0.09375 0.09375-0.09375q0.09375-0.09375 0.15625-0.28125l0.0625-0.1875-0.1875 0.5625 0.125-0.375m0.3125 0.9375 0.4375-0.4375-0.125 0.125q-0.125 0.125-0.25 0.25l-0.125 0.125 0.0625-0.0625" fill="#606060" fill-opacity=".8"/>
  <path d="m12.875 9.375 0.125-0.375 0.75-0.25-0.5625 0.1875 0.1875-0.0625q0.1875-0.0625 0.34375-0.15625l0.15625-0.09375-0.15625 0.09375 0.5625 0.5625 0.15625-0.09375-0.15625 0.09375q-0.15625 0.09375-0.28125 0.21875l-0.125 0.125 0.375-0.375-0.25 0.25q-0.25 0.25-0.5 0.5l-0.25 0.25 0.375-0.375-0.125 0.125q-0.125 0.125-0.21875 0.28125l-0.09375 0.15625 0.09374-0.15626-0.56249-0.56249-0.09375 0.15625 0.09375-0.15625q0.09375-0.15625 0.15625-0.34375l0.0625-0.1875-0.1875 0.5625 0.125-0.375" fill="#989898"/>
  <path d="m14 9.5q0.25-0.25 0.625-0.375l0.375-0.125v1l-0.75 0.25 0.5625-0.1875-0.1875 0.0625q-0.1875 0.0625-0.34375 0.15625l-0.15625 0.09375 0.15625-0.09375-0.53125-0.53125 0.25-0.25m-0.0625 0.0625-0.3125 0.3125 0.125-0.125q0.125-0.125 0.25-0.25l0.125-0.125-0.1875 0.1875" fill="#6a6a6a" fill-opacity=".8"/>
  <path d="m1 10.5v-0.5h1l0.25 0.75-0.1875-0.5625 0.0625 0.1875q0.0625 0.1875 0.1875 0.3125l0.125 0.125-0.125-0.125-0.625 0.625 0.125 0.125-0.125-0.125q-0.125-0.125-0.3125-0.1875l-0.1875-0.0625 0.5625 0.1875-0.75-0.25v-0.5" fill="#636363" fill-opacity=".72941"/>
  <path d="M 2.125,10.375 2,10 2.375,10.125 q 0.375,0.125 0.5,0.5 L 3,11 2.625,10.875 q -0.375,-0.125 -0.5,-0.5" fill="#a0a0a0" fill-opacity=".97647"/>
  <path d="m2.875 10.625-0.125-0.375 0.1875 0.5625-0.0625-0.1875q-0.0625-0.1875-0.1875-0.3125l-0.125-0.125 0.125 0.125 0.625-0.625-0.125-0.125 0.125 0.125q0.125 0.125 0.3125 0.1875l0.1875 0.0625-0.5625-0.1875 0.75 0.25 0.25 0.75-0.1875-0.5625 0.0625 0.1875q0.0625 0.1875 0.15625 0.34375l0.09375 0.15625-0.09375-0.15625-0.59375 0.59375 0.125 0.125-0.125-0.125q-0.125-0.125-0.3125-0.1875l-0.1875-0.0625 0.5625 0.1875-0.75-0.25-0.125-0.375" fill="#7c7c7c" fill-opacity=".95294"/>
  <path d="m4.125 10.375-0.125-0.375 0.375 0.125q0.375 0.125 0.625 0.375l0.25 0.25-0.375-0.375 0.125 0.125q0.125 0.125 0.28125 0.21875l0.15625 0.09375-0.15625-0.09375-0.59375 0.53125 0.0625 0.125-0.0625-0.125q-0.0625-0.125-0.1875-0.25l-0.125-0.125 0.375 0.375-0.25-0.25q-0.25-0.25-0.375-0.625" fill="#636363" fill-opacity=".8"/>
  <path d="m5 10.5-0.25-0.25 0.375 0.375-0.125-0.125q-0.125-0.125-0.28125-0.21875l-0.15625-0.09375 0.15625 0.09375 0.53125-0.53125 0.25 0.25q0.25 0.25 0.375 0.625l0.125 0.375-0.375-0.125q-0.375-0.125-0.625-0.375m0.4375-0.5625-0.3125-0.3125 0.125 0.125q0.125 0.125 0.25 0.25l0.125 0.125-0.1875-0.1875" fill="#626262" fill-opacity=".6"/>
  <path d="m7.125 10.625q0.125-0.375 0.375-0.625l0.25-0.25 0.5 0.5-0.25 0.25q-0.25 0.25-0.625 0.375l-0.375 0.125 0.125-0.375m0.9375-0.1875 0.3125-0.3125-0.125 0.125q-0.125 0.125-0.25 0.25l-0.125 0.125 0.1875-0.1875m-0.25-0.75-0.4375 0.4375 0.125-0.125q0.125-0.125 0.25-0.25l0.125-0.125-0.0625 0.0625" fill="#636363" fill-opacity=".28235"/>
  <path d="m8 10.5q0.25-0.25 0.5-0.5l0.25-0.25 0.5 0.5625 0.125-0.0625-0.125 0.0625q-0.125 0.0625-0.25 0.1875l-0.125 0.125 0.375-0.375-0.25 0.25q-0.25 0.25-0.5 0.5l-0.25 0.25 0.375-0.375-0.125 0.125q-0.125 0.125-0.1875 0.25l-0.0625 0.125 0.0625-0.125-0.59375-0.53125-0.15625 0.09375 0.15625-0.09375q0.15625-0.09375 0.28125-0.21875l0.125-0.125-0.375 0.375 0.25-0.25m0.8125-0.8125-0.4375 0.4375 0.125-0.125q0.125-0.125 0.25-0.25l0.125-0.125-0.0625 0.0625" fill="#636363" fill-opacity=".8"/>
  <path d="m9 10.5q0.25-0.25 0.5-0.25t0.5 0.25l0.25 0.25-0.375-0.375 0.125 0.125q0.125 0.125 0.28125 0.21875l0.15625 0.09375-0.15625-0.09375-0.59375 0.59375 0.0625 0.0625-0.0625-0.0625q-0.0625-0.0625-0.1875-0.0625h-0.125 0.375-0.5 0.375-0.125q-0.125 0-0.1875 0.0625l-0.0625 0.0625 0.0625-0.0625-0.5625-0.5625 0.25-0.25m-0.0625 0.0625-0.3125 0.3125 0.125-0.125q0.125-0.125 0.25-0.25l0.125-0.125-0.1875 0.1875" fill="#b2b2b2"/>
  <path d="m10 10.5-0.25-0.25 0.375 0.375-0.125-0.125q-0.125-0.125-0.25-0.1875l-0.125-0.0625 0.125 0.0625 0.25-0.28125q0.25-0.28125 0.5-0.03125t0.51562-0.046875l0.26562-0.29688-0.09375-0.09375 0.09375 0.09375q0.09375 0.09375 0.21875 0.09375h0.125-0.375 0.5-0.375 0.125q0.125 0 0.21875-0.09375l0.09375-0.09375-0.09375 0.09375 0.53125 0.59375-0.25 0.25q-0.25 0.25-0.625 0.375t-0.75 0-0.625-0.375m2.0625-0.0625 0.3125-0.3125-0.125 0.125q-0.125 0.125-0.25 0.25l-0.125 0.125 0.1875-0.1875" fill="#636363" fill-opacity=".8"/>
  <path d="m12 10.5q0.25-0.25 0.5-0.5l0.25-0.25-0.375 0.375 0.125-0.125q0.125-0.125 0.21875-0.28125l0.09375-0.15625-0.09375 0.15625 0.5625 0.5625 0.04687-0.07813 0.04688-0.07812-0.09375 0.15625q-0.09375 0.15625-0.15625 0.34375l-0.0625 0.1875 0.1875-0.5625-0.25 0.75-0.75 0.25 0.5625-0.1875-0.1875 0.0625q-0.1875 0.0625-0.3125 0.1875l-0.125 0.125 0.125-0.125-0.59375-0.59375-0.15626 0.09374 0.15625-0.09375q0.15626-0.09374 0.28126-0.21874l0.125-0.125-0.375 0.375 0.25-0.25" fill="#7c7c7c" fill-opacity=".95294"/>
  <path d="m13.125 10.625q0.125-0.375 0.375-0.625l0.25-0.25 0.53125 0.53125 0.15626-0.09374-0.15625 0.09375q-0.15626 0.09374-0.28126 0.21874l-0.125 0.125 0.375-0.375-0.25 0.25q-0.25 0.25-0.625 0.375l-0.375 0.125 0.125-0.375m0.6875-0.9375-0.4375 0.4375 0.125-0.125q0.125-0.125 0.25-0.25l0.125-0.125-0.0625 0.0625" fill="#979797" fill-opacity=".97647"/>
  <path d="m14 10.5q0.25-0.25 0.625-0.375l0.375-0.125v1l-0.75 0.25 0.5625-0.1875-0.1875 0.0625q-0.1875 0.0625-0.3125 0.1875l-0.125 0.125 0.125-0.125-0.59375-0.59375-0.15626 0.09374 0.15625-0.09375q0.15626-0.09374 0.28126-0.21874l0.125-0.125-0.375 0.375 0.25-0.25" fill="#636363" fill-opacity=".72941"/>
  <path d="m1 11.5v-0.5l0.375 0.125q0.375 0.125 0.5 0.5l0.125 0.375h-1v-0.5" fill="#5d5d5d" fill-opacity=".45098"/>
  <path d="m1.875 11.625-0.125-0.375 0.1875 0.5625-0.0625-0.1875q-0.0625-0.1875-0.1875-0.3125l-0.125-0.125 0.125 0.125 0.625-0.625-0.125-0.125 0.125 0.125q0.125 0.125 0.3125 0.1875l0.1875 0.0625-0.5625-0.1875 0.75 0.25 0.25 0.75-0.1875-0.5625 0.0625 0.1875q0.0625 0.1875 0.1875 0.3125l0.125 0.125-0.125-0.125-0.625 0.625 0.125 0.125-0.125-0.125q-0.125-0.125-0.3125-0.1875l-0.1875-0.0625 0.5625 0.1875-0.75-0.25-0.125-0.375" fill="#797979" fill-opacity=".86667"/>
  <path d="M 3.125,11.375 3,11 3.375,11.125 q 0.375,0.125 0.5,0.5 L 4,12 3.625,11.875 q -0.375,-0.125 -0.5,-0.5" fill="#9b9b9b" fill-opacity=".97647"/>
  <path d="m3.875 11.625-0.125-0.375 0.1875 0.5625-0.0625-0.1875q-0.0625-0.1875-0.1875-0.3125l-0.125-0.125 0.125 0.125 0.59375-0.59375-0.09375-0.15625 0.09375 0.15625q0.09375 0.15625 0.21875 0.28125l0.125 0.125-0.375-0.375 0.25 0.25q0.25 0.25 0.25 0.5t-0.375 0.375l-0.375 0.125-0.125-0.375" fill="#979797"/>
  <path d="m4.75 11.5v-0.25 0.375-0.125q0-0.125-0.0625-0.25l-0.0625-0.125 0.0625 0.125 0.59375-0.53125-0.15625-0.09375 0.15625 0.09375q0.15625 0.09375 0.34375 0.15625l0.1875 0.0625-0.5625-0.1875 0.75 0.25v1l-0.75 0.25 0.5625-0.1875-0.1875 0.0625q-0.1875 0.0625-0.3125 0.1875l-0.125 0.125 0.125-0.125-0.65625-0.59375-0.09375 0.09375 0.09375-0.09375q0.09375-0.09375 0.09375-0.21875v-0.125 0.375-0.25" fill="#5d5d5d" fill-opacity=".8"/>
  <path d="m7 11.5v-0.5l0.75-0.25-0.5625 0.1875 0.1875-0.0625q0.1875-0.0625 0.34375-0.15625l0.15625-0.09375-0.15625 0.09375 0.59375 0.53125 0.0625-0.125-0.0625 0.125q-0.0625 0.125-0.0625 0.25v0.125-0.375 0.5-0.375 0.125q0 0.125 0.0625 0.25l0.0625 0.125-0.0625-0.125-0.59375 0.53125 0.15625 0.09375-0.15625-0.09375q-0.15625-0.09375-0.34375-0.15625l-0.1875-0.0625 0.5625 0.1875-0.75-0.25v-0.5" fill="#5d5d5d" fill-opacity=".8"/>
  <g>
   <path d="m8.25 11.5q0-0.25 0.25-0.5l0.25-0.25 0.5625 0.5625 0.0625-0.0625-0.0625 0.0625q-0.0625 0.0625-0.0625 0.1875v0.125-0.375 0.5-0.375 0.125q0 0.125 0.0625 0.1875l0.0625 0.0625-0.0625-0.0625-0.5625 0.5625-0.25-0.25q-0.25-0.25-0.25-0.5m0.3125 0.5625 0.3125 0.3125-0.125-0.125q-0.125-0.125-0.25-0.25l-0.125-0.125 0.1875 0.1875m0.25-1.375-0.4375 0.4375 0.125-0.125q0.125-0.125 0.25-0.25l0.125-0.125-0.0625 0.0625" fill="#afafaf"/>
   <path d="m9.25 11.5q0-0.25 0.25-0.25t0.25 0.25-0.25 0.25-0.25-0.25" fill="#939393"/>
   <path d="m9.75 11.5v-0.25 0.375-0.125q0-0.125-0.0625-0.1875l-0.0625-0.0625 0.0625 0.0625 0.59375-0.59375-0.15625-0.09375 0.15625 0.09375q0.15625 0.09375 0.34375 0.15625l0.1875 0.0625-0.5625-0.1875 0.375 0.125q0.375 0.125 0.75 0l0.375-0.125-0.5625 0.1875 0.1875-0.0625q0.1875-0.0625 0.34375-0.15625l0.15625-0.09375-0.15626 0.09374 0.59375 0.59375 0.125-0.125-0.125 0.125q-0.125 0.125-0.1875 0.3125l-0.06249 0.18751 0.1875-0.5625-0.25 0.75h-0.5q-0.5 0-0.875 0.125l-0.375 0.125 0.5625-0.1875-0.1875 0.0625q-0.1875 0.0625-0.34375 0.15625l-0.15625 0.09375 0.15625-0.09375-0.59375-0.59375-0.0625 0.0625 0.0625-0.0625q0.0625-0.0625 0.0625-0.1875v-0.125 0.375-0.25" fill="#929292"/>
  </g>
  <path d="m12.125 11.625q0.125-0.375 0.5-0.5l0.375-0.125-0.125 0.375q-0.125 0.375-0.5 0.5l-0.375 0.125 0.125-0.375" fill="#949494" fill-opacity=".97647"/>
  <path d="m12.875 11.375 0.125-0.375 0.75-0.25-0.5625 0.1875 0.1875-0.0625q0.1875-0.0625 0.34375-0.15625l0.15625-0.09375-0.15626 0.09374 0.59375 0.59375 0.125-0.125-0.125 0.125q-0.125 0.125-0.1875 0.3125l-0.06249 0.18751 0.1875-0.5625-0.25 0.75-0.75 0.25 0.5625-0.1875-0.1875 0.0625q-0.1875 0.0625-0.3125 0.1875l-0.125 0.125 0.125-0.125-0.625-0.625-0.125 0.125 0.125-0.125q0.125-0.125 0.1875-0.3125l0.0625-0.1875-0.1875 0.5625 0.125-0.375" fill="#757575" fill-opacity=".86667"/>
  <path d="m14.125 11.625q0.125-0.375 0.5-0.5l0.375-0.125v1h-1l0.125-0.375" fill="#5d5d5d" fill-opacity=".45098"/>
  <path d="m1.125 12.375-0.125-0.375h1v1l-0.375-0.125q-0.375-0.125-0.5-0.5" fill="#555" fill-opacity=".047059"/>
  <path d="m2 12.5v-0.5l0.375 0.125q0.375 0.125 0.5 0.5l0.125 0.375h-1v-0.5" fill="#565656" fill-opacity=".45098"/>
  <path d="m2.875 12.625-0.125-0.375 0.1875 0.5625-0.0625-0.1875q-0.0625-0.1875-0.1875-0.3125l-0.125-0.125 0.125 0.125 0.625-0.625-0.125-0.125 0.125 0.125q0.125 0.125 0.3125 0.1875l0.1875 0.0625-0.5625-0.1875 0.75 0.25v1h-1l-0.125-0.375" fill="#565656" fill-opacity=".72941"/>
  <path d="m4 12.5v-0.5l0.75-0.25-0.5625 0.1875 0.1875-0.0625q0.1875-0.0625 0.28125-0.15625l0.09375-0.09375-0.09375 0.09375 0.65625 0.59375 0.125-0.125-0.125 0.125q-0.125 0.125-0.1875 0.3125l-0.0625 0.1875 0.1875-0.5625-0.25 0.75h-1v-0.5" fill="#585858" fill-opacity=".8"/>
  <path d="m 5.125,12.625 q 0.125,-0.375 0.5,-0.5 L 6,12 5.875,12.375 q -0.125,0.375 -0.5,0.5 L 5,13 5.125,12.625" fill="#585858" fill-opacity=".6"/>
  <path d="m7.125 12.375-0.125-0.375 0.375 0.125q0.375 0.125 0.625 0.375l0.25 0.25-0.5 0.5-0.25-0.25q-0.25-0.25-0.375-0.625m0.4375 0.6875 0.3125 0.3125-0.125-0.125q-0.125-0.125-0.25-0.25l-0.125-0.125 0.1875 0.1875m0.75-0.25-0.4375-0.4375 0.125 0.125q0.125 0.125 0.25 0.25l0.125 0.125-0.0625-0.0625" fill="#595959" fill-opacity=".28235"/>
  <path d="m8 12.5-0.25-0.25 0.375 0.375-0.125-0.125q-0.125-0.125-0.28125-0.21875l-0.15625-0.09375 0.15625 0.09375 0.59375-0.53125-0.0625-0.125 0.0625 0.125q0.0625 0.125 0.1875 0.25l0.125 0.125-0.375-0.375 0.25 0.25q0.25 0.25 0.5 0.5l0.25 0.25-0.375-0.375 0.125 0.125q0.125 0.125 0.25 0.1875l0.125 0.0625-0.125-0.0625-0.5 0.5625-0.25-0.25q-0.25-0.25-0.5-0.5m0.5625 0.5625 0.3125 0.3125-0.125-0.125q-0.125-0.125-0.25-0.25l-0.125-0.125 0.1875 0.1875" fill="#585858" fill-opacity=".8"/>
  <path d="m9 12.5-0.25-0.25 0.5625-0.5625-0.0625-0.0625 0.0625 0.0625q0.0625 0.0625 0.1875 0.0625h0.125-0.375 0.5-0.375 0.125q0.125 0 0.1875-0.0625l0.0625-0.0625-0.0625 0.0625 0.59375 0.59375 0.15626-0.09374-0.15625 0.09375q-0.15626 0.09374-0.28126 0.21874l-0.125 0.125 0.375-0.375-0.25 0.25q-0.25 0.25-0.5 0.25t-0.5-0.25m-0.3125-0.3125 0.4375 0.4375-0.125-0.125q-0.125-0.125-0.25-0.25l-0.125-0.125 0.0625 0.0625" fill="#a1a1a1"/>
  <path d="m10 12.5q0.25-0.25 0.625-0.375t0.875-0.125h0.5v1l-0.75 0.25 0.5625-0.1875-0.1875 0.0625q-0.1875 0.0625-0.3125 0.1875l-0.125 0.125 0.125-0.125-0.28125-0.28125q-0.28125-0.28125-0.53125-0.03125t-0.5-0.03125l-0.25-0.28125-0.125 0.0625 0.125-0.0625q0.125-0.0625 0.25-0.1875l0.125-0.125-0.375 0.375 0.25-0.25" fill="#585858" fill-opacity=".8"/>
  <path d="m12 12.5v-0.5l0.75-0.25-0.5625 0.1875 0.1875-0.0625q0.1875-0.0625 0.3125-0.1875l0.125-0.125-0.125 0.125 0.625 0.625 0.125-0.125-0.125 0.125q-0.125 0.125-0.1875 0.3125l-0.0625 0.1875 0.1875-0.5625-0.25 0.75h-1v-0.5" fill="#565656" fill-opacity=".72941"/>
  <path d="m13.125 12.625q0.125-0.375 0.5-0.5l0.375-0.125v1h-1l0.125-0.375" fill="#565656" fill-opacity=".45098"/>
  <path d="m14 12.5v-0.5h1l-0.125 0.375q-0.125 0.375-0.5 0.5l-0.375 0.125v-0.5" fill="#555" fill-opacity=".047059"/>
  <path d="m8 13.5-0.25-0.25 0.5-0.5 0.25 0.25q0.25 0.25 0.5 0.5l0.25 0.25-0.375-0.375 0.125 0.125q0.125 0.125 0.28125 0.21875l0.15625 0.09375-0.15625-0.09375-0.5625 0.5625 0.09375 0.15625-0.09375-0.15625q-0.09375-0.15625-0.21875-0.28125l-0.125-0.125 0.375 0.375-0.25-0.25q-0.25-0.25-0.5-0.5m0.4375-0.5625-0.3125-0.3125 0.125 0.125q0.125 0.125 0.25 0.25l0.125 0.125-0.1875-0.1875m-0.75 0.25 0.4375 0.4375-0.125-0.125q-0.125-0.125-0.25-0.25l-0.125-0.125 0.0625 0.0625" fill="#3c3c3c" fill-opacity=".28235"/>
  <path d="m9 13.5-0.25-0.25 0.5-0.5625-0.125-0.0625 0.125 0.0625q0.125 0.0625 0.25 0.0625h0.125-0.375 0.5-0.375 0.125q0.125 0 0.25-0.0625l0.125-0.0625-0.125 0.0625 0.25 0.28125q0.25 0.28125 0.5 0.03125t0.53125 0.03125l0.28125 0.28125 0.125-0.125-0.125 0.125q-0.125 0.125-0.1875 0.3125l-0.0625 0.1875 0.1875-0.5625-0.25 0.75h-1l-0.375-0.125q-0.375-0.125-0.625-0.375m-0.3125-0.3125 0.4375 0.4375-0.125-0.125q-0.125-0.125-0.25-0.25l-0.125-0.125 0.0625 0.0625" fill="#515151" fill-opacity=".8"/>
  <g>
   <path d="m1 14.5q0-0.5 0.5-0.5h0.5v2h-1v-0.5q0-0.5 0-1" fill-opacity=".0039216"/>
   <path d="m2 14.5v-0.5h1v1h-1v-0.5" fill-opacity=".019608"/>
   <path d="m3 14.5v-0.5h1v1h-1v-0.5" fill-opacity=".039216"/>
   <path d="m4 14.5v-0.5h1v1h-1v-0.5" fill-opacity=".066667"/>
   <path d="m5 14.5v-0.5h1v1h-1v-0.5" fill-opacity=".090196"/>
   <path d="m6 14.5v-0.5h1v1h-1v-0.5" fill-opacity=".11765"/>
   <path d="m7 14.5v-0.5l0.375 0.125q0.375 0.125 0.5 0.5l0.125 0.375h-1v-0.5" fill-opacity=".1451"/>
   <path d="m7.875 14.625-0.125-0.375 0.1875 0.5625-0.0625-0.1875q-0.0625-0.1875-0.1875-0.3125l-0.125-0.125 0.125 0.125 0.5625-0.5625 0.25 0.25q0.25 0.25 0.375 0.625l0.125 0.375h-1l-0.125-0.375m0.5625-0.6875-0.3125-0.3125 0.125 0.125q0.125 0.125 0.25 0.25l0.125 0.125-0.1875-0.1875" fill-opacity=".16863"/>
  </g>
  <path d="m8.875 14.625-0.125-0.375 0.1875 0.5625-0.0625-0.1875q-0.0625-0.1875-0.15625-0.34375l-0.09375-0.15625 0.09375 0.15625 0.5625-0.5625-0.15625-0.09375 0.15625 0.09375q0.15625 0.09375 0.34375 0.15625l0.1875 0.0625-0.5625-0.1875 0.75 0.25 0.25 0.75-0.1875-0.5625 0.0625 0.1875q0.0625 0.1875 0.15625 0.28125l0.09375 0.09375-0.09375-0.09375-0.59375 0.65625 0.125 0.125-0.125-0.125q-0.125-0.125-0.3125-0.1875l-0.1875-0.0625 0.5625 0.1875-0.75-0.25-0.125-0.375" fill="#292929" fill-opacity=".38824"/>
  <path d="m10.125 14.375-0.125-0.375h1l-0.125 0.375q-0.125 0.375-0.375 0.375t-0.375-0.375" fill="#3a3a3a" fill-opacity=".65098"/>
  <g>
   <path d="m10.875 14.375 0.125-0.375h1v1l-0.75 0.25 0.5625-0.1875-0.1875 0.0625q-0.1875 0.0625-0.3125 0.1875l-0.125 0.125 0.125-0.125-0.59375-0.65625-0.09375 0.09375 0.09375-0.09375q0.09375-0.09375 0.15625-0.28125l0.0625-0.1875-0.1875 0.5625 0.125-0.375" fill-opacity=".19608"/>
   <path d="m12 14.5v-0.5h1v1h-1v-0.5" fill-opacity=".15686"/>
   <path d="m13 14.5v-0.5h1v1h-1v-0.5" fill-opacity=".078431"/>
   <path d="m14 14.5v-0.5h0.5q0.5 0 0.5 0.5v0.5h-1v-0.5" fill-opacity=".011765"/>
   <path d="m2 15.5v-0.5h1v1h-1v-0.5" fill-opacity=".011765"/>
   <path d="m3 15.5v-0.5h1v1h-1v-0.5" fill-opacity=".019608"/>
   <path d="m4 15.5v-0.5h1v1h-1v-0.5" fill-opacity=".035294"/>
   <path d="m5 15.5v-0.5h1v1h-1v-0.5" fill-opacity=".047059"/>
   <path d="m6 15.5v-0.5h1v1h-1v-0.5" fill-opacity=".058824"/>
   <path d="m7 15.5v-0.5h1v1h-1v-0.5" fill-opacity=".07451"/>
   <path d="m8 15.5v-0.5h1v1h-1v-0.5" fill-opacity=".086275"/>
   <path d="m9 15.5v-0.5l0.375 0.125q0.375 0.125 0.5 0.5l0.125 0.375h-1v-0.5" fill-opacity=".094118"/>
   <path d="m9.875 15.625-0.125-0.375 0.1875 0.5625-0.0625-0.1875q-0.0625-0.1875-0.1875-0.3125l-0.125-0.125 0.125 0.125 0.59375-0.65625-0.09374-0.09374 0.09375 0.09375q0.09374 0.09374 0.21874 0.09374h0.125-0.375 0.5-0.375 0.125q0.125 0 0.21875-0.09375l0.09375-0.09375-0.09374 0.09374 0.59375 0.65625 0.125-0.125-0.125 0.125q-0.125 0.125-0.1875 0.3125l-0.06251 0.18751 0.1875-0.5625-0.25 0.75h-1l-0.125-0.375" fill-opacity=".10196"/>
   <path d="m11.125 15.625q0.125-0.375 0.5-0.5l0.375-0.125v1h-1l0.125-0.375" fill-opacity=".098039"/>
   <path d="m12 15.5v-0.5h1v1h-1v-0.5" fill-opacity=".078431"/>
   <path d="m13 15.5v-0.5h1v1h-1v-0.5" fill-opacity=".039216"/>
   <path d="m14 15.5v-0.5h1v1h-1v-0.5" fill-opacity=".0078431"/>
  </g>
 </g>
</svg>
