<?xml version="1.0" encoding="UTF-8"?>
<!-- Created with Inkscape (http://www.inkscape.org/) -->
<svg width="256" height="256" version="1.1" viewBox="0 0 67.733 67.733" xmlns="http://www.w3.org/2000/svg" xmlns:cc="http://creativecommons.org/ns#" xmlns:dc="http://purl.org/dc/elements/1.1/" xmlns:rdf="http://www.w3.org/1999/02/22-rdf-syntax-ns#">
 <metadata>
  <rdf:RDF>
   <cc:Work rdf:about="">
    <dc:format>image/svg+xml</dc:format>
    <dc:type rdf:resource="http://purl.org/dc/dcmitype/StillImage"/>
    <dc:title/>
   </cc:Work>
  </rdf:RDF>
 </metadata>
 <g transform="translate(0 -229.27)">
  <path d="m0.67039 231.96v-2.0795h66.543v66.543h-66.543v-64.463m14.556 60.304q2.0795 0 2.0795-2.0795t-2.0795-2.0795-4.1589 0h-2.0795v2.0795q0 2.0795 2.0795 2.0795 2.0795 0 4.1589 0m-8.3178-4.1589h2.0795v-2.0795q0-2.0795 0-4.1589t-2.0795-2.0795q-2.0795 0-2.0795 2.0795t0 4.1589 2.0795 2.0795m0-16.636q2.0795 0 2.0795-2.0795t-2.0795-2.0795q-2.0795 0-2.0795 2.0795t2.0795 2.0795m0-12.477q2.0795 0 2.0795-2.0795t-2.0795-2.0795q-2.0795 0-2.0795 2.0795t2.0795 2.0795m0-12.477q2.0795 0 2.0795-2.0795t0-4.1589v-2.0795h-2.0795q-2.0795 0-2.0795 2.0795t0 4.1589 2.0795 2.0795m2.0795-10.397v2.0795h2.0795q2.0795 0 4.1589 0t2.0795-2.0795-2.0795-2.0795-4.1589 0q-2.0795 0-2.0795 2.0795m18.715 56.145q2.0795 0 2.0795-2.0795t-2.0795-2.0795-2.0795 2.0795 2.0795 2.0795m0-54.066q2.0795 0 2.0795-2.0795t-2.0795-2.0795-2.0795 2.0795 2.0795 2.0795m12.477 54.066q2.0795 0 2.0795-2.0795t-2.0795-2.0795q-2.0795 0-2.0795 2.0795t2.0795 2.0795m0-54.066q2.0795 0 2.0795-2.0795t-2.0795-2.0795q-2.0795 0-2.0795 2.0795t2.0795 2.0795m16.636 54.066q2.0795 0 2.0795-2.0795v-2.0795h-2.0795q-2.0795 0-4.1589 0-2.0795 0-2.0795 2.0795t2.0795 2.0795q2.0795 0 4.1589 0m2.0795-6.2384v2.0795h2.0795q2.0795 0 2.0795-2.0795t0-4.1589-2.0795-2.0795q-2.0795 0-2.0795 2.0795t0 4.1589m2.0795-14.556q2.0795 0 2.0795-2.0795t-2.0795-2.0795q-2.0795 0-2.0795 2.0795t2.0795 2.0795m0-12.477q2.0795 0 2.0795-2.0795t-2.0795-2.0795q-2.0795 0-2.0795 2.0795t2.0795 2.0795m0-12.477q2.0795 0 2.0795-2.0795t0-4.1589-2.0795-2.0795h-2.0795v2.0795q0 2.0795 0 4.1589t2.0795 2.0795m-4.1589-8.3178h2.0795v-2.0795q0-2.0795-2.0795-2.0795t-4.1589 0q-2.0795 0-2.0795 2.0795t2.0795 2.0795q2.0795 0 4.1589 0" fill-opacity="0"/>
  <g transform="matrix(4.1589 0 0 4.1589 .67039 229.88)" stroke-width=".24045">
   <path d="m0 0.5v-0.5h16v16h-16v-15.5m13.5 14.5q0.5 0 0.5-0.5v-0.5h0.5q0.5 0 0.5-0.5t0-1 0-1 0-1 0-1 0-1 0-1 0-1 0-1 0-1 0-1 0-1-0.5-0.5h-0.5v-0.5q0-0.5-0.5-0.5t-1 0-1 0-1 0-1 0-1 0-1 0-1 0-1 0-1 0-1 0-1 0-0.5 0.5v0.5h-0.5q-0.5 0-0.5 0.5t0 1 0 1 0 1 0 1 0 1 0 1 0 1 0 1 0 1 0 1 0 1 0.5 0.5h0.5v0.5q0 0.5 0.5 0.5t1 0 1 0 1 0 1 0 1 0 1 0 1 0 1 0 1 0 1 0 1 0" fill-opacity="0"/>
   <path d="m2 1.5q0-0.5 0.5-0.5t1 0 1 0 1 0 1 0 1 0 1 0 1 0 1 0 1 0 1 0 1 0 0.5 0.5v0.5h-0.5q-0.5 0-1 0t-1 0-1 0-1 0-1 0-1 0-1 0-1 0-1 0-1 0-1 0h-0.5v-0.5" fill-opacity=".50196"/>
   <path d="m1 2.5q0-0.5 0.5-0.5h0.5v0.5q0 0.5 0 1t0 1 0 1 0 1 0 1 0 1 0 1 0 1 0 1 0 1 0 1v0.5h-0.5q-0.5 0-0.5-0.5t0-1 0-1 0-1 0-1 0-1 0-1 0-1 0-1 0-1 0-1 0-1" fill-opacity=".50196"/>
   <path d="m2 2.5v-0.5h0.5q0.5 0 1 0t1 0 1 0 1 0 1 0 1 0 1 0 1 0 1 0 1 0 1 0h0.5v0.5q0 0.5 0 1t0 1 0 1 0 1 0 1 0 1 0 1 0 1 0 1 0 1 0 1v0.5h-0.5q-0.5 0-1 0t-1 0-1 0-1 0-1 0-1 0-1 0-1 0-1 0-1 0-1 0h-0.5v-0.5q0-0.5 0-1t0-1 0-1 0-1 0-1 0-1 0-1 0-1 0-1 0-1 0-1" fill-opacity="0"/>
   <path d="m14 2.5v-0.5h0.5q0.5 0 0.5 0.5t0 1 0 1 0 1 0 1 0 1 0 1 0 1 0 1 0 1 0 1 0 1-0.5 0.5h-0.5v-0.5q0-0.5 0-1t0-1 0-1 0-1 0-1 0-1 0-1 0-1 0-1 0-1 0-1" fill-opacity=".50196"/>
   <path d="m2 14.5v-0.5h0.5q0.5 0 1 0t1 0 1 0 1 0 1 0 1 0 1 0 1 0 1 0 1 0 1 0h0.5v0.5q0 0.5-0.5 0.5t-1 0-1 0-1 0-1 0-1 0-1 0-1 0-1 0-1 0-1 0-1 0-0.5-0.5" fill-opacity=".50196"/>
  </g>
 </g>
</svg>
